SplineFontDB: 3.2
FontName: Condescend2
FullName: Condescend2
FamilyName: Condescend2
Weight: Regular
Copyright: Copyright (c) 2022, FontFish
UComments: "2022-12-30: Created with FontForge (http://fontforge.org)"
FontLog: "Began 2022-12-30+AAoACgAK-Completed as of 2023-01-01 :+AAoA-E, H, I, J, L, O+AAoA-a to v+AAoA-comma [,]"
Version: 001.000
ItalicAngle: 0
UnderlinePosition: -100
UnderlineWidth: 50
Ascent: 720
Descent: 280
InvalidEm: 0
LayerCount: 2
Layer: 0 0 "Back" 1
Layer: 1 0 "Fore" 0
XUID: [1021 63 -208442010 3809248]
FSType: 0
OS2Version: 0
OS2_WeightWidthSlopeOnly: 0
OS2_UseTypoMetrics: 1
CreationTime: 1672435746
ModificationTime: 1674615428
PfmFamily: 17
TTFWeight: 400
TTFWidth: 5
LineGap: 90
VLineGap: 0
OS2TypoAscent: 0
OS2TypoAOffset: 1
OS2TypoDescent: 0
OS2TypoDOffset: 1
OS2TypoLinegap: 90
OS2WinAscent: 0
OS2WinAOffset: 1
OS2WinDescent: 0
OS2WinDOffset: 1
HheadAscent: 0
HheadAOffset: 1
HheadDescent: 0
HheadDOffset: 1
OS2Vendor: 'PfEd'
MarkAttachClasses: 1
DEI: 91125
LangName: 1033
Encoding: UnicodeBmp
Compacted: 1
UnicodeInterp: none
NameList: AGL For New Fonts
DisplaySize: -36
AntiAlias: 1
FitToEm: 0
WinInfo: 0 20 8
BeginPrivate: 0
EndPrivate
Grid
-1000 765 m 0
 2000 765 l 1024
-1000 600 m 0
 2000 600 l 1024
  Named: "caps"
-1000 390 m 0
 2000 390 l 1024
  Named: "x"
EndSplineSet
TeXData: 1 0 0 262144 131072 87381 408945 1048576 87381 783286 444596 497025 792723 393216 433062 380633 303038 157286 324010 404750 52429 2506097 1059062 262144
AnchorClass2: "accent_below_cap"""  "accent_above_cap"""  "accent_below"""  "accent_above"""  "above""" 
BeginChars: 65550 243

StartChar: n
Encoding: 110 110 0
Width: 490
Flags: HW
AnchorPoint: "accent_above" 250 455 basechar 0
LayerCount: 2
Back
SplineSet
34 345 m 1
 154 404 l 1
 164 404 l 1
 164 0 l 1
 90 0 l 1
 90 295 l 1
 34 335 l 1
 34 345 l 1
280 35 m 1
 470 35 l 1
 470 0 l 1
 280 0 l 1
 280 35 l 1
30 35 m 1
 225 35 l 1
 225 0 l 1
 30 0 l 1
 30 35 l 1
336 275 m 1
 336 315 305 343 266 343 c 1
 226 343 189 323 164 303 c 1
 164 333 l 1
 204 368 250 400 305 400 c 1
 365 400 410 358 410 296 c 1
 410 0 l 1
 336 0 l 1
 336 275 l 1
-476 345 m 1
 -356 404 l 1
 -346 404 l 1
 -346 0 l 1
 -420 0 l 1
 -420 295 l 1
 -476 335 l 1
 -476 345 l 1
-225 35 m 1
 -35 35 l 1
 -35 0 l 1
 -225 0 l 1
 -225 35 l 1
-480 35 m 1
 -285 35 l 1
 -285 0 l 1
 -480 0 l 1
 -480 35 l 1
-169 271 m 1
 -169 311 -205 343 -244 343 c 1
 -284 343 -321 323 -346 303 c 1
 -346 333 l 1
 -306 368 -255 400 -200 400 c 1
 -140 400 -95 354 -95 292 c 1
 -95 0 l 1
 -169 0 l 1
 -169 271 l 1
-966 345 m 1
 -846 404 l 1
 -836 404 l 1
 -836 0 l 1
 -910 0 l 1
 -910 295 l 1
 -966 335 l 1
 -966 345 l 1
-720 35 m 1
 -530 35 l 1
 -530 0 l 1
 -720 0 l 1
 -720 35 l 1
-970 35 m 1
 -775 35 l 1
 -775 0 l 1
 -970 0 l 1
 -970 35 l 1
-664 278 m 1
 -664 318 -695 343 -734 343 c 1
 -774 343 -811 323 -836 303 c 1
 -836 333 l 1
 -801 368 -755 400 -700 400 c 1
 -638 400 -590 358 -590 296 c 1
 -590 0 l 1
 -664 0 l 1
 -664 278 l 1
-1235 35 m 1
 -1045 35 l 1
 -1045 0 l 1
 -1235 0 l 1
 -1235 35 l 1
-1480 35 m 1
 -1285 35 l 1
 -1285 0 l 1
 -1480 0 l 1
 -1480 35 l 1
-1180 280 m 1
 -1180 320 -1207 345 -1246 345 c 1
 -1286 345 -1321 325 -1346 305 c 1
 -1346 335 l 1
 -1311 370 -1271 400 -1216 400 c 1
 -1156 400 -1106 360 -1106 300 c 1
 -1106 0 l 1
 -1180 0 l 1
 -1180 280 l 1
-1476 345 m 1
 -1356 404 l 1
 -1346 404 l 1
 -1346 0 l 1
 -1420 0 l 1
 -1420 295 l 1
 -1476 335 l 1
 -1476 345 l 1
EndSplineSet
Fore
SplineSet
34 345 m 1
 154 404 l 1
 164 404 l 1
 164 0 l 1
 90 0 l 1
 90 295 l 1
 34 335 l 1
 34 345 l 1
280 35 m 1
 470 35 l 1
 470 0 l 1
 280 0 l 1
 280 35 l 1
30 35 m 1
 225 35 l 1
 225 0 l 1
 30 0 l 1
 30 35 l 1
336 275 m 1
 336 315 305 343 266 343 c 1
 226 343 189 323 164 303 c 1
 164 335 l 1
 204 368 250 400 305 400 c 1
 365 400 410 358 410 296 c 1
 410 0 l 1
 336 0 l 1
 336 275 l 1
EndSplineSet
EndChar

StartChar: m
Encoding: 109 109 1
Width: 734
Flags: HW
LayerCount: 2
Back
SplineSet
527 35 m 1
 712 35 l 1
 712 0 l 1
 527 0 l 1
 527 35 l 1
580 270 m 1
 580 310 548 343 509 343 c 1
 469 343 429 325 404 303 c 1
 399 328 l 1
 441 368 495 400 548 400 c 1
 608 400 654 353 654 293 c 1
 654 0 l 1
 580 0 l 1
 580 270 l 1
282 35 m 1
 465 35 l 1
 465 0 l 1
 282 0 l 1
 282 35 l 1
30 35 m 1
 220 35 l 1
 220 0 l 1
 30 0 l 1
 30 35 l 1
335 270 m 1
 335 310 303 343 264 343 c 1
 224 343 188 327 164 306 c 1
 164 336 l 1
 199 368 250 400 303 400 c 1
 363 400 409 353 409 293 c 1
 409 0 l 1
 335 0 l 1
 335 270 l 1
34 345 m 1
 154 404 l 1
 164 404 l 1
 164 0 l 1
 90 0 l 1
 90 295 l 1
 34 335 l 1
 34 345 l 1
-213 35 m 1
 -28 35 l 1
 -28 0 l 1
 -213 0 l 1
 -213 35 l 1
-160 275 m 1
 -160 315 -187 343 -226 343 c 1
 -266 343 -306 325 -331 303 c 1
 -336 328 l 1
 -294 368 -245 400 -192 400 c 1
 -132 400 -86 358 -86 298 c 1
 -86 0 l 1
 -160 0 l 1
 -160 275 l 1
-453 35 m 1
 -270 35 l 1
 -270 0 l 1
 -453 0 l 1
 -453 35 l 1
-700 35 m 1
 -510 35 l 1
 -510 0 l 1
 -700 0 l 1
 -700 35 l 1
-400 275 m 1
 -400 315 -427 343 -466 343 c 1
 -506 343 -542 327 -566 306 c 1
 -566 336 l 1
 -531 368 -485 400 -432 400 c 1
 -372 400 -326 358 -326 298 c 1
 -326 0 l 1
 -400 0 l 1
 -400 275 l 1
-696 345 m 1
 -576 404 l 1
 -566 404 l 1
 -566 0 l 1
 -640 0 l 1
 -640 295 l 1
 -696 335 l 1
 -696 345 l 1
-953 35 m 1
 -768 35 l 1
 -768 0 l 1
 -953 0 l 1
 -953 35 l 1
-900 280 m 1
 -900 320 -927 345 -966 345 c 1
 -1006 345 -1041 325 -1066 305 c 1
 -1071 330 l 1
 -1032 370 -991 400 -936 400 c 1
 -876 400 -826 360 -826 300 c 1
 -826 0 l 1
 -900 0 l 1
 -900 280 l 1
-1188 35 m 1
 -1005 35 l 1
 -1005 0 l 1
 -1188 0 l 1
 -1188 35 l 1
-1430 35 m 1
 -1240 35 l 1
 -1240 0 l 1
 -1430 0 l 1
 -1430 35 l 1
-1135 280 m 1
 -1135 320 -1162 345 -1201 345 c 1
 -1241 345 -1276 325 -1301 305 c 1
 -1301 335 l 1
 -1266 370 -1226 400 -1171 400 c 1
 -1111 400 -1061 360 -1061 300 c 1
 -1061 0 l 1
 -1135 0 l 1
 -1135 280 l 1
-1426 345 m 1
 -1306 404 l 1
 -1296 404 l 1
 -1296 0 l 1
 -1370 0 l 1
 -1370 295 l 1
 -1426 335 l 1
 -1426 345 l 1
EndSplineSet
Fore
SplineSet
527 35 m 1
 712 35 l 1
 712 0 l 1
 527 0 l 1
 527 35 l 1
580 270 m 1
 580 310 548 343 509 343 c 1
 469 343 430 325 405 303 c 1
 399 332 l 1
 441 369 495 400 548 400 c 1
 608 400 654 353 654 293 c 1
 654 0 l 1
 580 0 l 1
 580 270 l 1
282 35 m 1
 465 35 l 1
 465 0 l 1
 282 0 l 1
 282 35 l 1
30 35 m 1
 220 35 l 1
 220 0 l 1
 30 0 l 1
 30 35 l 1
335 270 m 1
 335 310 303 343 264 343 c 1
 224 343 188 327 164 306 c 1
 164 338 l 1
 199 369 250 400 303 400 c 1
 363 400 409 353 409 293 c 1
 409 0 l 1
 335 0 l 1
 335 270 l 1
34 345 m 1
 154 404 l 1
 164 404 l 1
 164 0 l 1
 90 0 l 1
 90 295 l 1
 34 335 l 1
 34 345 l 1
EndSplineSet
EndChar

StartChar: o
Encoding: 111 111 2
Width: 456
Flags: HW
AnchorPoint: "accent_above" 228 455 basechar 0
LayerCount: 2
Back
SplineSet
115 210 m 0
 115 105 163 28 233 28 c 0
 300 28 343 85 343 180 c 0
 343 285 295 362 225 362 c 0
 158 362 115 305 115 210 c 0
25 192 m 0
 25 305 120 400 233 400 c 0
 345 400 433 310 433 198 c 0
 433 85 338 -10 225 -10 c 0
 113 -10 25 80 25 192 c 0
-362 210 m 0
 -362 105 -312 28 -242 28 c 0
 -175 28 -130 85 -130 180 c 0
 -130 285 -180 362 -250 362 c 0
 -317 362 -362 305 -362 210 c 0
-452 192 m 0
 -452 305 -355 400 -242 400 c 0
 -130 400 -40 310 -40 198 c 0
 -40 85 -137 -10 -250 -10 c 0
 -362 -10 -452 80 -452 192 c 0
-832 187 m 0
 -825 92 -772 23 -704 28 c 0
 -636 33 -593 108 -600 203 c 0
 -607 298 -660 367 -728 362 c 0
 -796 357 -839 282 -832 187 c 0
-922 192 m 0
 -922 305 -825 400 -712 400 c 0
 -600 400 -510 310 -510 198 c 0
 -510 85 -607 -10 -720 -10 c 0
 -832 -10 -922 80 -922 192 c 0
-1292 195 m 0
 -1292 100 -1244 28 -1176 28 c 0
 -1108 28 -1060 100 -1060 195 c 0
 -1060 290 -1108 362 -1176 362 c 0
 -1244 362 -1292 290 -1292 195 c 0
-1382 192 m 0
 -1382 305 -1285 400 -1172 400 c 0
 -1060 400 -970 310 -970 198 c 0
 -970 85 -1067 -10 -1180 -10 c 0
 -1292 -10 -1382 80 -1382 192 c 0
EndSplineSet
Fore
SplineSet
113 210 m 0
 113 105 162 28 232 28 c 0
 299 28 343 85 343 180 c 0
 343 285 294 362 224 362 c 0
 157 362 113 305 113 210 c 0
24 192 m 0
 24 305 119 400 232 400 c 0
 344 400 432 310 432 198 c 0
 432 85 337 -10 224 -10 c 0
 112 -10 24 80 24 192 c 0
EndSplineSet
EndChar

StartChar: i
Encoding: 105 105 3
Width: 250
Flags: HW
LayerCount: 2
Back
SplineSet
89 580 m 0
 89 605 109 625 134 625 c 0
 159 625 179 605 179 580 c 0
 179 555 159 535 134 535 c 0
 109 535 89 555 89 580 c 0
89 580 m 0
 89 605 109 625 134 625 c 0
 159 625 179 605 179 580 c 0
 179 555 159 535 134 535 c 0
 109 535 89 555 89 580 c 0
24 35 m 1
 234 35 l 1
 234 0 l 1
 24 0 l 1
 24 35 l 1
36 350 m 1
 154 404 l 1
 164 404 l 1
 164 0 l 1
 90 0 l 1
 90 300 l 1
 36 340 l 1
 36 350 l 1
EndSplineSet
Fore
SplineSet
88 570 m 0
 88 595 109 616 134 616 c 0
 159 616 180 595 180 570 c 0
 180 545 159 524 134 524 c 0
 109 524 88 545 88 570 c 0
24 35 m 1
 234 35 l 1
 234 0 l 1
 24 0 l 1
 24 35 l 1
35 350 m 1
 154 404 l 1
 164 404 l 1
 164 0 l 1
 90 0 l 1
 90 300 l 1
 35 340 l 1
 35 350 l 1
EndSplineSet
EndChar

StartChar: l
Encoding: 108 108 4
Width: 254
Flags: HW
LayerCount: 2
Fore
SplineSet
24 35 m 1
 234 35 l 1
 234 0 l 1
 24 0 l 1
 24 35 l 1
36 610 m 1
 154 654 l 1
 164 654 l 1
 164 0 l 1
 90 0 l 1
 90 560 l 1
 36 600 l 1
 36 610 l 1
EndSplineSet
Validated: 5
EndChar

StartChar: j
Encoding: 106 106 5
Width: 245
Flags: HW
LayerCount: 2
Fore
SplineSet
88 570 m 0
 88 595 109 616 134 616 c 0
 159 616 180 595 180 570 c 0
 180 545 159 524 134 524 c 0
 109 524 88 545 88 570 c 0
90 0 m 1
 164 0 l 25
 164 -120 l 17
 144 -180 90 -235 25 -260 c 1
 10 -235 l 1
 70 -200 90 -155 90 -90 c 1
 90 0 l 1
36 350 m 1
 154 404 l 1
 164 404 l 1
 164 0 l 1
 90 0 l 1
 90 300 l 1
 36 340 l 1
 36 350 l 1
EndSplineSet
Validated: 5
EndChar

StartChar: h
Encoding: 104 104 6
Width: 496
Flags: HW
LayerCount: 2
Back
SplineSet
36 610 m 1
 154 654 l 1
 164 654 l 1
 164 0 l 1
 90 0 l 1
 90 560 l 1
 36 600 l 1
 36 610 l 1
288 35 m 1
 480 35 l 1
 480 0 l 1
 288 0 l 1
 288 35 l 1
30 35 m 1
 225 35 l 1
 225 0 l 1
 30 0 l 1
 30 35 l 1
346 270 m 1
 346 310 312 343 273 343 c 1
 231 343 194 325 164 303 c 1
 164 333 l 1
 201 371 257 400 312 400 c 1
 374 400 420 353 420 291 c 1
 420 0 l 1
 346 0 l 1
 346 270 l 1
-484 610 m 1
 -366 654 l 1
 -356 654 l 1
 -356 0 l 1
 -430 0 l 1
 -430 560 l 1
 -484 600 l 1
 -484 610 l 1
-237 35 m 1
 -45 35 l 1
 -45 0 l 1
 -237 0 l 1
 -237 35 l 1
-490 35 m 1
 -295 35 l 1
 -295 0 l 1
 -490 0 l 1
 -490 35 l 1
-179 275 m 1
 -179 315 -208 343 -247 343 c 1
 -289 343 -326 325 -356 303 c 1
 -356 333 l 1
 -319 371 -268 400 -213 400 c 1
 -151 400 -105 358 -105 296 c 1
 -105 0 l 1
 -179 0 l 1
 -179 275 l 1
-974 650 m 1
 -856 694 l 1
 -846 694 l 1
 -846 0 l 1
 -920 0 l 1
 -920 600 l 1
 -974 640 l 1
 -974 650 l 1
-730 35 m 1
 -540 35 l 1
 -540 0 l 1
 -730 0 l 1
 -730 35 l 1
-980 35 m 1
 -785 35 l 1
 -785 0 l 1
 -980 0 l 1
 -980 35 l 1
-674 280 m 1
 -674 320 -705 345 -744 345 c 1
 -784 345 -821 325 -846 305 c 1
 -846 335 l 1
 -811 370 -765 400 -710 400 c 1
 -648 400 -600 360 -600 298 c 1
 -600 0 l 1
 -674 0 l 1
 -674 280 l 1
EndSplineSet
Fore
SplineSet
36 610 m 1
 154 654 l 1
 164 654 l 1
 164 0 l 1
 90 0 l 1
 90 560 l 1
 36 600 l 1
 36 610 l 1
288 35 m 1
 480 35 l 1
 480 0 l 1
 288 0 l 1
 288 35 l 1
30 35 m 1
 225 35 l 1
 225 0 l 1
 30 0 l 1
 30 35 l 1
346 270 m 1
 346 310 312 343 273 343 c 1
 231 343 194 325 164 303 c 1
 164 335 l 1
 201 370 257 400 312 400 c 1
 374 400 420 353 420 291 c 1
 420 0 l 1
 346 0 l 1
 346 270 l 1
EndSplineSet
EndChar

StartChar: r
Encoding: 114 114 7
Width: 340
Flags: HW
LayerCount: 2
Back
SplineSet
635 305 m 3
 620 305 600 318 590 318 c 1
 560 318 514 265 514 230 c 1
 514 300 l 1
 554 360 594 400 644 400 c 1
 667 400 685 385 685 360 c 1
 685 330 655 305 635 305 c 3
378 35 m 1
 600 35 l 1
 600 0 l 1
 378 0 l 1
 378 35 l 1
389 345 m 1
 504 404 l 1
 514 404 l 1
 514 0 l 1
 440 0 l 1
 440 295 l 1
 389 335 l 1
 389 345 l 1
290 305 m 3
 275 305 255 318 245 318 c 1
 220 318 189 292 164 258 c 1
 164 300 l 1
 204 355 249 400 299 400 c 1
 322 400 340 385 340 360 c 1
 340 330 310 305 290 305 c 3
28 35 m 1
 250 35 l 1
 250 0 l 1
 28 0 l 1
 28 35 l 1
39 345 m 1
 154 404 l 1
 164 404 l 1
 164 0 l 1
 90 0 l 1
 90 295 l 1
 39 335 l 1
 39 345 l 1
-90 305 m 3
 -105 305 -125 315 -135 315 c 1
 -160 315 -196 300 -216 270 c 1
 -216 307 l 1
 -176 357 -131 400 -81 400 c 1
 -58 400 -40 385 -40 360 c 1
 -40 330 -70 305 -90 305 c 3
-352 35 m 1
 -130 35 l 1
 -130 0 l 1
 -352 0 l 1
 -352 35 l 1
-341 345 m 1
 -226 404 l 1
 -216 404 l 1
 -216 0 l 1
 -290 0 l 1
 -290 295 l 1
 -341 335 l 1
 -341 345 l 1
EndSplineSet
Fore
SplineSet
285 307 m 3
 270 307 255 317 245 317 c 1
 220 317 189 295 164 253 c 1
 164 298 l 1
 204 353 244 400 294 400 c 1
 317 400 335 385 335 360 c 1
 335 330 305 307 285 307 c 3
28 35 m 1
 250 35 l 1
 250 0 l 1
 28 0 l 1
 28 35 l 1
39 345 m 1
 154 404 l 1
 164 404 l 1
 164 0 l 1
 90 0 l 1
 90 295 l 1
 39 335 l 1
 39 345 l 1
EndSplineSet
Validated: 5
EndChar

StartChar: k
Encoding: 107 107 8
Width: 465
Flags: HW
LayerCount: 2
Fore
SplineSet
284 35 m 1
 469 35 l 1
 469 0 l 1
 284 0 l 1
 284 35 l 1
180 220 m 1
 240 265 l 1
 445 5 l 1
 350 0 l 1
 180 220 l 1
370 390 m 1
 430 390 l 1
 164 165 l 1
 164 215 l 1
 370 390 l 1
265 390 m 1
 450 390 l 1
 450 355 l 1
 265 355 l 1
 265 390 l 1
24 35 m 1
 219 35 l 1
 219 0 l 1
 24 0 l 1
 24 35 l 1
36 610 m 1
 154 654 l 1
 164 654 l 1
 164 0 l 1
 90 0 l 1
 90 560 l 1
 36 600 l 1
 36 610 l 1
EndSplineSet
Validated: 5
EndChar

StartChar: u
Encoding: 117 117 9
Width: 490
Flags: HW
AnchorPoint: "accent_above" 245 455 basechar 0
LayerCount: 2
Back
SplineSet
400 405 m 1
 400 65 l 1
 456 55 l 1
 456 35 l 1
 336 -14 l 1
 326 -14 l 1
 326 305 l 1
 262 345 l 1
 262 355 l 1
 390 405 l 1
 400 405 l 1
154 405 m 1
 154 115 l 1
 154 75 180 45 220 45 c 1
 260 45 298 62 326 90 c 1
 326 58 l 1
 289 18 243 -10 185 -10 c 1
 125 -10 80 32 80 97 c 1
 80 305 l 1
 26 345 l 1
 26 355 l 1
 144 405 l 1
 154 405 l 1
EndSplineSet
Fore
SplineSet
400 405 m 1
 400 65 l 1
 456 55 l 1
 456 35 l 1
 336 -14 l 1
 326 -14 l 1
 326 305 l 1
 262 345 l 1
 262 355 l 1
 390 405 l 1
 400 405 l 1
154 405 m 1
 154 115 l 1
 154 75 180 45 220 45 c 1
 260 45 298 62 326 90 c 1
 326 56 l 1
 289 19 242 -10 185 -10 c 1
 125 -10 80 32 80 97 c 1
 80 305 l 1
 26 345 l 1
 26 355 l 1
 144 405 l 1
 154 405 l 1
EndSplineSet
EndChar

StartChar: b
Encoding: 98 98 10
Width: 475
Flags: HW
LayerCount: 2
Back
SplineSet
164 315 m 1
 164 345 l 1
 205 375 250 400 300 400 c 3
 390 400 455 310 455 215 c 3
 455 85 360 -10 245 -10 c 3
 185 -10 150 5 90 20 c 9
 164 110 l 17
 164 60 220 30 260 30 c 3
 330 30 380 85 380 185 c 3
 380 275 324 342 244 342 c 3
 219 342 184 327 164 315 c 1
36 610 m 1
 154 654 l 1
 164 654 l 1
 164 20 l 1
 90 20 l 1
 90 560 l 1
 36 600 l 1
 36 610 l 1
EndSplineSet
Fore
SplineSet
159 315 m 1
 159 346 l 1
 200 376 245 400 295 400 c 3
 380 400 450 315 450 215 c 3
 450 90 355 -10 240 -10 c 3
 180 -10 145 5 85 20 c 9
 159 110 l 17
 159 60 210 30 250 30 c 3
 320 30 375 85 375 185 c 3
 375 275 314 342 239 342 c 3
 214 342 179 327 159 315 c 1
31 610 m 1
 149 654 l 1
 159 654 l 1
 159 20 l 1
 85 20 l 1
 85 560 l 1
 31 600 l 1
 31 610 l 1
EndSplineSet
EndChar

StartChar: period
Encoding: 46 46 12
Width: 240
Flags: HW
LayerCount: 2
Back
SplineSet
61 45 m 0
 61 75 85 99 115 99 c 0
 145 99 169 75 169 45 c 0
 169 15 145 -9 115 -9 c 0
 85 -9 61 15 61 45 c 0
EndSplineSet
Fore
SplineSet
62 45 m 0
 62 77 88 103 120 103 c 0
 152 103 178 77 178 45 c 0
 178 13 152 -13 120 -13 c 0
 88 -13 62 13 62 45 c 0
EndSplineSet
Validated: 1
EndChar

StartChar: d
Encoding: 100 100 13
Width: 480
Flags: HW
LayerCount: 2
Back
SplineSet
390 654 m 1
 390 65 l 1
 446 55 l 1
 446 35 l 1
 326 -14 l 1
 316 -14 l 1
 316 560 l 1
 255 600 l 1
 255 610 l 1
 380 654 l 1
 390 654 l 1
316 78 m 1
 316 48 l 1
 286 18 241 -10 186 -10 c 3
 101 -10 25 75 25 175 c 3
 25 305 126 399 231 399 c 3
 256 399 296 394 316 384 c 9
 316 315 l 1
 296 340 261 358 221 358 c 3
 156 358 99 300 99 210 c 3
 99 120 156 48 231 48 c 3
 261 48 294 60 316 78 c 1
-173 610 m 1
 -55 654 l 1
 -45 654 l 1
 -45 0 l 1
 -119 0 l 1
 -119 560 l 1
 -173 600 l 1
 -173 610 l 1
-120 70 m 1
 -120 40 l 1
 -150 12 -195 -10 -245 -10 c 3
 -330 -10 -408 75 -408 175 c 3
 -408 305 -310 400 -190 400 c 3
 -150 400 -95 385 -65 365 c 9
 -119 275 l 17
 -119 320 -165 356 -215 356 c 3
 -280 356 -335 300 -335 200 c 3
 -335 110 -277 45 -202 45 c 3
 -172 45 -140 55 -120 70 c 1
-529 75 m 1
 -529 45 l 1
 -570 15 -615 -10 -665 -10 c 3
 -750 -10 -820 75 -820 175 c 3
 -820 305 -720 400 -605 400 c 3
 -545 400 -515 385 -455 370 c 9
 -529 280 l 17
 -529 330 -580 360 -620 360 c 3
 -690 360 -745 305 -745 205 c 3
 -745 115 -684 48 -609 48 c 3
 -584 48 -549 63 -529 75 c 1
EndSplineSet
Fore
SplineSet
390 654 m 1
 390 65 l 1
 446 55 l 1
 446 35 l 1
 326 -14 l 1
 316 -14 l 1
 316 560 l 1
 255 600 l 1
 255 610 l 1
 380 654 l 1
 390 654 l 1
316 78 m 1
 316 48 l 1
 286 18 241 -10 186 -10 c 3
 101 -10 25 75 25 175 c 3
 25 305 126 399 231 399 c 3
 256 399 296 394 316 384 c 9
 316 315 l 1
 296 338 261 357 221 357 c 3
 156 357 99 300 99 205 c 3
 99 120 156 48 231 48 c 3
 261 48 294 60 316 78 c 1
EndSplineSet
EndChar

StartChar: a
Encoding: 97 97 14
Width: 382
Flags: HW
AnchorPoint: "accent_above" 192 455 basechar 0
LayerCount: 2
Back
SplineSet
1292 -30 m 1
 1330 -30 l 1
 1287 -310 l 2
 1283 -335 1283 -355 1295 -355 c 3
 1320 -355 1355 -315 1380 -270 c 9
 1405 -285 l 1
 1365 -365 1305 -430 1250 -430 c 3
 1215 -430 1204 -395 1215 -325 c 2
 1245 -130 l 1
 1292 -30 l 1
1242 -118 m 1
 1236 -113 1227 -110 1217 -110 c 3
 1147 -110 1082 -230 1082 -315 c 3
 1082 -340 1091 -355 1103 -355 c 3
 1143 -355 1225 -253 1242 -118 c 1
1224 -275 m 17
 1176 -380 1110 -430 1065 -430 c 3
 1035 -430 1010 -400 1010 -360 c 3
 1010 -230 1150 -35 1255 -35 c 3
 1265 -35 1281 -37 1290 -40 c 9
 1224 -275 l 17
822 -30 m 1
 860 -30 l 1
 785 -305 l 2
 779 -327 775 -355 790 -355 c 3
 815 -355 850 -315 875 -270 c 9
 900 -285 l 1
 860 -365 800 -430 745 -430 c 3
 710 -430 692 -390 710 -325 c 2
 775 -85 l 1
 822 -30 l 1
767 -118 m 1
 761 -113 750 -110 740 -110 c 3
 665 -110 575 -230 575 -325 c 3
 575 -343 583 -355 595 -355 c 3
 630 -355 732 -248 767 -118 c 1
728 -265 m 17
 663 -380 610 -430 560 -430 c 3
 530 -430 505 -400 505 -360 c 3
 505 -240 655 -41 780 -41 c 3
 792 -41 808 -44 817 -48 c 9
 728 -265 l 17
1659 310 m 1
 1654 316 1643 320 1633 320 c 3
 1558 320 1490 200 1490 95 c 3
 1490 77 1498 65 1510 65 c 3
 1550 65 1639 165 1659 310 c 1
1635 140 m 17
 1585 45 1510 -10 1460 -10 c 3
 1430 -10 1420 25 1420 65 c 3
 1420 195 1568 385 1663 385 c 3
 1675 385 1691 382 1700 378 c 9
 1635 140 l 17
1700 390 m 1
 1740 390 l 1
 1690 65 l 1
 1770 135 l 1
 1792 113 l 1
 1707 18 1680 -10 1650 -10 c 0
 1620 -10 1614 20 1620 60 c 2
 1645 225 l 1
 1700 390 l 1
1215 100 m 1
 1285 100 l 1025
679 337 m 3
 693 337 704 324 704 310 c 27
 704 195 573 73 529 73 c 3
 516 73 501 80 501 93 c 3
 501 181 609 337 679 337 c 3
790 390 m 1
 860 390 l 1
 785 115 l 2
 779 93 775 65 790 65 c 3
 815 65 850 105 875 150 c 9
 900 135 l 1
 860 55 800 -10 745 -10 c 3
 710 -10 692 30 710 95 c 10
 790 390 l 1
1010 390 m 1
 1080 390 l 1
 1015 80 l 1
 1025 70 l 1
 1105 140 l 1
 1130 115 l 1
 1035 20 1010 -10 975 -10 c 3
 945 -10 933 25 945 80 c 10
 1010 390 l 1
950 105 m 1
 1020 105 l 1025
1260 390 m 1
 1330 390 l 1
 1280 65 l 1
 1360 135 l 1
 1382 113 l 1
 1297 18 1270 -10 1240 -10 c 0
 1210 -10 1204 20 1210 60 c 2
 1260 390 l 1
226 60 m 1
 193 20 150 -10 108 -10 c 3
 63 -10 30 35 30 80 c 3
 30 130 80 158 226 208 c 1
 226 177 l 17
 130 142 107 123 107 95 c 3
 107 67 125 45 145 45 c 3
 170 45 201 65 226 93 c 1
 226 60 l 1
226 285 m 1
 226 317 200 340 165 340 c 1
 147 340 125 336 107 328 c 1
 105 285 l 1
 34 264 l 1
 34 292 l 1
 74 347 140 400 200 400 c 1
 255 400 298 360 298 305 c 1
 298 75 l 1
 298 60 308 50 323 50 c 1
 343 50 358 65 368 75 c 1
 383 52 l 1
 358 15 328 -10 288 -10 c 1
 253 -10 226 22 226 55 c 1
 226 285 l 1
-184 60 m 1
 -217 20 -260 -10 -302 -10 c 3
 -343 -10 -380 35 -380 85 c 3
 -380 130 -330 157 -184 207 c 1
 -184 176 l 17
 -280 141 -303 122 -303 97 c 3
 -303 72 -285 45 -265 45 c 3
 -240 45 -209 65 -184 93 c 1
 -184 60 l 1
-184 285 m 1
 -184 317 -210 340 -245 340 c 1
 -263 340 -285 336 -303 328 c 1
 -303 285 l 1
 -378 260 l 1
 -378 290 l 1
 -338 345 -270 400 -210 400 c 1
 -155 400 -112 360 -112 305 c 1
 -112 75 l 1
 -112 60 -102 50 -87 50 c 1
 -67 50 -52 65 -42 75 c 1
 -27 52 l 1
 -52 15 -82 -10 -122 -10 c 1
 -157 -10 -184 22 -184 55 c 1
 -184 285 l 1
-584 60 m 1
 -617 20 -660 -10 -702 -10 c 3
 -743 -10 -780 35 -780 85 c 3
 -780 130 -730 157 -584 207 c 1
 -584 175 l 17
 -680 140 -705 122 -705 97 c 3
 -705 72 -685 45 -665 45 c 3
 -640 45 -609 65 -584 95 c 1
 -584 60 l 1
-584 285 m 1
 -584 315 -610 340 -640 340 c 1
 -658 340 -682 336 -700 328 c 1
 -700 285 l 1
 -780 260 l 1
 -780 290 l 1
 -740 345 -670 400 -610 400 c 1
 -555 400 -512 360 -512 305 c 1
 -512 75 l 1
 -512 60 -502 50 -487 50 c 1
 -467 50 -452 65 -442 75 c 1
 -427 52 l 1
 -452 15 -482 -10 -522 -10 c 1
 -557 -10 -584 22 -584 55 c 1
 -584 285 l 1
-974 60 m 1
 -1007 20 -1050 -10 -1092 -10 c 3
 -1133 -10 -1170 35 -1170 85 c 3
 -1170 130 -1120 157 -974 207 c 1
 -974 175 l 17
 -1070 140 -1095 122 -1095 97 c 3
 -1095 72 -1075 46 -1055 46 c 3
 -1030 46 -999 65 -974 95 c 1
 -974 60 l 1
-974 290 m 1
 -974 320 -1005 340 -1030 340 c 1
 -1048 340 -1072 336 -1090 328 c 1
 -1090 285 l 1
 -1170 260 l 1
 -1170 290 l 1
 -1130 345 -1060 400 -1000 400 c 1
 -945 400 -900 360 -900 305 c 1
 -900 80 l 1
 -900 62 -890 50 -875 50 c 1
 -855 50 -840 65 -830 75 c 1
 -815 52 l 1
 -840 15 -870 -10 -910 -10 c 1
 -945 -10 -974 20 -974 55 c 1
 -974 290 l 1
-1234 59 m 1
 -1271 16 -1316 -12 -1356 -10 c 0
 -1396 -8 -1434 39 -1431 89 c 0
 -1429 134 -1361 163 -1228 206 c 1
 -1230 174 l 17
 -1323 144 -1354 125 -1355 100 c 0
 -1356 75 -1338 47 -1318 46 c 0
 -1293 45 -1261 63 -1234 94 c 1
 -1234 59 l 1
-1632 65 m 1
 -1667 20 -1710 -10 -1750 -10 c 3
 -1790 -10 -1830 35 -1830 85 c 3
 -1830 130 -1765 162 -1634 212 c 1
 -1634 180 l 17
 -1725 145 -1755 125 -1755 100 c 3
 -1755 75 -1735 48 -1715 48 c 3
 -1690 48 -1659 68 -1634 100 c 1
 -1632 65 l 1
-1634 285 m 1
 -1634 315 -1660 340 -1690 340 c 1
 -1710 340 -1735 335 -1750 325 c 1
 -1750 285 l 1
 -1830 260 l 1
 -1830 270 l 1
 -1830 315 -1725 400 -1660 400 c 1
 -1605 400 -1560 360 -1560 305 c 1
 -1560 80 l 1
 -1560 62 -1550 50 -1535 50 c 1
 -1515 50 -1500 65 -1490 75 c 1
 -1475 50 l 1
 -1500 15 -1530 -10 -1570 -10 c 1
 -1605 -10 -1634 20 -1634 55 c 1
 -1634 285 l 1
-2032 65 m 1
 -2067 20 -2110 -10 -2150 -10 c 3
 -2190 -10 -2230 35 -2230 85 c 3
 -2230 130 -2165 162 -2034 212 c 1
 -2034 180 l 17
 -2125 145 -2155 125 -2155 100 c 3
 -2155 75 -2135 48 -2115 48 c 3
 -2090 48 -2059 68 -2034 100 c 1
 -2032 65 l 1
-2034 285 m 1
 -2034 315 -2060 340 -2090 340 c 1
 -2110 340 -2135 335 -2150 325 c 1
 -2150 285 l 1
 -2230 260 l 1
 -2230 270 l 1
 -2230 315 -2125 400 -2060 400 c 1
 -2005 400 -1960 360 -1960 305 c 1
 -1960 85 l 1
 -1960 65 -1950 50 -1930 50 c 1
 -1910 50 -1895 65 -1885 75 c 1
 -1870 50 l 1
 -1895 15 -1925 -10 -1965 -10 c 1
 -2005 -10 -2034 20 -2034 55 c 1
 -2034 285 l 1
EndSplineSet
Fore
SplineSet
228 285 m 1
 228 317 202 340 167 340 c 1
 149 340 127 336 109 328 c 1
 107 285 l 1
 36 264 l 1
 36 292 l 1
 76 347 142 400 202 400 c 1
 257 400 300 360 300 305 c 1
 300 75 l 1
 300 60 310 50 325 50 c 1
 345 50 360 65 370 75 c 1
 385 52 l 1
 360 15 330 -10 290 -10 c 1
 255 -10 228 22 228 55 c 1
 228 285 l 1
228 60 m 1
 195 20 152 -10 110 -10 c 3
 65 -10 32 35 32 80 c 3
 32 130 82 158 228 208 c 1
 228 175 l 17
 132 142 109 121 109 93 c 3
 109 66 127 45 147 45 c 3
 172 45 203 65 228 93 c 1
 228 60 l 1
EndSplineSet
EndChar

StartChar: q
Encoding: 113 113 15
Width: 468
Flags: HW
LayerCount: 2
Fore
SplineSet
314 70 m 1
 314 40 l 1
 284 12 239 -10 189 -10 c 3
 99 -10 25 70 25 180 c 3
 25 305 124 400 244 400 c 3
 284 400 339 385 369 365 c 9
 315 275 l 17
 315 320 269 356 219 356 c 3
 154 356 99 300 99 200 c 3
 99 115 157 45 232 45 c 3
 262 45 294 55 314 70 c 1
244 -215 m 1
 454 -215 l 1
 454 -250 l 1
 244 -250 l 1
 244 -215 l 1
368 404 m 1
 388 404 l 1
 388 -230 l 1
 314 -230 l 1
 314 340 l 1
 368 404 l 1
EndSplineSet
EndChar

StartChar: p
Encoding: 112 112 16
Width: 483
Flags: HW
LayerCount: 2
Back
SplineSet
164 315 m 1
 164 345 l 1
 205 375 250 400 300 400 c 3
 385 400 455 315 455 215 c 3
 455 90 360 -10 245 -10 c 3
 185 -10 150 5 90 20 c 9
 164 110 l 17
 164 60 215 30 255 30 c 3
 325 30 380 85 380 185 c 3
 380 275 319 342 244 342 c 3
 219 342 184 327 164 315 c 1
EndSplineSet
Fore
SplineSet
25 -215 m 1
 240 -215 l 1
 240 -250 l 1
 25 -250 l 1
 25 -215 l 1
36 360 m 1
 154 405 l 1
 164 405 l 1
 164 -230 l 1
 90 -230 l 1
 90 305 l 1
 36 350 l 1
 36 360 l 1
164 311 m 1
 164 341 l 1
 196 372 245 400 295 400 c 3
 385 400 458 313 458 208 c 3
 458 83 354 -9 244 -9 c 3
 219 -9 184 -4 164 4 c 9
 164 70 l 1
 184 47 219 34 254 34 c 3
 324 34 382 90 382 180 c 3
 382 268 325 340 250 340 c 3
 220 340 189 330 164 311 c 1
EndSplineSet
EndChar

StartChar: f
Encoding: 102 102 17
Width: 285
Flags: HW
LayerCount: 2
Fore
SplineSet
10 340 m 1
 10 370 l 1
 90 400 l 1
 120 390 l 1
 280 390 l 1
 270 340 l 1
 10 340 l 1
25 35 m 1
 245 35 l 1
 245 0 l 1
 25 0 l 1
 25 35 l 1
265 570 m 1
 240 570 229 594 204 594 c 1
 179 594 164 574 164 484 c 1
 164 0 l 1
 90 0 l 1
 90 460 l 1
 90 560 180 655 250 655 c 1
 290 655 310 635 310 615 c 1
 310 590 290 570 265 570 c 1
EndSplineSet
Validated: 5
EndChar

StartChar: O
Encoding: 79 79 18
Width: 700
Flags: HW
AnchorPoint: "accent_above_cap" 350 650 basechar 0
LayerCount: 2
Back
SplineSet
140 315 m 0
 140 160 225 29 355 29 c 0
 475 29 560 130 560 285 c 0
 560 440 475 572 345 572 c 0
 225 572 140 470 140 315 c 0
35 297 m 0
 35 469 180 612 352 612 c 0
 527 612 665 482 665 307 c 0
 665 135 520 -12 348 -12 c 0
 173 -12 35 122 35 297 c 0
-560 315 m 0
 -560 160 -475 28 -345 28 c 0
 -225 28 -140 130 -140 285 c 0
 -140 440 -225 572 -355 572 c 0
 -475 572 -560 470 -560 315 c 0
-665 295 m 0
 -665 467 -520 612 -348 612 c 0
 -173 612 -35 480 -35 305 c 0
 -35 133 -180 -12 -352 -12 c 0
 -527 -12 -665 120 -665 295 c 0
-1259 285 m 0
 -1248 133 -1151 21 -1031 29 c 0
 -911 37 -830 163 -841 315 c 0
 -852 467 -949 579 -1069 571 c 0
 -1189 563 -1270 437 -1259 285 c 0
-1365 295 m 0
 -1365 467 -1220 612 -1048 612 c 0
 -873 612 -735 480 -735 305 c 0
 -735 133 -880 -12 -1052 -12 c 0
 -1227 -12 -1365 120 -1365 295 c 0
-1970 300 m 0
 -1970 148 -1880 28 -1760 28 c 0
 -1640 28 -1550 148 -1550 300 c 0
 -1550 452 -1640 572 -1760 572 c 0
 -1880 572 -1970 452 -1970 300 c 0
-2075 295 m 0
 -2075 467 -1930 612 -1758 612 c 0
 -1583 612 -1445 480 -1445 305 c 0
 -1445 133 -1590 -12 -1762 -12 c 0
 -1937 -12 -2075 120 -2075 295 c 0
-2782 300 m 0
 -2782 472 -2642 612 -2470 612 c 0
 -2298 612 -2158 472 -2158 300 c 0
 -2158 128 -2298 -12 -2470 -12 c 0
 -2642 -12 -2782 128 -2782 300 c 0
EndSplineSet
Fore
SplineSet
132 315 m 0
 132 155 225 29 355 29 c 0
 480 29 568 130 568 285 c 0
 568 445 475 572 345 572 c 0
 220 572 132 470 132 315 c 0
35 297 m 0
 35 469 180 612 352 612 c 0
 527 612 665 482 665 307 c 0
 665 135 520 -12 348 -12 c 0
 173 -12 35 122 35 297 c 0
EndSplineSet
EndChar

StartChar: t
Encoding: 116 116 19
Width: 300
Flags: HW
LayerCount: 2
Back
SplineSet
30 370 m 1
 144 455 l 1
 159 455 l 1
 159 105 l 1
 85 80 l 1
 85 335 l 1
 30 350 l 1
 30 370 l 1
145 390 m 1
 285 390 l 1
 285 342 l 1
 145 342 l 1
 145 390 l 1
159 105 m 1
 159 72 180 52 205 52 c 0
 235 52 260 68 275 93 c 1
 295 72 l 1
 270 27 230 -10 175 -10 c 0
 120 -10 85 30 85 80 c 1
 159 105 l 1
-151 120 m 17
 -151 110 l 1
 -151 75 -130 55 -105 55 c 1
 -75 55 -50 70 -35 95 c 1
 -15 72 l 1
 -40 27 -80 -10 -135 -10 c 1
 -190 -10 -225 30 -225 80 c 1
 -225 95 l 9
 -151 120 l 17
-165 390 m 1
 -25 390 l 1
 -25 342 l 1
 -165 342 l 1
 -165 390 l 1
-280 370 m 1
 -166 450 l 1
 -151 450 l 1
 -151 120 l 1
 -225 95 l 1
 -225 335 l 1
 -280 350 l 1
 -280 370 l 1
-451 115 m 17
 -451 105 l 1
 -451 75 -430 55 -405 55 c 1
 -380 55 -355 65 -340 90 c 1
 -320 70 l 1
 -340 30 -385 -10 -435 -10 c 1
 -485 -10 -525 25 -525 75 c 1
 -525 95 l 9
 -451 115 l 17
-465 390 m 1
 -325 390 l 1
 -325 340 l 1
 -465 340 l 1
 -465 390 l 1
-580 370 m 1
 -466 450 l 1
 -451 450 l 1
 -451 115 l 1
 -525 95 l 1
 -525 335 l 1
 -580 350 l 1
 -580 370 l 1
EndSplineSet
Fore
SplineSet
25 370 m 1
 144 460 l 1
 159 460 l 1
 159 105 l 1
 85 80 l 1
 85 335 l 1
 25 350 l 1
 25 370 l 1
145 390 m 1
 285 390 l 1
 285 342 l 1
 145 342 l 1
 145 390 l 1
159 105 m 1
 159 72 180 52 205 52 c 0
 235 52 260 68 275 93 c 1
 295 72 l 1
 270 27 230 -10 175 -10 c 0
 120 -10 85 30 85 80 c 1
 159 105 l 1
EndSplineSet
Validated: 5
EndChar

StartChar: H
Encoding: 72 72 20
Width: 720
Flags: HW
LayerCount: 2
Fore
SplineSet
165 340 m 1
 570 340 l 1
 570 295 l 1
 165 295 l 1
 165 340 l 1
475 600 m 1
 710 600 l 1
 710 560 l 1
 475 560 l 1
 475 600 l 1
475 40 m 1
 710 40 l 1
 710 0 l 1
 475 0 l 1
 475 40 l 1
635 590 m 1
 635 10 l 1
 550 10 l 1
 550 590 l 1
 635 590 l 1
25 600 m 1
 260 600 l 1
 260 560 l 1
 25 560 l 1
 25 600 l 1
25 40 m 1
 260 40 l 1
 260 0 l 1
 25 0 l 1
 25 40 l 1
185 590 m 1
 185 10 l 1
 100 10 l 1
 100 590 l 1
 185 590 l 1
EndSplineSet
Validated: 5
EndChar

StartChar: I
Encoding: 73 73 21
Width: 285
Flags: HW
AnchorPoint: "accent_above_cap" 142 650 basechar 0
LayerCount: 2
Fore
SplineSet
20 600 m 1
 265 600 l 1
 265 560 l 1
 20 560 l 1
 20 600 l 1
20 40 m 1
 265 40 l 1
 265 0 l 1
 20 0 l 1
 20 40 l 1
185 590 m 1
 185 10 l 1
 100 10 l 1
 100 590 l 1
 185 590 l 1
EndSplineSet
EndChar

StartChar: L
Encoding: 76 76 22
Width: 520
Flags: HW
LayerCount: 2
Back
SplineSet
165 45 m 1
 355 45 l 1
 410 45 430 75 485 185 c 1
 525 185 l 1
 470 0 l 1
 165 0 l 1
 165 45 l 1
25 600 m 1
 260 600 l 1
 260 560 l 1
 25 560 l 1
 25 600 l 1
25 40 m 1
 120 40 l 1
 120 0 l 1
 25 0 l 1
 25 40 l 1
185 600 m 1
 185 0 l 1
 100 0 l 1
 100 600 l 1
 185 600 l 1
EndSplineSet
Fore
SplineSet
25 0 m 1
 25 40 l 1
 120 40 l 9
 165 45 l 17
 342 45 l 1
 402 45 423 60 478 190 c 1
 515 190 l 1
 470 0 l 1
 25 0 l 1
25 600 m 1
 270 600 l 1
 270 560 l 1
 25 560 l 1
 25 600 l 1
185 590 m 1
 185 20 l 1
 100 20 l 1
 100 590 l 1
 185 590 l 1
EndSplineSet
Validated: 5
EndChar

StartChar: E
Encoding: 69 69 23
Width: 525
Flags: HW
AnchorPoint: "accent_above_cap" 240 650 basechar 0
LayerCount: 2
Back
SplineSet
175 295 m 1
 175 340 l 1
 300 340 l 1
 330 340 340 350 340 395 c 1
 340 415 l 1
 378 415 l 1
 378 210 l 1
 340 210 l 1
 340 240 l 1
 340 285 330 295 300 295 c 1
 175 295 l 1
165 555 m 1
 165 600 l 1
 455 600 l 1
 460 445 l 1
 420 445 l 1
 410 545 400 555 355 555 c 1
 165 555 l 1
165 45 m 1
 355 45 l 1
 405 45 415 60 455 175 c 1
 495 175 l 1
 460 0 l 1
 165 0 l 1
 165 45 l 1
25 600 m 1
 120 600 l 1
 120 560 l 1
 25 560 l 1
 25 600 l 1
25 40 m 1
 120 40 l 1
 120 0 l 1
 25 0 l 1
 25 40 l 1
185 600 m 1
 185 0 l 1
 100 0 l 1
 100 600 l 1
 185 600 l 1
EndSplineSet
Fore
SplineSet
25 0 m 1
 25 40 l 1
 120 40 l 1
 185 75 l 1
 185 55 195 45 215 45 c 1
 355 45 l 1
 405 45 421 59 457 164 c 1
 493 164 l 1
 460 0 l 1
 25 0 l 1
25 600 m 1
 455 600 l 1
 458 455 l 1
 423 455 l 1
 413 545 403 556 358 556 c 1
 165 556 l 9
 120 560 l 17
 25 560 l 1
 25 600 l 1
175 295 m 1
 175 338 l 1
 302 338 l 1
 332 338 340 346 340 388 c 1
 340 405 l 1
 375 405 l 1
 375 215 l 1
 340 215 l 1
 340 245 l 1
 340 287 332 295 302 295 c 1
 175 295 l 1
185 580 m 1
 185 20 l 1
 100 20 l 1
 100 580 l 1
 185 580 l 1
EndSplineSet
EndChar

StartChar: g
Encoding: 103 103 24
Width: 425
Flags: HW
LayerCount: 2
Back
SplineSet
546 264 m 0
 546 196 582 149 632 149 c 0
 680 149 714 188 714 250 c 0
 714 318 678 365 628 365 c 0
 580 365 546 326 546 264 c 0
705 375 m 1
 845 375 l 1
 845 330 l 1
 725 330 l 1
 705 375 l 1
546 251 m 0
 551 186 590 146 638 149 c 0
 686 152 719 198 714 263 c 0
 709 328 670 368 622 365 c 0
 574 362 541 316 546 251 c 0
467 257 m 0
 467 337 542 400 630 400 c 0
 717 400 793 339 793 257 c 0
 793 177 718 114 630 114 c 0
 543 114 467 175 467 257 c 0
564 140 m 9
 585 125 l 17
 555 105 540 90 540 70 c 3
 540 45 560 30 590 30 c 3
 635 30 680 34 720 34 c 3
 788 34 845 -16 845 -86 c 3
 845 -189 738 -255 635 -255 c 3
 535 -255 460 -205 460 -130 c 3
 460 -90 480 -75 545 -30 c 1
 570 -35 l 17
 540 -60 530 -85 530 -110 c 3
 530 -168 570 -218 650 -218 c 3
 720 -218 775 -175 775 -109 c 27
 775 -69 740 -37 695 -37 c 3
 645 -37 610 -40 560 -40 c 3
 510 -40 470 0 470 45 c 3
 470 75 494 95 564 140 c 9
275 375 m 1
 415 375 l 1
 415 330 l 1
 295 330 l 1
 275 375 l 1
109 249 m 0
 114 184 153 142 203 145 c 0
 253 148 286 196 281 261 c 0
 276 326 237 368 187 365 c 0
 137 362 104 314 109 249 c 0
32 255 m 0
 32 334 107 400 195 400 c 0
 285 400 358 335 358 255 c 0
 358 176 283 110 195 110 c 0
 105 110 32 175 32 255 c 0
134 137 m 9
 155 122 l 17
 125 107 108 90 108 70 c 3
 108 45 130 28 160 28 c 3
 205 28 250 30 290 30 c 3
 360 30 410 -18 410 -88 c 3
 410 -183 315 -255 205 -255 c 3
 105 -255 30 -205 30 -130 c 3
 30 -92 50 -74 115 -32 c 1
 140 -37 l 17
 110 -59 100 -85 100 -110 c 3
 100 -168 140 -220 220 -220 c 3
 290 -220 340 -172 340 -110 c 3
 340 -70 310 -40 265 -40 c 3
 215 -40 185 -42 135 -42 c 3
 85 -42 40 0 40 45 c 3
 40 75 64 95 134 137 c 9
-165 375 m 1
 -25 375 l 1
 -25 330 l 1
 -145 330 l 1
 -165 375 l 1
-324 257 m 0
 -324 192 -288 149 -240 149 c 0
 -192 149 -156 192 -156 257 c 0
 -156 322 -192 365 -240 365 c 0
 -288 365 -324 322 -324 257 c 0
-403 257 m 0
 -403 337 -325 400 -240 400 c 0
 -155 400 -77 339 -77 257 c 0
 -77 177 -155 114 -240 114 c 0
 -325 114 -403 175 -403 257 c 0
-306 140 m 9
 -285 125 l 17
 -315 105 -330 90 -330 70 c 3
 -330 45 -310 30 -280 30 c 3
 -235 30 -190 34 -150 34 c 3
 -80 34 -25 -16 -25 -86 c 3
 -25 -189 -132 -255 -235 -255 c 3
 -335 -255 -410 -205 -410 -130 c 3
 -410 -90 -390 -75 -325 -30 c 1
 -300 -35 l 17
 -330 -60 -340 -85 -340 -110 c 3
 -340 -168 -300 -218 -220 -218 c 3
 -150 -218 -95 -175 -95 -109 c 27
 -95 -69 -130 -37 -175 -37 c 3
 -225 -37 -260 -40 -310 -40 c 3
 -360 -40 -400 0 -400 45 c 3
 -400 75 -376 95 -306 140 c 9
-595 375 m 1
 -455 375 l 1
 -455 330 l 1
 -575 330 l 1
 -595 375 l 1
-761 255 m 0
 -761 190 -725 145 -675 145 c 0
 -625 145 -589 190 -589 255 c 0
 -589 320 -625 365 -675 365 c 0
 -725 365 -761 320 -761 255 c 0
-838 255 m 0
 -838 334 -763 400 -675 400 c 0
 -585 400 -512 335 -512 255 c 0
 -512 176 -587 110 -675 110 c 0
 -765 110 -838 175 -838 255 c 0
-736 137 m 9
 -715 122 l 17
 -745 102 -760 90 -760 70 c 3
 -760 45 -740 28 -710 28 c 3
 -665 28 -620 30 -580 30 c 3
 -510 30 -460 -18 -460 -88 c 3
 -460 -183 -555 -255 -665 -255 c 3
 -765 -255 -840 -205 -840 -130 c 3
 -840 -92 -820 -74 -755 -32 c 1
 -730 -37 l 17
 -760 -59 -770 -85 -770 -110 c 3
 -770 -168 -730 -220 -650 -220 c 3
 -580 -220 -530 -172 -530 -110 c 3
 -530 -70 -560 -40 -605 -40 c 3
 -655 -40 -685 -42 -735 -42 c 3
 -785 -42 -830 0 -830 45 c 3
 -830 75 -806 92 -736 137 c 9
275 -355 m 1
 410 -355 l 1
 410 -400 l 1
 295 -400 l 1
 275 -355 l 1
109 -475 m 0
 109 -540 145 -585 195 -585 c 0
 245 -585 281 -540 281 -475 c 0
 281 -410 245 -365 195 -365 c 0
 145 -365 109 -410 109 -475 c 0
32 -475 m 0
 32 -396 107 -330 195 -330 c 0
 285 -330 358 -395 358 -475 c 0
 358 -554 283 -620 195 -620 c 0
 105 -620 32 -555 32 -475 c 0
134 -595 m 9
 155 -610 l 17
 125 -625 110 -640 110 -660 c 3
 110 -685 130 -700 160 -700 c 3
 205 -700 250 -697 290 -697 c 3
 360 -697 410 -746 410 -816 c 3
 410 -919 308 -985 205 -985 c 3
 105 -985 30 -935 30 -860 c 3
 30 -820 50 -805 115 -760 c 1
 140 -765 l 17
 110 -790 100 -815 100 -840 c 3
 100 -898 140 -950 220 -950 c 3
 286 -950 340 -905 340 -839 c 27
 340 -799 310 -768 265 -768 c 3
 215 -768 180 -770 130 -770 c 3
 80 -770 40 -730 40 -685 c 3
 40 -655 64 -635 134 -595 c 9
-165 -355 m 1
 -30 -355 l 1
 -30 -400 l 1
 -145 -400 l 1
 -165 -355 l 1
-325 -473 m 0
 -325 -538 -288 -581 -240 -581 c 0
 -192 -581 -155 -538 -155 -473 c 0
 -155 -408 -192 -365 -240 -365 c 0
 -288 -365 -325 -408 -325 -473 c 0
-403 -473 m 0
 -403 -393 -325 -330 -240 -330 c 0
 -155 -330 -77 -391 -77 -473 c 0
 -77 -553 -155 -616 -240 -616 c 0
 -325 -616 -403 -555 -403 -473 c 0
-306 -590 m 9
 -285 -605 l 17
 -315 -625 -330 -640 -330 -660 c 3
 -330 -685 -310 -700 -280 -700 c 3
 -235 -700 -190 -696 -150 -696 c 3
 -80 -696 -30 -746 -30 -816 c 3
 -30 -919 -132 -985 -235 -985 c 3
 -335 -985 -410 -935 -410 -860 c 3
 -410 -820 -390 -805 -325 -760 c 1
 -300 -765 l 17
 -330 -790 -340 -815 -340 -840 c 3
 -340 -898 -300 -950 -220 -950 c 3
 -154 -950 -100 -905 -100 -839 c 27
 -100 -799 -130 -767 -175 -767 c 3
 -225 -767 -260 -770 -310 -770 c 3
 -360 -770 -400 -730 -400 -685 c 3
 -400 -655 -376 -635 -306 -590 c 9
-595 -355 m 1
 -460 -355 l 1
 -460 -400 l 1
 -575 -400 l 1
 -595 -355 l 1
-761 -475 m 0
 -761 -540 -725 -585 -675 -585 c 0
 -625 -585 -589 -540 -589 -475 c 0
 -589 -410 -625 -365 -675 -365 c 0
 -725 -365 -761 -410 -761 -475 c 0
-838 -475 m 0
 -838 -396 -763 -330 -675 -330 c 0
 -585 -330 -512 -395 -512 -475 c 0
 -512 -554 -587 -620 -675 -620 c 0
 -765 -620 -838 -555 -838 -475 c 0
-736 -595 m 9
 -715 -610 l 17
 -745 -630 -760 -645 -760 -665 c 3
 -760 -690 -740 -705 -710 -705 c 3
 -665 -705 -620 -701 -580 -701 c 3
 -510 -701 -460 -751 -460 -821 c 3
 -460 -924 -562 -985 -665 -985 c 3
 -765 -985 -840 -940 -840 -865 c 3
 -840 -825 -820 -810 -755 -765 c 1
 -730 -770 l 17
 -760 -795 -770 -820 -770 -845 c 3
 -770 -903 -730 -950 -650 -950 c 3
 -584 -950 -530 -910 -530 -844 c 27
 -530 -804 -560 -772 -605 -772 c 3
 -655 -772 -690 -775 -740 -775 c 3
 -790 -775 -830 -735 -830 -690 c 3
 -830 -660 -806 -640 -736 -595 c 9
-1186 150 m 9
 -1165 130 l 17
 -1195 110 -1210 95 -1210 75 c 3
 -1210 45 -1190 30 -1160 30 c 3
 -1115 30 -1070 35 -1030 35 c 3
 -965 35 -910 -11 -910 -86 c 3
 -910 -189 -1010 -255 -1113 -255 c 3
 -1213 -255 -1290 -213 -1290 -135 c 3
 -1290 -95 -1270 -75 -1205 -30 c 1
 -1180 -35 l 17
 -1205 -60 -1220 -90 -1220 -115 c 3
 -1220 -175 -1180 -220 -1100 -220 c 3
 -1034 -220 -980 -175 -980 -109 c 27
 -980 -69 -1010 -37 -1055 -37 c 3
 -1105 -37 -1140 -40 -1190 -40 c 3
 -1240 -40 -1280 0 -1280 50 c 3
 -1280 80 -1256 100 -1186 150 c 9
-1210 260 m 0
 -1210 195 -1180 150 -1130 150 c 0
 -1080 150 -1050 195 -1050 260 c 0
 -1050 325 -1080 370 -1130 370 c 0
 -1180 370 -1210 325 -1210 260 c 0
-1285 260 m 0
 -1285 338 -1215 400 -1130 400 c 0
 -1045 400 -975 338 -975 260 c 0
 -975 182 -1045 120 -1130 120 c 0
 -1215 120 -1285 182 -1285 260 c 0
-1656 155 m 9
 -1635 135 l 17
 -1660 116 -1670 100 -1670 80 c 3
 -1670 50 -1650 30 -1610 30 c 3
 -1560 30 -1510 35 -1460 35 c 3
 -1395 35 -1345 -11 -1345 -86 c 3
 -1345 -189 -1450 -255 -1553 -255 c 3
 -1653 -255 -1735 -213 -1735 -135 c 3
 -1735 -105 -1705 -70 -1655 -30 c 1
 -1630 -40 l 17
 -1650 -60 -1665 -84 -1665 -109 c 3
 -1665 -169 -1620 -220 -1540 -220 c 3
 -1474 -220 -1415 -175 -1415 -109 c 27
 -1415 -69 -1445 -40 -1490 -40 c 3
 -1540 -40 -1590 -45 -1640 -45 c 3
 -1690 -45 -1745 -5 -1745 50 c 3
 -1745 80 -1716 106 -1656 155 c 9
-1652 260 m 0
 -1652 195 -1623 150 -1580 150 c 0
 -1537 150 -1508 195 -1508 260 c 0
 -1508 325 -1537 370 -1580 370 c 0
 -1623 370 -1652 325 -1652 260 c 0
-1728 260 m 0
 -1728 337 -1662 400 -1580 400 c 0
 -1498 400 -1432 337 -1432 260 c 0
 -1432 183 -1498 120 -1580 120 c 0
 -1662 120 -1728 183 -1728 260 c 0
EndSplineSet
Fore
SplineSet
275 375 m 1
 415 375 l 1
 415 329 l 1
 295 329 l 1
 275 375 l 1
109 262 m 0
 109 192 146 145 198 145 c 0
 248 145 281 188 281 248 c 0
 281 318 244 365 192 365 c 0
 142 365 109 322 109 262 c 0
32 255 m 0
 32 334 107 400 195 400 c 0
 285 400 358 335 358 255 c 0
 358 176 283 110 195 110 c 0
 105 110 32 175 32 255 c 0
129 137 m 9
 150 122 l 17
 120 107 103 90 103 70 c 3
 103 45 125 28 155 28 c 3
 200 28 245 30 285 30 c 3
 355 30 405 -18 405 -88 c 3
 405 -183 310 -256 200 -256 c 3
 100 -256 25 -205 25 -130 c 3
 25 -92 45 -74 110 -32 c 1
 135 -37 l 17
 105 -59 95 -85 95 -110 c 3
 95 -168 135 -219 215 -219 c 3
 285 -219 335 -172 335 -110 c 3
 335 -70 305 -40 260 -40 c 3
 210 -40 180 -42 130 -42 c 3
 80 -42 35 0 35 45 c 3
 35 75 59 95 129 137 c 9
EndSplineSet
Validated: 5
EndChar

StartChar: e
Encoding: 101 101 25
Width: 378
Flags: HW
AnchorPoint: "accent_above" 210 455 basechar 0
LayerCount: 2
Back
SplineSet
775 105 m 1
 795 85 l 1
 765 30 705 -10 640 -10 c 3
 545 -10 465 75 465 182 c 3
 465 307 555 400 655 400 c 3
 735 400 792 335 792 255 c 1
 792 237 l 1
 530 237 l 1
 530 275 l 1
 670 275 l 1
 695 275 705 285 705 305 c 1
 705 335 680 358 640 358 c 3
 575 358 537 295 537 215 c 3
 537 125 605 57 675 57 c 3
 720 57 750 75 775 105 c 1
335 105 m 1
 355 85 l 1
 325 30 265 -10 200 -10 c 3
 105 -10 25 75 25 182 c 3
 25 307 115 400 210 400 c 3
 295 400 350 335 350 255 c 1
 350 242 l 1
 90 242 l 1
 90 280 l 1
 270 280 l 1
 270 325 245 358 200 358 c 3
 135 358 97 295 97 215 c 3
 97 125 165 57 235 57 c 3
 280 57 310 75 335 105 c 1
-300 235 m 25
 -300 270 l 25
 -45 270 l 25
 -35 235 l 25
 -300 235 l 25
-60 110 m 1
 -40 85 l 1
 -70 30 -130 -10 -195 -10 c 3
 -290 -10 -365 75 -365 180 c 3
 -365 305 -275 400 -170 400 c 3
 -90 400 -35 335 -35 255 c 1
 -35 235 l 1
 -110 270 l 1
 -110 320 -140 357 -185 357 c 3
 -245 357 -293 300 -293 215 c 3
 -293 125 -235 57 -165 57 c 3
 -120 57 -85 80 -60 110 c 1
-670 245 m 25
 -670 280 l 25
 -420 280 l 25
 -410 245 l 25
 -670 245 l 25
-430 105 m 1
 -411 80 l 1
 -446 30 -500 -10 -575 -10 c 3
 -660 -10 -735 75 -735 180 c 3
 -735 305 -640 399 -540 399 c 3
 -460 399 -410 335 -410 265 c 1
 -410 245 l 1
 -485 280 l 1
 -485 325 -510 357 -555 357 c 3
 -610 357 -663 300 -663 215 c 3
 -663 120 -605 57 -530 57 c 3
 -495 57 -455 75 -430 105 c 1
EndSplineSet
Fore
SplineSet
333 105 m 1
 353 85 l 1
 323 30 265 -10 200 -10 c 3
 105 -10 25 75 25 182 c 3
 25 307 115 400 215 400 c 3
 295 400 350 335 350 255 c 1
 350 237 l 1
 90 237 l 1
 90 274 l 1
 228 274 l 1
 253 274 264 285 264 305 c 1
 264 335 238 359 198 359 c 3
 137 359 95 295 95 215 c 3
 95 125 163 57 233 57 c 3
 278 57 308 75 333 105 c 1
EndSplineSet
EndChar

StartChar: s
Encoding: 115 115 26
Width: 310
Flags: HW
AnchorPoint: "accent_above" 155 455 basechar 0
LayerCount: 2
Back
SplineSet
32 295 m 1
 32 349 90 401 158 401 c 1
 193 401 235 390 260 373 c 1
 265 285 l 1
 232 285 l 17
 222 320 l 2
 215 345 192 364 152 364 c 1
 117 364 97 341 97 315 c 1
 97 295 108 277 180 235 c 0
 262 187 280 156 280 108 c 1
 280 48 220 -11 140 -11 c 1
 110 -11 60 0 35 16 c 1
 25 115 l 1
 58 115 l 25
 72 72 l 2
 80 46 110 27 145 27 c 1
 185 27 210 55 210 90 c 1
 210 112 196 131 125 173 c 0
 49 218 32 250 32 295 c 1
-280 295 m 1
 -280 350 -222 401 -152 401 c 1
 -117 401 -80 392 -55 378 c 1
 -45 285 l 1
 -80 285 l 17
 -90 320 l 2
 -97 345 -120 364 -160 364 c 1
 -193 364 -213 340 -213 320 c 1
 -213 295 -204 275 -130 235 c 0
 -47 190 -30 150 -30 105 c 1
 -30 45 -90 -11 -170 -11 c 1
 -200 -11 -250 0 -275 16 c 1
 -285 115 l 1
 -250 115 l 25
 -236 72 l 2
 -228 46 -200 27 -165 27 c 1
 -130 27 -100 50 -100 85 c 1
 -100 110 -112 135 -185 175 c 0
 -262 217 -280 250 -280 295 c 1
EndSplineSet
Fore
SplineSet
32 295 m 1
 32 349 90 401 158 401 c 1
 193 401 235 390 260 373 c 1
 265 285 l 1
 232 285 l 17
 223 317 l 2
 215 344 192 364 152 364 c 1
 117 364 97 341 97 315 c 1
 97 295 108 277 180 235 c 0
 262 187 280 156 280 108 c 1
 280 48 220 -11 140 -11 c 1
 110 -11 60 0 35 16 c 1
 25 115 l 1
 58 115 l 25
 70 78 l 2
 80 48 108 27 145 27 c 1
 185 27 210 55 210 90 c 1
 210 112 196 131 125 173 c 0
 49 218 32 250 32 295 c 1
EndSplineSet
EndChar

StartChar: c
Encoding: 99 99 27
Width: 375
Flags: HW
AnchorPoint: "accent_below" 200 25 basechar 0
LayerCount: 2
Back
SplineSet
265 325 m 0
 249 344 230 354 200 354 c 3
 142 354 95 298 95 218 c 3
 95 128 161 57 235 57 c 3
 277 57 312 75 335 107 c 1
 357 90 l 1
 327 33 272 -10 200 -10 c 3
 105 -10 25 75 25 182 c 3
 25 307 120 400 225 400 c 3
 300 400 353 365 353 330 c 3
 353 305 335 287 310 287 c 3
 287 287 277 311 265 325 c 0
-115 325 m 0
 -131 344 -150 355 -180 355 c 3
 -240 355 -285 298 -285 218 c 3
 -285 128 -219 57 -145 57 c 3
 -103 57 -68 75 -45 107 c 1
 -23 90 l 1
 -53 33 -108 -10 -180 -10 c 3
 -275 -10 -355 75 -355 182 c 3
 -355 307 -260 400 -155 400 c 3
 -80 400 -27 365 -27 330 c 3
 -27 305 -45 285 -70 285 c 3
 -96 285 -103 311 -115 325 c 0
-495 320 m 0
 -512 340 -530 355 -560 355 c 3
 -620 355 -665 298 -665 218 c 3
 -665 128 -599 57 -525 57 c 3
 -483 57 -448 75 -425 107 c 1
 -403 90 l 1
 -433 33 -488 -10 -560 -10 c 3
 -655 -10 -735 75 -735 182 c 3
 -735 307 -640 400 -535 400 c 3
 -455 400 -405 360 -405 325 c 3
 -405 300 -425 280 -450 280 c 3
 -476 280 -483 306 -495 320 c 0
-876 314 m 0
 -887 334 -902 359 -942 359 c 3
 -1003 359 -1045 295 -1045 215 c 3
 -1045 125 -977 57 -907 57 c 3
 -862 57 -832 75 -807 105 c 1
 -787 85 l 1
 -817 30 -875 -10 -940 -10 c 3
 -1035 -10 -1115 75 -1115 182 c 3
 -1115 307 -1025 400 -925 400 c 3
 -845 400 -790 395 -790 315 c 11
 -790 290 -818 280 -843 280 c 27
 -861 280 -867 298 -876 314 c 0
EndSplineSet
Fore
SplineSet
265 325 m 0
 249 344 230 354 200 354 c 3
 142 354 95 298 95 218 c 3
 95 128 161 57 235 57 c 3
 277 57 312 75 335 107 c 1
 357 90 l 1
 327 33 272 -10 200 -10 c 3
 105 -10 25 75 25 182 c 3
 25 307 120 400 225 400 c 3
 300 400 353 365 353 330 c 3
 353 306 334 287 310 287 c 3
 287 287 277 311 265 325 c 0
EndSplineSet
EndChar

StartChar: v
Encoding: 118 118 28
Width: 440
Flags: HW
LayerCount: 2
Back
SplineSet
195 -15 m 1
 33 390 l 1
 123 385 l 1
 245 70 l 1
 195 -15 l 1
-5 390 m 1
 195 390 l 1
 195 355 l 1
 -5 355 l 1
 -5 390 l 1
350 380 m 1
 405 390 l 1
 225 -15 l 1
 195 -15 l 1
 220 70 l 1
 350 380 l 1
280 390 m 1
 445 390 l 1
 445 355 l 1
 280 355 l 1
 280 390 l 1
-280 -15 m 1
 -440 390 l 1
 -350 385 l 1
 -230 70 l 1
 -280 -15 l 1
-480 390 m 1
 -280 390 l 1
 -280 355 l 1
 -480 355 l 1
 -480 390 l 1
-120 380 m 1
 -65 390 l 1
 -245 -15 l 1
 -280 -15 l 1
 -250 70 l 1
 -120 380 l 1
-190 390 m 1
 -25 390 l 1
 -25 355 l 1
 -190 355 l 1
 -190 390 l 1
-750 -15 m 1
 -915 390 l 1
 -820 380 l 1
 -700 70 l 1
 -750 -15 l 1
-950 390 m 1
 -750 390 l 1
 -750 355 l 1
 -950 355 l 1
 -950 390 l 1
-585 385 m 1
 -530 390 l 1
 -715 -15 l 1
 -750 -15 l 1
 -720 70 l 1
 -585 385 l 1
-660 390 m 1
 -495 390 l 1
 -495 355 l 1
 -660 355 l 1
 -660 390 l 1
-1245 -15 m 1
 -1380 390 l 1
 -1300 390 l 1
 -1195 65 l 1
 -1245 -15 l 1
-1420 390 m 1
 -1230 390 l 1
 -1230 355 l 1
 -1420 355 l 1
 -1420 390 l 1
-1040 390 m 1
 -990 390 l 1
 -1205 -15 l 1
 -1245 -15 l 1
 -1040 390 l 1
-1150 390 m 1
 -970 390 l 1
 -970 355 l 1
 -1150 355 l 1
 -1150 390 l 1
-1740 220 m 1
 -1680 265 l 1
 -1475 5 l 1
 -1570 0 l 1
 -1740 220 l 1
-1550 390 m 1
 -1490 390 l 1
 -1756 165 l 1
 -1756 215 l 1
 -1550 390 l 1
-1655 390 m 1
 -1470 390 l 1
 -1470 355 l 1
 -1655 355 l 1
 -1655 390 l 1
EndSplineSet
Fore
SplineSet
195 -15 m 1
 33 390 l 1
 121 385 l 1
 243 70 l 1
 195 -15 l 1
-5 390 m 1
 195 390 l 1
 195 355 l 1
 -5 355 l 1
 -5 390 l 1
350 380 m 1
 405 390 l 1
 225 -15 l 1
 195 -15 l 1
 220 70 l 1
 350 380 l 1
280 390 m 1
 445 390 l 1
 445 355 l 1
 280 355 l 1
 280 390 l 1
EndSplineSet
EndChar

StartChar: J
Encoding: 74 74 29
Width: 285
Flags: HW
LayerCount: 2
Fore
SplineSet
100 -65 m 1
 185 -95 l 1
 160 -170 95 -227 20 -257 c 1
 5 -227 l 1
 70 -192 100 -135 100 -65 c 1
20 600 m 1
 260 600 l 1
 260 560 l 1
 20 560 l 1
 20 600 l 1
185 590 m 1
 185 -95 l 1
 100 -65 l 1
 100 590 l 1
 185 590 l 1
EndSplineSet
Validated: 5
EndChar

StartChar: F
Encoding: 70 70 30
Width: 485
Flags: HW
LayerCount: 2
Fore
SplineSet
25 600 m 1
 467 600 l 1
 465 450 l 1
 430 450 l 1
 423 542 410 556 365 556 c 1
 165 556 l 9
 120 560 l 17
 25 560 l 1
 25 600 l 1
175 275 m 1
 175 318 l 1
 313 318 l 1
 345 318 355 326 355 368 c 1
 355 390 l 1
 390 390 l 1
 390 190 l 1
 355 190 l 1
 355 225 l 1
 355 267 345 275 313 275 c 1
 175 275 l 1
25 40 m 1
 280 40 l 1
 280 0 l 1
 25 0 l 1
 25 40 l 1
185 580 m 1
 185 20 l 1
 100 20 l 1
 100 580 l 1
 185 580 l 1
EndSplineSet
EndChar

StartChar: w
Encoding: 119 119 31
Width: 685
Flags: HW
LayerCount: 2
Back
SplineSet
445 -15 m 1
 283 390 l 1
 371 385 l 1
 495 68 l 1
 445 -15 l 1
250 390 m 1
 445 390 l 1
 445 355 l 1
 250 355 l 1
 250 390 l 1
595 380 m 1
 650 390 l 1
 475 -15 l 1
 445 -15 l 1
 470 70 l 1
 595 380 l 1
525 390 m 1
 690 390 l 1
 690 355 l 1
 525 355 l 1
 525 390 l 1
190 -15 m 1
 33 390 l 1
 123 385 l 1
 240 70 l 1
 190 -15 l 1
-5 390 m 1
 190 390 l 1
 190 355 l 1
 -5 355 l 1
 -5 390 l 1
325 310 m 1
 370 305 l 1
 220 -15 l 1
 190 -15 l 1
 215 70 l 1
 325 310 l 1
-150 380 m 1
 -95 390 l 1
 -275 -15 l 1
 -305 -15 l 1
 -280 70 l 1
 -150 380 l 1
-555 -15 m 1
 -717 390 l 1
 -627 385 l 1
 -505 70 l 1
 -555 -15 l 1
-755 390 m 1
 -555 390 l 1
 -555 355 l 1
 -755 355 l 1
 -755 390 l 1
-400 380 m 1
 -345 390 l 1
 -525 -15 l 1
 -555 -15 l 1
 -530 70 l 1
 -400 380 l 1
-470 390 m 1
 -305 390 l 1
 -305 355 l 1
 -470 355 l 1
 -470 390 l 1
EndSplineSet
Fore
SplineSet
445 -15 m 1
 283 390 l 1
 369 385 l 1
 493 68 l 1
 445 -15 l 1
250 390 m 1
 445 390 l 1
 445 355 l 1
 250 355 l 1
 250 390 l 1
595 380 m 1
 650 390 l 1
 475 -15 l 1
 445 -15 l 1
 470 70 l 1
 595 380 l 1
525 390 m 1
 690 390 l 1
 690 355 l 1
 525 355 l 1
 525 390 l 1
190 -15 m 1
 33 390 l 1
 121 385 l 1
 238 70 l 1
 190 -15 l 1
-5 390 m 1
 190 390 l 1
 190 355 l 1
 -5 355 l 1
 -5 390 l 1
325 310 m 1
 370 305 l 1
 220 -15 l 1
 190 -15 l 1
 215 70 l 1
 325 310 l 1
EndSplineSet
EndChar

StartChar: x
Encoding: 120 120 32
Width: 450
Flags: HW
LayerCount: 2
Back
SplineSet
170 0 m 1
 5 0 l 1
 5 35 l 1
 170 35 l 1
 170 0 l 1
445 0 m 1
 250 0 l 1
 250 35 l 1
 445 35 l 1
 445 0 l 1
80 0 m 1
 25 0 l 1
 185 195 l 1
 220 170 l 1
 80 0 l 1
275 390 m 1
 435 390 l 1
 435 355 l 1
 275 355 l 1
 275 390 l 1
20 390 m 1
 210 390 l 1
 210 355 l 1
 20 355 l 1
 20 390 l 1
320 5 m 1
 40 385 l 1
 140 385 l 1
 420 5 l 1
 320 5 l 1
355 390 m 1
 410 390 l 1
 250 195 l 1
 215 220 l 1
 355 390 l 1
-300 0 m 1
 -465 0 l 1
 -465 35 l 1
 -300 35 l 1
 -300 0 l 1
-25 0 m 1
 -220 0 l 1
 -220 35 l 1
 -25 35 l 1
 -25 0 l 1
-390 0 m 1
 -445 0 l 1
 -285 195 l 1
 -250 170 l 1
 -390 0 l 1
-195 390 m 1
 -35 390 l 1
 -35 355 l 1
 -195 355 l 1
 -195 390 l 1
-450 390 m 1
 -260 390 l 1
 -260 355 l 1
 -450 355 l 1
 -450 390 l 1
-150 0 m 1
 -430 385 l 1
 -330 390 l 1
 -50 5 l 1
 -150 0 l 1
-115 390 m 1
 -60 390 l 1
 -220 195 l 1
 -255 220 l 1
 -115 390 l 1
-775 0 m 1
 -945 0 l 1
 -945 35 l 1
 -775 35 l 1
 -775 0 l 1
-495 0 m 1
 -690 0 l 1
 -690 35 l 1
 -495 35 l 1
 -495 0 l 1
-860 0 m 1
 -915 0 l 1
 -755 190 l 1
 -720 165 l 1
 -860 0 l 1
-665 390 m 1
 -500 390 l 1
 -500 355 l 1
 -665 355 l 1
 -665 390 l 1
-930 390 m 1
 -740 390 l 1
 -740 355 l 1
 -930 355 l 1
 -930 390 l 1
-620 0 m 1
 -910 385 l 1
 -810 390 l 1
 -520 5 l 1
 -620 0 l 1
-585 390 m 1
 -530 390 l 1
 -690 200 l 1
 -725 225 l 1
 -585 390 l 1
EndSplineSet
Fore
SplineSet
170 0 m 1
 5 0 l 1
 5 35 l 1
 170 35 l 1
 170 0 l 1
445 0 m 1
 250 0 l 1
 250 35 l 1
 445 35 l 1
 445 0 l 1
84 5 m 1
 30 5 l 1
 186 195 l 1
 220 170 l 1
 84 5 l 1
275 390 m 1
 435 390 l 1
 435 355 l 1
 275 355 l 1
 275 390 l 1
20 390 m 1
 210 390 l 1
 210 355 l 1
 20 355 l 1
 20 390 l 1
320 5 m 1
 40 385 l 1
 140 385 l 1
 420 5 l 1
 320 5 l 1
351 385 m 1
 405 385 l 1
 249 195 l 1
 215 220 l 1
 351 385 l 1
EndSplineSet
EndChar

StartChar: y
Encoding: 121 121 33
Width: 435
Flags: HW
AnchorPoint: "accent_above" 230 455 basechar 0
LayerCount: 2
Back
SplineSet
195 -15 m 1
 33 390 l 1
 123 385 l 1
 245 67 l 1
 195 -15 l 1
-5 390 m 1
 195 390 l 1
 195 355 l 1
 -5 355 l 1
 -5 390 l 1
345 380 m 1
 400 390 l 1
 160 -165 l 2
 132 -230 110 -256 75 -256 c 3
 55 -256 35 -235 35 -215 c 3
 35 -195 47 -185 72 -180 c 0
 97 -175 118 -156 134 -121 c 2
 230 93 l 1
 345 380 l 1
275 390 m 1
 440 390 l 1
 440 355 l 1
 275 355 l 1
 275 390 l 1
-290 -15 m 1
 -452 390 l 1
 -362 385 l 1
 -240 67 l 1
 -290 -15 l 1
-490 390 m 1
 -290 390 l 1
 -290 355 l 1
 -490 355 l 1
 -490 390 l 1
-140 380 m 1
 -85 390 l 1
 -325 -165 l 2
 -353 -230 -375 -256 -410 -256 c 3
 -430 -256 -450 -235 -450 -215 c 3
 -450 -195 -438 -185 -413 -180 c 0
 -388 -175 -367 -156 -351 -121 c 2
 -255 93 l 1
 -140 380 l 1
-210 390 m 1
 -45 390 l 1
 -45 355 l 1
 -210 355 l 1
 -210 390 l 1
-745 -15 m 1
 -912 390 l 1
 -822 385 l 1
 -695 68 l 1
 -745 -15 l 1
-950 390 m 1
 -750 390 l 1
 -750 355 l 1
 -950 355 l 1
 -950 390 l 1
-595 380 m 1
 -540 390 l 1
 -780 -165 l 2
 -808 -230 -830 -256 -865 -256 c 3
 -885 -256 -905 -235 -905 -215 c 3
 -905 -190 -890 -180 -865 -175 c 0
 -840 -170 -819 -150 -805 -120 c 2
 -725 55 l 1
 -595 380 l 1
-665 390 m 1
 -500 390 l 1
 -500 355 l 1
 -665 355 l 1
 -665 390 l 1
-1205 -15 m 1
 -1372 390 l 1
 -1282 385 l 1
 -1155 68 l 1
 -1205 -15 l 1
-1410 390 m 1
 -1210 390 l 1
 -1210 355 l 1
 -1410 355 l 1
 -1410 390 l 1
-1055 380 m 1
 -1000 390 l 1
 -1240 -165 l 2
 -1268 -230 -1287 -256 -1332 -256 c 3
 -1357 -256 -1380 -233 -1380 -205 c 3
 -1380 -180 -1360 -170 -1335 -165 c 0
 -1310 -160 -1289 -150 -1275 -120 c 2
 -1195 55 l 1
 -1055 380 l 1
-1125 390 m 1
 -960 390 l 1
 -960 355 l 1
 -1125 355 l 1
 -1125 390 l 1
EndSplineSet
Fore
SplineSet
195 -15 m 1
 33 390 l 1
 122 385 l 1
 245 67 l 1
 195 -15 l 1
-5 390 m 1
 195 390 l 1
 195 355 l 1
 -5 355 l 1
 -5 390 l 1
345 383 m 1
 400 390 l 1
 160 -165 l 2
 132 -230 110 -256 75 -256 c 3
 55 -256 35 -235 35 -215 c 3
 35 -195 47 -185 72 -180 c 0
 97 -175 118 -156 134 -121 c 2
 230 95 l 1
 345 383 l 1
275 390 m 1
 440 390 l 1
 440 355 l 1
 275 355 l 1
 275 390 l 1
EndSplineSet
EndChar

StartChar: V
Encoding: 86 86 34
Width: 550
Flags: HW
LayerCount: 2
Back
SplineSet
290 -18 m 1
 60 590 l 1
 160 585 l 1
 345 75 l 1
 290 -18 l 1
15 600 m 1
 235 600 l 1
 235 560 l 1
 15 560 l 1
 15 600 l 1
515 590 m 1
 575 590 l 1
 325 -18 l 1
 290 -18 l 1
 310 70 l 1
 515 590 l 1
435 600 m 1
 620 600 l 1
 620 560 l 1
 435 560 l 1
 435 600 l 1
-330 -18 m 1
 -560 590 l 1
 -460 585 l 1
 -275 75 l 1
 -330 -18 l 1
-605 600 m 1
 -385 600 l 1
 -385 560 l 1
 -605 560 l 1
 -605 600 l 1
-105 580 m 1
 -45 590 l 1
 -295 -18 l 1
 -330 -18 l 1
 -305 70 l 1
 -105 580 l 1
-195 600 m 1
 -10 600 l 1
 -10 560 l 1
 -195 560 l 1
 -195 600 l 1
EndSplineSet
Fore
SplineSet
250 -18 m 1
 20 590 l 1
 120 585 l 1
 305 75 l 1
 250 -18 l 1
-25 600 m 1
 195 600 l 1
 195 560 l 1
 -25 560 l 1
 -25 600 l 1
475 590 m 1
 535 590 l 1
 285 -18 l 1
 250 -18 l 1
 270 70 l 1
 475 590 l 1
395 600 m 1
 580 600 l 1
 580 560 l 1
 395 560 l 1
 395 600 l 1
EndSplineSet
Validated: 5
EndChar

StartChar: z
Encoding: 122 122 35
Width: 405
Flags: HW
LayerCount: 2
Back
SplineSet
710 348 m 17
 575 348 l 1
 545 348 537 327 527 272 c 1
 492 272 l 1
 502 390 l 1
 820 390 l 1
 820 360 l 9
 585 43 l 17
 730 43 l 1
 760 43 775 60 790 130 c 1
 825 130 l 1
 810 0 l 1
 475 0 l 1
 475 30 l 9
 710 348 l 17
257 325 m 17
 80 325 l 1
 60 270 l 1
 30 270 l 1
 40 390 l 1
 345 390 l 1
 345 360 l 9
 110 68 l 17
 305 68 l 1
 325 125 l 1
 355 125 l 1
 335 0 l 1
 20 0 l 1
 20 30 l 9
 257 325 l 17
-140 320 m 17
 -350 320 l 1
 -350 390 l 1
 -50 390 l 1
 -50 360 l 9
 -280 70 l 17
 -50 70 l 1
 -50 0 l 1
 -370 0 l 1
 -370 30 l 9
 -140 320 l 17
EndSplineSet
Fore
SplineSet
272 327 m 17
 112 327 l 1
 92 327 87 307 77 272 c 1
 42 272 l 1
 57 390 l 1
 360 390 l 1
 360 360 l 9
 122 68 l 17
 290 68 l 1
 310 68 320 83 335 125 c 1
 370 125 l 1
 345 0 l 1
 30 0 l 1
 30 30 l 9
 272 327 l 17
EndSplineSet
Validated: 1
EndChar

StartChar: zero
Encoding: 48 48 36
Width: 470
Flags: HW
LayerCount: 2
Back
SplineSet
89 190 m 0
 89 125 155 75 235 75 c 0
 335 75 401 130 401 200 c 0
 401 265 335 315 255 315 c 0
 155 315 89 260 89 190 c 0
40 195 m 0
 40 310 130 400 245 400 c 0
 360 400 450 310 450 195 c 0
 450 80 360 -10 245 -10 c 0
 130 -10 40 80 40 195 c 0
-401 184 m 0
 -396 116 -325 69 -237 75 c 0
 -149 81 -84 138 -89 206 c 0
 -94 274 -165 321 -253 315 c 0
 -341 309 -406 252 -401 184 c 0
-450 195 m 0
 -450 310 -360 400 -245 400 c 0
 -130 400 -40 310 -40 195 c 0
 -40 80 -130 -10 -245 -10 c 0
 -360 -10 -450 80 -450 195 c 0
-891 195 m 0
 -891 127 -823 75 -735 75 c 0
 -647 75 -579 127 -579 195 c 0
 -579 263 -647 315 -735 315 c 0
 -823 315 -891 263 -891 195 c 0
-940 195 m 0
 -940 310 -850 400 -735 400 c 0
 -620 400 -530 310 -530 195 c 0
 -530 80 -620 -10 -735 -10 c 0
 -850 -10 -940 80 -940 195 c 0
EndSplineSet
Fore
SplineSet
391 190 m 0
 391 260 325 315 225 315 c 0
 145 315 79 265 79 200 c 0
 79 130 145 75 245 75 c 0
 325 75 391 125 391 190 c 0
30 195 m 0
 30 310 120 400 235 400 c 0
 350 400 440 310 440 195 c 0
 440 80 350 -10 235 -10 c 0
 120 -10 30 80 30 195 c 0
EndSplineSet
EndChar

StartChar: one
Encoding: 49 49 37
Width: 314
Flags: HW
LayerCount: 2
Fore
SplineSet
40 38 m 1
 290 38 l 1
 290 0 l 1
 40 0 l 1
 40 38 l 1
36 340 m 1
 194 404 l 1
 204 404 l 1
 204 20 l 1
 130 20 l 1
 130 315 l 1
 36 310 l 1
 36 340 l 1
EndSplineSet
EndChar

StartChar: hyphen
Encoding: 45 45 38
Width: 250
Flags: HW
LayerCount: 2
Fore
SplineSet
30 240 m 1
 220 240 l 1
 220 180 l 1
 30 180 l 1
 30 240 l 1
EndSplineSet
Validated: 1
EndChar

StartChar: A
Encoding: 65 65 39
Width: 580
Flags: HW
AnchorPoint: "accent_above_cap" 285 650 basechar 0
LayerCount: 2
Back
SplineSet
-398.209960938 270 m 1
 -173.209960938 270 l 1
 -163.209960938 225 l 1
 -408.209960938 225 l 1
 -398.209960938 270 l 1
-388.209960938 0 m 1
 -573.209960938 0 l 1
 -573.209960938 40 l 1
 -388.209960938 40 l 1
 -388.209960938 0 l 1
41.7900390625 0 m 1
 -183.209960938 0 l 1
 -183.209960938 40 l 1
 41.7900390625 40 l 1
 41.7900390625 0 l 1
-238.209960938 620 m 1
 -8.2099609375 10 l 1
 -106.209960938 15 l 1
 -298.209960938 542 l 1
 -248.209960938 620 l 1
 -238.209960938 620 l 1
-468.209960938 10 m 1
 -528.209960938 10 l 1
 -313.209960938 575 l 1
 -248.209960938 620 l 1
 -283.209960938 522 l 1
 -468.209960938 10 l 1
EndSplineSet
Fore
SplineSet
150 270 m 1
 375 270 l 1
 385 225 l 1
 140 225 l 1
 150 270 l 1
160 0 m 1
 -25 0 l 1
 -25 40 l 1
 160 40 l 1
 160 0 l 1
595 0 m 1
 370 0 l 1
 370 40 l 1
 595 40 l 1
 595 0 l 1
312 625 m 1
 545 10 l 1
 447 15 l 1
 255 542 l 1
 302 625 l 1
 312 625 l 1
80 10 m 1
 20 10 l 1
 240 587 l 1
 302 625 l 1
 265 522 l 1
 80 10 l 1
EndSplineSet
EndChar

StartChar: T
Encoding: 84 84 40
Width: 490
Flags: HW
LayerCount: 2
Back
SplineSet
75 555 m 1
 43 555 25 535 15 460 c 1
 -20 460 l 1
 -10 625 l 1
 25 625 l 1
 25 605 35 600 55 600 c 1
 425 600 l 1
 450 600 465 605 465 625 c 1
 500 625 l 1
 505 460 l 1
 470 460 l 1
 465 540 450 555 415 555 c 1
 75 555 l 1
115 40 m 1
 370 40 l 1
 370 0 l 1
 115 0 l 1
 115 40 l 1
285 580 m 1
 285 20 l 1
 200 20 l 1
 200 580 l 1
 285 580 l 1
-465 555 m 1
 -497 555 -515 535 -525 460 c 1
 -560 460 l 1
 -550 625 l 1
 -515 625 l 1
 -515 605 -505 600 -485 600 c 1
 -125 600 l 1
 -100 600 -85 605 -85 625 c 1
 -50 625 l 1
 -45 460 l 1
 -80 460 l 1
 -85 540 -100 555 -135 555 c 1
 -465 555 l 1
-430 40 m 1
 -175 40 l 1
 -175 0 l 1
 -430 0 l 1
 -430 40 l 1
-260 580 m 1
 -260 0 l 1
 -345 0 l 1
 -345 580 l 1
 -260 580 l 1
-1015 555 m 1
 -1045 555 -1065 535 -1075 470 c 1
 -1110 470 l 1
 -1100 625 l 1
 -1065 625 l 1
 -1065 605 -1055 600 -1035 600 c 1
 -675 600 l 1
 -650 600 -635 605 -635 625 c 1
 -600 625 l 1
 -595 470 l 1
 -630 470 l 1
 -635 540 -650 555 -685 555 c 1
 -1015 555 l 1
-980 40 m 1
 -725 40 l 1
 -725 0 l 1
 -980 0 l 1
 -980 40 l 1
-810 580 m 1
 -810 0 l 1
 -895 0 l 1
 -895 580 l 1
 -810 580 l 1
EndSplineSet
Fore
SplineSet
77 555 m 1
 45 555 29 540 17 455 c 1
 -20 455 l 1
 -10 625 l 1
 25 625 l 1
 25 605 35 600 55 600 c 1
 425 600 l 1
 450 600 465 605 465 625 c 1
 500 625 l 1
 505 455 l 1
 468 455 l 1
 461 545 445 555 410 555 c 1
 77 555 l 1
115 40 m 1
 370 40 l 1
 370 0 l 1
 115 0 l 1
 115 40 l 1
285 580 m 1
 285 20 l 1
 200 20 l 1
 200 580 l 1
 285 580 l 1
EndSplineSet
Validated: 5
EndChar

StartChar: U
Encoding: 85 85 41
Width: 645
Flags: HW
AnchorPoint: "accent_above_cap" 335 650 basechar 0
LayerCount: 2
Back
SplineSet
15 600 m 1
 250 600 l 1
 250 560 l 1
 15 560 l 1
 15 600 l 1
175 590 m 1
 175 200 l 2
 175 100 245 42 335 42 c 3
 440 42 508 99 508 200 c 2
 508 590 l 1
 555 590 l 1
 555 205 l 2
 555 80 455 -12 315 -12 c 3
 190 -12 90 70 90 180 c 2
 90 590 l 1
 175 590 l 1
435 600 m 1
 630 600 l 1
 630 560 l 1
 435 560 l 1
 435 600 l 1
-635 600 m 1
 -400 600 l 1
 -400 560 l 1
 -635 560 l 1
 -635 600 l 1
-475 590 m 1
 -475 200 l 2
 -475 100 -405 40 -320 40 c 3
 -220 40 -140 100 -140 205 c 2
 -140 590 l 1
 -95 590 l 1
 -95 210 l 2
 -95 85 -200 -12 -335 -12 c 3
 -455 -12 -560 75 -560 185 c 2
 -560 590 l 1
 -475 590 l 1
-215 600 m 1
 -20 600 l 1
 -20 560 l 1
 -215 560 l 1
 -215 600 l 1
EndSplineSet
Fore
SplineSet
15 600 m 1
 250 600 l 1
 250 560 l 1
 15 560 l 1
 15 600 l 1
175 590 m 1
 175 200 l 2
 175 100 245 42 335 42 c 3
 440 42 508 99 508 200 c 2
 508 590 l 1
 555 590 l 1
 555 205 l 2
 555 80 455 -12 315 -12 c 3
 190 -12 90 70 90 180 c 2
 90 590 l 1
 175 590 l 1
435 600 m 1
 630 600 l 1
 630 560 l 1
 435 560 l 1
 435 600 l 1
EndSplineSet
EndChar

StartChar: B
Encoding: 66 66 42
Width: 520
Flags: HW
LayerCount: 2
Back
SplineSet
275 600 m 2
 375 600 440 540 440 465 c 3
 440 405 405 360 350 340 c 1
 425 325 487 265 487 180 c 3
 487 85 410 0 280 0 c 1
 165 0 l 1
 185 93 l 1
 185 63 205 43 240 43 c 1
 260 43 l 1
 350 43 392 85 392 170 c 3
 392 245 340 305 260 305 c 1
 175 305 l 1
 175 348 l 1
 245 348 l 1
 320 348 352 395 352 455 c 3
 352 515 315 557 245 557 c 1
 165 557 l 1
 165 600 l 1
 275 600 l 2
25 600 m 1
 120 600 l 1
 120 560 l 1
 25 560 l 1
 25 600 l 1
25 40 m 1
 120 40 l 1
 120 0 l 1
 25 0 l 1
 25 40 l 1
185 600 m 1
 185 0 l 1
 100 0 l 1
 100 600 l 1
 185 600 l 1
-250 600 m 2
 -150 600 -85 540 -85 465 c 3
 -85 405 -125 362 -175 342 c 1
 -100 317 -45 265 -45 180 c 3
 -45 90 -120 0 -245 0 c 1
 -365 0 l 1
 -345 95 l 1
 -345 65 -325 45 -290 45 c 1
 -270 45 l 1
 -180 45 -138 85 -138 170 c 3
 -138 245 -190 305 -270 305 c 1
 -355 305 l 1
 -355 350 l 1
 -285 350 l 1
 -210 350 -173 390 -173 455 c 3
 -173 515 -210 555 -280 555 c 1
 -365 555 l 1
 -365 600 l 1
 -250 600 l 2
-505 600 m 1
 -410 600 l 1
 -410 560 l 1
 -505 560 l 1
 -505 600 l 1
-505 40 m 1
 -410 40 l 1
 -410 0 l 1
 -505 0 l 1
 -505 40 l 1
-345 600 m 1
 -345 0 l 1
 -430 0 l 1
 -430 600 l 1
 -345 600 l 1
-780 600 m 2
 -680 600 -610 540 -610 465 c 3
 -610 400 -650 360 -700 340 c 1
 -630 310 -580 265 -580 180 c 3
 -580 90 -650 0 -775 0 c 1
 -905 0 l 1
 -885 95 l 1
 -885 65 -865 45 -830 45 c 1
 -810 45 l 1
 -720 45 -673 85 -673 170 c 3
 -673 245 -725 305 -805 305 c 1
 -895 305 l 1
 -895 350 l 1
 -815 350 l 1
 -735 350 -698 390 -698 455 c 3
 -698 515 -740 555 -815 555 c 1
 -905 555 l 1
 -905 600 l 1
 -780 600 l 2
-1045 600 m 1
 -950 600 l 1
 -950 560 l 1
 -1045 560 l 1
 -1045 600 l 1
-1045 40 m 1
 -950 40 l 1
 -950 0 l 1
 -1045 0 l 1
 -1045 40 l 1
-885 600 m 1
 -885 0 l 1
 -970 0 l 1
 -970 600 l 1
 -885 600 l 1
641 320 m 1
 961 320 l 1
 961 0 l 1
 641 0 l 1
 641 320 l 1
641 600 m 1
 921 600 l 1
 921 320 l 1
 641 320 l 1
 641 600 l 1
EndSplineSet
Fore
SplineSet
240 605 m 3
 360 605 440 550 440 465 c 3
 440 405 405 360 350 340 c 1
 425 325 487 265 487 180 c 3
 487 85 410 0 275 0 c 1
 25 0 l 1
 25 40 l 1
 120 40 l 1
 185 90 l 1
 185 58 203 42 235 42 c 1
 265 42 l 1
 345 42 392 85 392 170 c 3
 392 245 338 306 258 306 c 1
 175 306 l 1
 175 348 l 1
 245 348 l 1
 320 348 352 395 352 455 c 3
 352 519 310 561 230 561 c 1
 165 561 l 1
 100 557 l 1
 25 555 l 1
 25 595 l 1
 85 599 185 605 240 605 c 3
185 580 m 1
 185 20 l 1
 100 20 l 1
 100 580 l 1
 185 580 l 1
EndSplineSet
Validated: 5
EndChar

StartChar: N
Encoding: 78 78 43
Width: 700
Flags: HW
AnchorPoint: "accent_above_cap" 350 650 basechar 0
LayerCount: 2
Back
SplineSet
28 40 m 1
 235 40 l 1
 235 0 l 1
 28 0 l 1
 28 40 l 1
152 530 m 1
 152 20 l 1
 105 20 l 1
 105 550 l 1
 152 530 l 1
10 600 m 1
 180 600 l 1
 595 115 l 25
 605 -12 l 1
 580 -12 l 1
 152 492 l 1
 105 530 l 1
 90 548 70 561 42 561 c 1
 10 561 l 1
 10 600 l 1
558 50 m 1
 558 580 l 1
 605 580 l 1
 605 -12 l 25
 558 50 l 1
480 600 m 1
 682 600 l 1
 682 560 l 1
 480 560 l 1
 480 600 l 1
-685 40 m 1
 -485 40 l 1
 -485 0 l 1
 -685 0 l 1
 -685 40 l 1
-563 600 m 1
 -563 0 l 1
 -610 0 l 1
 -610 600 l 1
 -563 600 l 1
-705 600 m 1
 -540 600 l 1
 -115 106 l 25
 -110 -12 l 1
 -130 -12 l 1
 -563 485 l 1
 -610 530 l 1
 -625 548 -644 560 -669 560 c 1
 -705 560 l 1
 -705 600 l 1
-157 50 m 1
 -157 590 l 1
 -110 590 l 1
 -110 -12 l 25
 -157 50 l 1
-230 600 m 1
 -35 600 l 1
 -35 560 l 1
 -230 560 l 1
 -230 600 l 1
EndSplineSet
Fore
SplineSet
28 40 m 1
 235 40 l 1
 235 0 l 1
 28 0 l 1
 28 40 l 1
152 530 m 1
 152 20 l 1
 105 20 l 1
 105 550 l 1
 152 530 l 1
10 600 m 1
 178 600 l 1
 595 110 l 25
 605 -12 l 1
 580 -12 l 1
 152 495 l 1
 105 530 l 1
 90 548 70 561 42 561 c 1
 10 561 l 1
 10 600 l 1
558 50 m 1
 558 580 l 1
 605 580 l 1
 605 -12 l 25
 558 50 l 1
480 600 m 1
 682 600 l 1
 682 560 l 1
 480 560 l 1
 480 600 l 1
EndSplineSet
EndChar

StartChar: R
Encoding: 82 82 44
Width: 565
Flags: HW
LayerCount: 2
Back
SplineSet
-345 564 m 1
 -415 564 l 1
 -480 557 l 1
 -555 555 l 1
 -555 595 l 1
 -510 598 -405 605 -335 605 c 1
 -215 605 -130 545 -130 450 c 3
 -130 370 -187 320 -257 295 c 1
 -230 245 -192 192 -153 140 c 0
 -93 61 -60 35 -30 35 c 9
 -10 35 l 1
 -10 -5 l 1
 -115 -20 -176 26 -200 55 c 0
 -225 85 -293 205 -315 245 c 0
 -326 265 -340 272 -360 272 c 1
 -405 272 l 1
 -405 315 l 1
 -350 315 l 1
 -280 315 -220 360 -220 440 c 3
 -220 510 -265 564 -345 564 c 1
-555 40 m 1
 -320 40 l 1
 -320 0 l 1
 -555 0 l 1
 -555 40 l 1
-395 590 m 1
 -395 10 l 1
 -480 10 l 1
 -480 590 l 1
 -395 590 l 1
860 560 m 1
 645 560 l 1
 645 600 l 1
 875 600 l 1
 980 600 1070 540 1070 450 c 3
 1070 370 1010 318 940 298 c 1
 967 248 1006 192 1045 140 c 0
 1105 61 1140 35 1165 35 c 9
 1185 35 l 1
 1185 -5 l 1
 1080 -20 1026 19 970 95 c 0
 931 148 895 210 865 282 c 1
 795 282 l 1
 795 325 l 1
 855 325 l 1
 925 325 980 370 980 440 c 3
 980 505 935 560 860 560 c 1
645 40 m 1
 880 40 l 1
 880 0 l 1
 645 0 l 1
 645 40 l 1
805 590 m 1
 805 10 l 1
 720 10 l 1
 720 590 l 1
 805 590 l 1
-920 560 m 1
 -1135 560 l 1
 -1135 600 l 1
 -910 600 l 1
 -810 600 -710 550 -710 460 c 3
 -710 380 -775 328 -845 308 c 1
 -816 254 -774 192 -735 140 c 0
 -675 61 -640 30 -615 30 c 9
 -595 30 l 1
 -595 -10 l 1
 -707 -24 -753 18 -810 95 c 0
 -854 154 -885 212 -920 292 c 1
 -985 292 l 1
 -985 335 l 1
 -925 335 l 1
 -855 335 -800 380 -800 445 c 3
 -800 505 -845 560 -920 560 c 1
-1135 40 m 1
 -900 40 l 1
 -900 0 l 1
 -1135 0 l 1
 -1135 40 l 1
-975 590 m 1
 -975 10 l 1
 -1060 10 l 1
 -1060 590 l 1
 -975 590 l 1
EndSplineSet
Fore
SplineSet
235 564 m 1
 165 564 l 1
 100 557 l 1
 25 555 l 1
 25 595 l 1
 70 598 175 605 245 605 c 1
 370 605 450 545 450 450 c 3
 450 370 395 318 325 293 c 1
 352 243 386 192 425 140 c 0
 485 61 520 35 555 35 c 9
 570 35 l 1
 570 -5 l 1
 555 -7 535 -8 520 -8 c 0
 440 -8 404 27 370 70 c 0
 336 112 282 205 260 245 c 0
 249 265 240 275 220 275 c 1
 175 275 l 1
 175 315 l 1
 230 315 l 1
 300 315 360 360 360 440 c 3
 360 510 320 564 235 564 c 1
25 40 m 1
 260 40 l 1
 260 0 l 1
 25 0 l 1
 25 40 l 1
185 590 m 1
 185 10 l 1
 100 10 l 1
 100 590 l 1
 185 590 l 1
EndSplineSet
Validated: 5
EndChar

StartChar: P
Encoding: 80 80 45
Width: 500
Flags: HW
LayerCount: 2
Back
SplineSet
240 605 m 3
 365 605 440 550 440 465 c 3
 440 405 405 360 350 340 c 1
 425 325 485 265 485 180 c 3
 485 90 410 0 285 0 c 1
 25 0 l 1
 25 40 l 1
 120 40 l 1
 185 93 l 1
 185 63 205 43 240 43 c 1
 260 43 l 1
 350 43 392 85 392 170 c 3
 392 245 340 305 260 305 c 1
 175 305 l 1
 175 348 l 1
 245 348 l 1
 320 348 352 395 352 455 c 3
 352 519 310 560 230 560 c 1
 165 560 l 1
 100 557 l 1
 25 555 l 1
 25 595 l 1
 85 599 185 605 240 605 c 3
185 580 m 1
 185 20 l 1
 100 20 l 1
 100 580 l 1
 185 580 l 1
EndSplineSet
Fore
SplineSet
265 270 m 17
 345 270 395 325 395 415 c 3
 395 500 340 562 245 562 c 1
 165 562 l 1
 100 556 l 1
 25 554 l 1
 25 594 l 1
 70 597 185 605 255 605 c 1
 390 605 485 530 485 425 c 3
 485 305 394 227 284 227 c 3
 264 227 235 230 220 235 c 1
 225 270 l 25
 265 270 l 17
25 40 m 1
 275 40 l 1
 275 0 l 1
 25 0 l 1
 25 40 l 1
185 590 m 1
 185 10 l 1
 100 10 l 1
 100 590 l 1
 185 590 l 1
EndSplineSet
Validated: 5
EndChar

StartChar: Q
Encoding: 81 81 46
Width: 700
Flags: HW
LayerCount: 2
Back
SplineSet
280 -5 m 1
 432 0 l 1
 542 -85 650 -157 750 -157 c 1
 795 -157 837 -150 870 -130 c 9
 885 -160 l 1
 837 -200 765 -220 695 -220 c 1
 590 -220 500 -155 400 -75 c 0
 347.524686408 -33.0197491263 325 -13 280 -5 c 1
132 315 m 0
 132 155 225 29 355 29 c 0
 480 29 568 130 568 285 c 0
 568 445 475 572 345 572 c 0
 220 572 132 470 132 315 c 0
35 297 m 0
 35 469 180 612 352 612 c 0
 527 612 665 482 665 307 c 0
 665 135 520 -12 348 -12 c 0
 173 -12 35 122 35 297 c 0
-420 -5 m 1
 -268 0 l 1
 -158 -85 -50 -160 50 -160 c 1
 95 -160 137 -150 170 -130 c 9
 185 -160 l 1
 140 -195 70 -220 -5 -220 c 1
 -110 -220 -200 -155 -300 -75 c 0
 -352.475585938 -33.01953125 -375 -13 -420 -5 c 1
-568 315 m 0
 -568 155 -475 29 -345 29 c 0
 -220 29 -132 130 -132 285 c 0
 -132 445 -225 572 -355 572 c 0
 -480 572 -568 470 -568 315 c 0
-665 297 m 0
 -665 469 -520 612 -348 612 c 0
 -173 612 -35 482 -35 307 c 0
 -35 135 -180 -12 -352 -12 c 0
 -527 -12 -665 122 -665 297 c 0
EndSplineSet
Fore
SplineSet
296 -8 m 1
 296 4 l 1
 442 4 l 1
 557 -85 665 -157 765 -157 c 1
 810 -157 852 -150 885 -130 c 9
 900 -160 l 1
 852 -200 780 -220 710 -220 c 1
 600 -220 515 -155 415 -75 c 0
 363 -33 341 -15 296 -8 c 1
132 315 m 0
 132 155 225 29 355 29 c 0
 480 29 568 130 568 285 c 0
 568 445 475 572 345 572 c 0
 220 572 132 470 132 315 c 0
35 297 m 0
 35 469 180 612 352 612 c 0
 527 612 665 482 665 307 c 0
 665 135 520 -12 348 -12 c 0
 173 -12 35 122 35 297 c 0
EndSplineSet
Validated: 5
EndChar

StartChar: K
Encoding: 75 75 47
Width: 585
Flags: HW
LayerCount: 2
Back
SplineSet
375 40 m 1
 595 40 l 1
 595 0 l 1
 375 0 l 1
 375 40 l 1
205 315 m 1
 270 375 l 1
 550 30 l 1
 450 5 l 1
 205 315 l 1
430 590 m 1
 495 585 l 1
 185 262 l 1
 185 330 l 1
 430 590 l 1
345 600 m 1
 545 600 l 1
 545 560 l 1
 345 560 l 1
 345 600 l 1
25 600 m 1
 255 600 l 1
 255 560 l 1
 25 560 l 1
 25 600 l 1
25 40 m 1
 260 40 l 1
 260 0 l 1
 25 0 l 1
 25 40 l 1
185 590 m 1
 185 10 l 1
 100 10 l 1
 100 590 l 1
 185 590 l 1
-250 40 m 1
 -35 40 l 1
 -35 0 l 1
 -250 0 l 1
 -250 40 l 1
-415 315 m 1
 -350 375 l 1
 -75 25 l 1
 -175 5 l 1
 -415 315 l 1
-185 590 m 1
 -120 580 l 1
 -436 265 l 1
 -436 330 l 1
 -185 590 l 1
-270 600 m 1
 -70 600 l 1
 -70 560 l 1
 -270 560 l 1
 -270 600 l 1
-595 600 m 1
 -360 600 l 1
 -360 560 l 1
 -595 560 l 1
 -595 600 l 1
-595 40 m 1
 -360 40 l 1
 -360 0 l 1
 -595 0 l 1
 -595 40 l 1
-435 590 m 1
 -435 10 l 1
 -520 10 l 1
 -520 590 l 1
 -435 590 l 1
EndSplineSet
Fore
SplineSet
360 40 m 1
 590 40 l 1
 590 0 l 1
 360 0 l 1
 360 40 l 1
200 315 m 1
 265 375 l 1
 545 30 l 1
 445 5 l 1
 200 315 l 1
430 590 m 1
 490 580 l 1
 185 260 l 1
 185 330 l 1
 430 590 l 1
345 600 m 1
 545 600 l 1
 545 560 l 1
 345 560 l 1
 345 600 l 1
25 600 m 1
 255 600 l 1
 255 560 l 1
 25 560 l 1
 25 600 l 1
25 40 m 1
 260 40 l 1
 260 0 l 1
 25 0 l 1
 25 40 l 1
185 590 m 1
 185 10 l 1
 100 10 l 1
 100 590 l 1
 185 590 l 1
EndSplineSet
Validated: 5
EndChar

StartChar: Y
Encoding: 89 89 48
Width: 520
Flags: HW
AnchorPoint: "accent_above_cap" 280 650 basechar 0
LayerCount: 2
Back
SplineSet
370 600 m 1
 560 600 l 1
 560 560 l 1
 370 560 l 1
 370 600 l 1
-30 600 m 1
 195 600 l 1
 195 560 l 1
 -30 560 l 1
 -30 600 l 1
220 280 m 1
 0 590 l 1
 110 590 l 1
 280 345 l 1
 220 280 l 1
305 310 m 1
 305 10 l 1
 220 10 l 1
 220 310 l 1
 305 310 l 1
140 40 m 1
 385 40 l 1
 385 0 l 1
 140 0 l 1
 140 40 l 1
460 590 m 1
 525 590 l 1
 305 300 l 1
 220 280 l 1
 280 345 l 1
 460 590 l 1
-235 600 m 1
 -50 600 l 1
 -50 560 l 1
 -235 560 l 1
 -235 600 l 1
-655 600 m 1
 -435 600 l 1
 -435 560 l 1
 -655 560 l 1
 -655 600 l 1
-375 282 m 1
 -615 590 l 1
 -510 590 l 1
 -330 360 l 1
 -375 282 l 1
-310 330 m 1
 -310 10 l 1
 -395 10 l 1
 -395 330 l 1
 -310 330 l 1
-475 40 m 1
 -230 40 l 1
 -230 0 l 1
 -475 0 l 1
 -475 40 l 1
-155 590 m 1
 -95 590 l 1
 -340 282 l 1
 -375 282 l 1
 -330 360 l 1
 -155 590 l 1
EndSplineSet
Fore
SplineSet
365 600 m 1
 555 600 l 1
 555 560 l 1
 365 560 l 1
 365 600 l 1
-35 600 m 1
 190 600 l 1
 190 560 l 1
 -35 560 l 1
 -35 600 l 1
215 280 m 1
 -5 590 l 1
 103 590 l 1
 275 342 l 1
 215 280 l 1
300 310 m 1
 300 10 l 1
 215 10 l 1
 215 310 l 1
 300 310 l 1
135 40 m 1
 380 40 l 1
 380 0 l 1
 135 0 l 1
 135 40 l 1
457 590 m 1
 520 590 l 1
 300 300 l 1
 215 280 l 1
 275 342 l 1
 457 590 l 1
EndSplineSet
EndChar

StartChar: W
Encoding: 87 87 49
Width: 815
Flags: HW
LayerCount: 2
Back
SplineSet
-150 590 m 1
 -90 590 l 1
 -355 -18 l 1
 -390 -18 l 1
 -368 70 l 1
 -150 590 l 1
-390 -18 m 1
 -620 590 l 1
 -520 585 l 1
 -335 75 l 1
 -390 -18 l 1
-665 600 m 1
 -445 600 l 1
 -445 560 l 1
 -665 560 l 1
 -665 600 l 1
-165 590 m 1
 -105 590 l 1
 -355 -18 l 1
 -390 -18 l 1
 -370 70 l 1
 -165 590 l 1
-245 600 m 1
 -60 600 l 1
 -60 560 l 1
 -245 560 l 1
 -245 600 l 1
EndSplineSet
Fore
SplineSet
385 310 m 1
 415 260 l 1
 290 -18 l 1
 255 -18 l 1
 278 70 l 1
 385 310 l 1
-35 600 m 1
 175 600 l 1
 175 560 l 1
 -35 560 l 1
 -35 600 l 1
255 -18 m 1
 10 590 l 1
 108 585 l 1
 310 75 l 1
 255 -18 l 1
670 600 m 1
 845 600 l 1
 845 560 l 1
 670 560 l 1
 670 600 l 1
740 590 m 1
 800 590 l 1
 540 -18 l 1
 505 -18 l 1
 525 72 l 1
 740 590 l 1
215 600 m 1
 610 600 l 1
 610 560 l 1
 215 560 l 1
 215 600 l 1
505 -18 m 1
 255 590 l 1
 350 585 l 1
 557 70 l 1
 505 -18 l 1
520 590 m 1
 578 590 l 1
 443 295 l 1
 415 350 l 1
 520 590 l 1
EndSplineSet
Validated: 5
EndChar

StartChar: C
Encoding: 67 67 50
Width: 630
Flags: HW
LayerCount: 2
Back
SplineSet
364 -12 m 3
 174 -12 33 122 33 302 c 0
 33 474 188 612 383 612 c 3
 458 612 531 595 581 570 c 1
 591 430 l 25
 556 430 l 1
 546 480 531 505 511 525 c 0
 486 550 441 570 376 570 c 3
 231 570 134 470 134 310 c 0
 134 160 236 31 376 31 c 3
 466 31 520 65 548 120 c 10
 566 155 l 1
 604 155 l 25
 566 27 l 17
 514 0 429 -12 364 -12 c 3
-272 -12 m 3
 -457 -12 -605 122 -605 297 c 0
 -605 469 -448 612 -253 612 c 3
 -178 612 -110 595 -55 570 c 1
 -45 430 l 25
 -80 430 l 1
 -90 480 -105 505 -125 525 c 0
 -150 550 -195 570 -260 570 c 3
 -405 570 -505 470 -505 315 c 0
 -505 155 -400 30 -265 30 c 3
 -165 30 -115 55 -80 110 c 10
 -60 145 l 1
 -22 145 l 25
 -70 25 l 17
 -120 0 -207 -12 -272 -12 c 3
EndSplineSet
Fore
SplineSet
364 -12 m 3
 174 -12 33 122 33 302 c 0
 33 474 188 612 383 612 c 3
 458 612 531 595 581 570 c 1
 591 430 l 25
 556 430 l 1
 546 480 531 505 511 525 c 0
 486 550 441 570 376 570 c 3
 231 570 134 470 134 310 c 0
 134 160 236 31 376 31 c 3
 466 31 521 70 547 125 c 10
 566 165 l 1
 604 165 l 25
 566 27 l 17
 514 0 429 -12 364 -12 c 3
EndSplineSet
Validated: 1
EndChar

StartChar: D
Encoding: 68 68 51
Width: 675
Flags: HW
LayerCount: 2
Fore
SplineSet
290 43 m 0
 445 43 542 140 542 295 c 0
 542 460 435 565 270 565 c 1
 220 565 145 561 100 557 c 1
 25 554 l 1
 25 594 l 1
 95 600 207 607 282 607 c 3
 502 607 640 487 640 317 c 0
 640 145 517 0 285 0 c 0
 25 0 l 1
 25 40 l 1
 120 40 l 1
 185 93 l 1
 185 62 204 43 240 43 c 1
 290 43 l 0
185 580 m 1
 185 20 l 1
 100 20 l 1
 100 580 l 1
 185 580 l 1
EndSplineSet
Validated: 5
EndChar

StartChar: comma
Encoding: 44 44 52
Width: 240
Flags: HW
LayerCount: 2
Back
SplineSet
100 10 m 0
 80 19 68 30 68 50 c 0
 68 75 92 98 120 98 c 0
 160 98 200 60 200 0 c 3
 200 -70 145 -132 70 -155 c 1
 60 -122 l 1
 102 -107 132 -70 132 -35 c 3
 132 -15 122 0 100 10 c 0
-140 7 m 0
 -162 17 -175 30 -175 50 c 0
 -175 75 -150 100 -120 100 c 0
 -80 100 -40 60 -40 0 c 3
 -40 -75 -95 -132 -170 -155 c 1
 -180 -122 l 1
 -140 -107 -108 -75 -108 -40 c 3
 -108 -20 -118 -3 -140 7 c 0
-385 7 m 0
 -410 14 -425 28 -425 50 c 0
 -425 75 -400 100 -370 100 c 0
 -325 100 -287 60 -287 -5 c 3
 -287 -75 -335 -130 -400 -155 c 1
 -415 -125 l 1
 -375 -110 -350 -82 -350 -42 c 3
 -350 -22 -360 0 -385 7 c 0
-675 0 m 0
 -705 2 -720 20 -720 45 c 0
 -720 75 -695 100 -665 100 c 0
 -615 100 -577 55 -577 -10 c 3
 -577 -85 -625 -130 -690 -155 c 1
 -705 -125 l 1
 -665 -110 -640 -86 -640 -45 c 3
 -640 -25 -650 -2 -675 0 c 0
EndSplineSet
Fore
SplineSet
95 10 m 0
 75 19 63 30 63 50 c 0
 63 75 87 98 115 98 c 0
 155 98 195 60 195 0 c 3
 195 -70 140 -131 68 -154 c 1
 55 -122 l 1
 97 -107 127 -70 127 -35 c 3
 127 -15 117 0 95 10 c 0
EndSplineSet
Validated: 1
EndChar

StartChar: exclam
Encoding: 33 33 53
Width: 290
Flags: HW
LayerCount: 2
Back
SplineSet
122 165 m 1
 107 315 90 515 90 575 c 1
 90 605 105 615 140 615 c 1
 175 615 190 605 190 575 c 1
 190 515 173 315 158 165 c 9
 122 165 l 1
85 45 m 0
 85 75 110 100 140 100 c 0
 170 100 195 75 195 45 c 0
 195 15 170 -10 140 -10 c 0
 110 -10 85 15 85 45 c 0
EndSplineSet
Fore
SplineSet
94 42 m 0
 94 70 117 93 145 93 c 0
 173 93 196 70 196 42 c 0
 196 14 173 -9 145 -9 c 0
 117 -9 94 14 94 42 c 0
155 620 m 17
 180 620 195 607 195 585 c 1
 195 545 177 340 162 170 c 9
 128 170 l 1
 113 340 95 545 95 585 c 1
 95 607 110 620 135 620 c 9
 155 620 l 17
EndSplineSet
EndChar

StartChar: G
Encoding: 71 71 54
Width: 670
Flags: HW
LayerCount: 2
Back
SplineSet
585 270 m 1
 585 35 l 1
 502 60 l 1
 502 270 l 1
 585 270 l 1
415 280 m 1
 650 280 l 1
 650 240 l 1
 415 240 l 1
 415 280 l 1
357 -12 m 0
 176 -12 33 122 33 297 c 0
 33 474 188 612 388 612 c 0
 463 612 531 595 581 570 c 1
 585 432 l 1
 550 432 l 1
 545 477 530 505 510 525 c 0
 485 550 446 570 381 570 c 0
 236 570 132 465 132 305 c 0
 132 150 231 32 366 32 c 0
 421 32 472 45 502 70 c 1
 585 35 l 1
 525 5 429 -12 357 -12 c 0
-80 270 m 1
 -80 35 l 1
 -163 60 l 1
 -163 270 l 1
 -80 270 l 1
-250 280 m 1
 -15 280 l 1
 -15 240 l 1
 -250 240 l 1
 -250 280 l 1
-311 -12 m 0
 -496 -12 -637 122 -637 297 c 0
 -637 474 -477 612 -282 612 c 0
 -207 612 -139 595 -89 570 c 1
 -85 432 l 1
 -120 432 l 1
 -125 477 -140 505 -160 525 c 0
 -185 550 -224 570 -289 570 c 0
 -434 570 -538 465 -538 305 c 0
 -538 150 -439 31 -299 31 c 0
 -239 31 -163 50 -163 95 c 1
 -80 35 l 1
 -140 5 -236 -12 -311 -12 c 0
EndSplineSet
Fore
SplineSet
585 270 m 1
 585 35 l 1
 502 60 l 1
 502 270 l 1
 585 270 l 1
415 280 m 1
 650 280 l 1
 650 240 l 1
 415 240 l 1
 415 280 l 1
357 -12 m 0
 176 -12 33 122 33 297 c 0
 33 474 188 612 383 612 c 0
 463 612 531 595 581 570 c 1
 585 432 l 1
 550 432 l 1
 545 477 530 505 510 525 c 0
 485 550 446 570 376 570 c 0
 236 570 132 465 132 305 c 0
 132 150 231 32 366 32 c 0
 421 32 467 45 502 65 c 1
 585 35 l 1
 525 5 429 -12 357 -12 c 0
EndSplineSet
Validated: 5
EndChar

StartChar: M
Encoding: 77 77 55
Width: 780
Flags: HW
LayerCount: 2
Back
SplineSet
515 40 m 1
 760 40 l 1
 760 0 l 1
 515 0 l 1
 515 40 l 1
660 590 m 1
 680 20 l 1
 595 20 l 1
 575 600 l 1
 660 590 l 1
15 40 m 1
 220 40 l 1
 220 0 l 1
 15 0 l 1
 15 40 l 1
162 535 m 1
 137 20 l 1
 90 20 l 1
 115 535 l 1
 162 535 l 1
345 -8 m 1
 145 495 l 1
 115 535 l 1
 105 550 88 560 58 560 c 1
 25 560 l 1
 25 600 l 1
 200 600 l 1
 405 75 l 1
 345 -8 l 1
575 600 m 1
 745 600 l 1
 745 560 l 1
 615 560 l 1
 380 -8 l 1
 345 -8 l 1
 370 80 l 1
 575 600 l 1
EndSplineSet
Fore
SplineSet
520 40 m 1
 765 40 l 1
 765 0 l 1
 520 0 l 1
 520 40 l 1
660 590 m 1
 685 20 l 1
 600 20 l 1
 575 600 l 1
 660 590 l 1
10 40 m 1
 215 40 l 1
 215 0 l 1
 10 0 l 1
 10 40 l 1
163 535 m 1
 133 20 l 1
 85 20 l 1
 115 535 l 1
 163 535 l 1
345 -8 m 1
 145 495 l 1
 115 535 l 1
 105 550 88 560 58 560 c 1
 25 560 l 1
 25 600 l 1
 200 600 l 1
 405 75 l 1
 345 -8 l 1
575 600 m 1
 745 600 l 1
 745 560 l 1
 615 560 l 1
 380 -8 l 1
 345 -8 l 1
 370 80 l 1
 575 600 l 1
EndSplineSet
Validated: 5
EndChar

StartChar: S
Encoding: 83 83 56
Width: 434
Flags: HW
AnchorPoint: "accent_above_cap" 225 650 basechar 0
LayerCount: 2
Back
SplineSet
61 457 m 1
 61 541 145 622 244 622 c 1
 295 622 356 604 392 578 c 1
 399 442 l 1
 351 442 l 17
 337 496 l 2
 327 535 293 564 235 564 c 1
 184 564 156 528 156 488 c 1
 156 457 172 429 276 364 c 0
 395 290 421 241 421 167 c 1
 421 74 334 -17 218 -17 c 1
 174 -17 102 0 66 25 c 1
 51 178 l 1
 99 178 l 25
 119 112 l 2
 131 72 174 42 225 42 c 1
 283 42 319 86 319 140 c 1
 319 174 299 203 196 268 c 0
 86 338 61 387 61 457 c 1
71 320 m 1
 391 320 l 1
 391 0 l 1
 71 0 l 1
 71 320 l 1
91 600 m 1
 371 600 l 1
 371 320 l 1
 91 320 l 1
 91 600 l 1
EndSplineSet
Fore
SplineSet
50 460 m 1
 50 540 130 614 230 614 c 1
 280 614 335 600 370 577 c 1
 375 462 l 1
 337 462 l 17
 330 495 l 2
 321 540 282 576 225 576 c 1
 170 576 128 538 128 493 c 1
 128 448 146 420 245 355 c 0
 362 278 393 235 393 165 c 1
 393 70 304 -14 195 -14 c 1
 140 -14 84 -2 42 25 c 1
 30 153 l 1
 68 153 l 25
 80 110 l 2
 94 60 136 25 200 25 c 1
 260 25 310 70 310 135 c 1
 310 185 279 215 178 283 c 0
 73 353 50 395 50 460 c 1
EndSplineSet
EndChar

StartChar: slash
Encoding: 47 47 57
Width: 340
Flags: HW
LayerCount: 2
Fore
SplineSet
10 -40 m 1
 275 640 l 1
 330 640 l 1
 65 -40 l 1
 10 -40 l 1
EndSplineSet
EndChar

StartChar: quotesingle
Encoding: 39 39 58
Width: 200
Flags: HW
LayerCount: 2
Back
SplineSet
105 620 m 17
 130 620 140 610 140 595 c 1
 140 560 131 500 115 380 c 9
 85 380 l 1
 69 500 60 560 60 595 c 1
 60 610 70 620 95 620 c 9
 105 620 l 17
EndSplineSet
Fore
SplineSet
105 620 m 17
 130 620 140 610 140 595 c 1
 140 560 131 500 115 385 c 9
 85 385 l 1
 69 500 60 560 60 595 c 1
 60 610 70 620 95 620 c 9
 105 620 l 17
EndSplineSet
Validated: 1
EndChar

StartChar: X
Encoding: 88 88 59
Width: 580
Flags: HW
LayerCount: 2
Back
SplineSet
245 300 m 1
 290 275 l 1
 95 10 l 1
 30 10 l 1
 245 300 l 1
380 600 m 1
 580 600 l 1
 580 560 l 1
 380 560 l 1
 380 600 l 1
-5 600 m 1
 230 600 l 1
 230 560 l 1
 -5 560 l 1
 -5 600 l 1
430 10 m 1
 35 590 l 1
 145 590 l 1
 541 10 l 1
 430 10 l 1
340 40 m 1
 590 40 l 1
 590 0 l 1
 340 0 l 1
 340 40 l 1
-15 40 m 1
 190 40 l 1
 190 0 l 1
 -15 0 l 1
 -15 40 l 1
470 590 m 1
 535 590 l 1
 320 300 l 1
 275 325 l 1
 470 590 l 1
-230 600 m 1
 -35 600 l 1
 -35 560 l 1
 -230 560 l 1
 -230 600 l 1
-630 600 m 1
 -395 600 l 1
 -395 560 l 1
 -630 560 l 1
 -630 600 l 1
-190 10 m 1
 -590 590 l 1
 -480 590 l 1
 -79 10 l 1
 -190 10 l 1
-280 40 m 1
 -30 40 l 1
 -30 0 l 1
 -280 0 l 1
 -280 40 l 1
-630 40 m 1
 -430 40 l 1
 -430 0 l 1
 -630 0 l 1
 -630 40 l 1
-140 590 m 1
 -75 590 l 1
 -520 10 l 1
 -585 10 l 1
 -140 590 l 1
EndSplineSet
Fore
SplineSet
245 300 m 1
 290 275 l 1
 95 10 l 1
 30 10 l 1
 245 300 l 1
380 600 m 1
 580 600 l 1
 580 560 l 1
 380 560 l 1
 380 600 l 1
-5 600 m 1
 230 600 l 1
 230 560 l 1
 -5 560 l 1
 -5 600 l 1
430 10 m 1
 35 590 l 1
 145 590 l 1
 541 10 l 1
 430 10 l 1
340 40 m 1
 590 40 l 1
 590 0 l 1
 340 0 l 1
 340 40 l 1
-15 40 m 1
 190 40 l 1
 190 0 l 1
 -15 0 l 1
 -15 40 l 1
470 590 m 1
 535 590 l 1
 318 300 l 1
 273 325 l 1
 470 590 l 1
EndSplineSet
Validated: 5
EndChar

StartChar: Z
Encoding: 90 90 60
Width: 555
Flags: HW
LayerCount: 2
Back
SplineSet
410 555 m 17
 140 555 l 1
 105 555 90 535 70 460 c 1
 33 460 l 1
 50 600 l 1
 525 600 l 1
 525 570 l 9
 137 45 l 17
 410 45 l 1
 457 45 471 65 503 165 c 1
 540 165 l 1
 515 0 l 1
 20 0 l 1
 20 30 l 9
 410 555 l 17
EndSplineSet
Fore
SplineSet
410 556 m 17
 140 556 l 1
 105 556 90 535 75 460 c 1
 38 460 l 1
 50 600 l 1
 525 600 l 1
 525 570 l 9
 132 45 l 17
 405 45 l 1
 452 45 465 65 500 165 c 1
 537 165 l 1
 507 0 l 1
 15 0 l 1
 15 30 l 9
 410 556 l 17
EndSplineSet
Validated: 1
EndChar

StartChar: backslash
Encoding: 92 92 61
Width: 340
Flags: HW
LayerCount: 2
Back
SplineSet
310 -40 m 1
 260 -40 l 1
 10 640 l 1
 60 640 l 1
 310 -40 l 1
EndSplineSet
Fore
SplineSet
275 -40 m 1
 10 640 l 1
 65 640 l 1
 330 -40 l 1
 275 -40 l 1
EndSplineSet
EndChar

StartChar: quoteright
Encoding: 8217 8217 62
Width: 220
Flags: HW
LayerCount: 2
Back
SplineSet
87 537 m 0
 67 546 55 560 55 575 c 0
 55 600 79 625 107 625 c 0
 144 625 185 587 185 527 c 3
 185 457 135 400 65 375 c 1
 50 405 l 1
 90 420 117 455 117 492 c 3
 117 512 108 528 87 537 c 0
-118 537 m 0
 -138 546 -150 559 -150 579 c 0
 -150 604 -128 625 -100 625 c 0
 -60 625 -20 587 -20 527 c 3
 -20 457 -70 400 -140 375 c 1
 -155 405 l 1
 -115 420 -88 455 -88 492 c 3
 -88 512 -96 527 -118 537 c 0
-120 10 m 0
 -140 19 -152 30 -152 50 c 0
 -152 75 -128 98 -100 98 c 0
 -60 98 -20 60 -20 0 c 3
 -20 -70 -75 -132 -150 -155 c 1
 -160 -122 l 1
 -118 -107 -88 -70 -88 -35 c 3
 -88 -15 -98 0 -120 10 c 0
EndSplineSet
Fore
SplineSet
87 537 m 0
 67 546 55 560 55 575 c 0
 55 600 79 625 107 625 c 0
 144 625 185 587 185 527 c 3
 185 457 135 400 65 375 c 1
 50 405 l 1
 90 420 117 455 117 492 c 3
 117 512 108 528 87 537 c 0
EndSplineSet
Validated: 1
EndChar

StartChar: endash
Encoding: 8211 8211 63
Width: 500
Flags: HW
LayerCount: 2
Fore
SplineSet
30 240 m 1
 470 240 l 1
 470 190 l 1
 30 190 l 1
 30 240 l 1
EndSplineSet
EndChar

StartChar: emdash
Encoding: 8212 8212 64
Width: 1000
Flags: HW
LayerCount: 2
Fore
SplineSet
30 240 m 1
 970 240 l 1
 970 190 l 1
 30 190 l 1
 30 240 l 1
EndSplineSet
EndChar

StartChar: quoteleft
Encoding: 8216 8216 65
Width: 220
Flags: HW
LayerCount: 2
Fore
SplineSet
133 468 m 0
 153 459 165 445 165 430 c 0
 165 405 141 380 113 380 c 0
 76 380 35 418 35 478 c 3
 35 548 85 605 155 630 c 1
 170 600 l 1
 130 585 103 550 103 513 c 3
 103 493 112 477 133 468 c 0
EndSplineSet
Validated: 1
EndChar

StartChar: quotesinglbase
Encoding: 8218 8218 66
Width: 220
Flags: HW
LayerCount: 2
Back
SplineSet
87 12 m 0
 67 21 55 35 55 50 c 0
 55 75 79 100 107 100 c 0
 144 100 185 62 185 2 c 3
 185 -68 135 -125 65 -150 c 1
 50 -120 l 1
 90 -105 117 -70 117 -33 c 3
 117 -13 108 3 87 12 c 0
EndSplineSet
Fore
Refer: 62 8217 N 1 0 0 1 0 -525 2
EndChar

StartChar: quotedblleft
Encoding: 8220 8220 67
Width: 390
Flags: HW
LayerCount: 2
Fore
SplineSet
303 468 m 0
 323 459 335 445 335 430 c 0
 335 405 311 380 283 380 c 0
 246 380 205 418 205 478 c 3
 205 548 255 605 325 630 c 1
 340 600 l 1
 300 585 273 550 273 513 c 3
 273 493 282 477 303 468 c 0
133 468 m 0
 153 459 165 445 165 430 c 0
 165 405 141 380 113 380 c 0
 76 380 35 418 35 478 c 3
 35 548 85 605 155 630 c 1
 170 600 l 1
 130 585 103 550 103 513 c 3
 103 493 112 477 133 468 c 0
EndSplineSet
Validated: 1
EndChar

StartChar: quotedblright
Encoding: 8221 8221 68
Width: 390
Flags: HW
LayerCount: 2
Fore
SplineSet
257 537 m 0
 237 546 225 560 225 575 c 0
 225 600 249 625 277 625 c 0
 314 625 355 587 355 527 c 3
 355 457 305 400 235 375 c 1
 220 405 l 1
 260 420 287 455 287 492 c 3
 287 512 278 528 257 537 c 0
87 537 m 0
 67 546 55 560 55 575 c 0
 55 600 79 625 107 625 c 0
 144 625 185 587 185 527 c 3
 185 457 135 400 65 375 c 1
 50 405 l 1
 90 420 117 455 117 492 c 3
 117 512 108 528 87 537 c 0
EndSplineSet
Validated: 1
EndChar

StartChar: uni201F
Encoding: 8223 8223 69
Width: 1000
Flags: H
LayerCount: 2
Back
SplineSet
100 10 m 0
 80 19 68 30 68 50 c 0
 68 75 92 98 120 98 c 0
 160 98 200 60 200 0 c 3
 200 -70 145 -132 70 -155 c 1
 60 -122 l 1
 102 -107 132 -70 132 -35 c 3
 132 -15 122 0 100 10 c 0
EndSplineSet
EndChar

StartChar: dagger
Encoding: 8224 8224 70
Width: 390
Flags: HW
LayerCount: 2
Back
SplineSet
198 424 m 1
 268 414 306 398 331 398 c 0
 352 398 368 416 368 437 c 0
 368 458 352 476 331 476 c 0
 306 476 268 460 198 450 c 1
 208 520 224 558 224 583 c 0
 224 604 206 620 185 620 c 0
 164 620 146 604 146 583 c 0
 146 558 162 520 172 450 c 1
 102 460 64 476 39 476 c 0
 18 476 2 458 2 437 c 0
 2 416 18 398 39 398 c 0
 64 398 102 414 172 424 c 1
 162 354 146 316 146 291 c 0
 146 270 164 254 185 254 c 0
 206 254 224 270 224 291 c 0
 224 316 208 354 198 424 c 1
EndSplineSet
Fore
SplineSet
152 295 m 1
 169 325 177 369 180 424 c 1
 113 414 74 398 49 398 c 0
 28 398 12 416 12 437 c 0
 12 458 28 476 49 476 c 0
 74 476 112 460 182 450 c 1
 172 520 156 558 156 583 c 0
 156 604 174 620 195 620 c 0
 216 620 234 604 234 583 c 0
 234 558 218 520 208 450 c 1
 278 460 316 476 341 476 c 0
 362 476 378 458 378 437 c 0
 378 416 362 398 341 398 c 0
 316 398 277 414 210 424 c 1
 213 369 221 325 238 295 c 1
 220 250 212 160 211 50 c 1
 179 50 l 1
 176 160 170 250 152 295 c 1
EndSplineSet
EndChar

StartChar: daggerdbl
Encoding: 8225 8225 71
Width: 390
Flags: HW
LayerCount: 2
Back
SplineSet
238 325 m 1
 221 295 213 251 210 196 c 1
 277 206 316 222 341 222 c 0
 362 222 378 204 378 183 c 0
 378 162 362 144 341 144 c 0
 316 144 278 160 208 170 c 1
 218 100 234 62 234 37 c 0
 234 16 216 0 195 0 c 0
 174 0 156 16 156 37 c 0
 156 62 172 100 182 170 c 1
 112 160 74 144 49 144 c 0
 28 144 12 162 12 183 c 0
 12 204 28 222 49 222 c 0
 74 222 113 206 180 196 c 1
 177 251 169 295 152 325 c 1
 170 370 178 460 179 570 c 1
 211 570 l 1
 214 460 220 370 238 325 c 1
152 295 m 1
 169 325 177 369 180 424 c 1
 113 414 74 398 49 398 c 0
 28 398 12 416 12 437 c 0
 12 458 28 476 49 476 c 0
 74 476 112 460 182 450 c 1
 172 520 156 558 156 583 c 0
 156 604 174 620 195 620 c 0
 216 620 234 604 234 583 c 0
 234 558 218 520 208 450 c 1
 278 460 316 476 341 476 c 0
 362 476 378 458 378 437 c 0
 378 416 362 398 341 398 c 0
 316 398 277 414 210 424 c 1
 213 369 221 325 238 295 c 1
 220 250 212 160 211 50 c 1
 179 50 l 1
 176 160 170 250 152 295 c 1
EndSplineSet
Fore
SplineSet
152 310 m 1
 169 340 178 374 181 424 c 1
 112 414 74 398 49 398 c 0
 28 398 12 416 12 437 c 0
 12 458 28 476 49 476 c 0
 74 476 112 460 182 450 c 1
 172 520 156 558 156 583 c 0
 156 604 174 620 195 620 c 0
 216 620 234 604 234 583 c 0
 234 558 218 520 208 450 c 1
 278 460 316 476 341 476 c 0
 362 476 378 458 378 437 c 0
 378 416 362 398 341 398 c 0
 316 398 278 414 209 424 c 1
 212 374 221 340 238 310 c 1
 221 280 212 246 209 196 c 1
 278 206 316 222 341 222 c 0
 362 222 378 204 378 183 c 0
 378 162 362 144 341 144 c 0
 316 144 278 160 208 170 c 1
 218 100 234 62 234 37 c 0
 234 16 216 0 195 0 c 0
 174 0 156 16 156 37 c 0
 156 62 172 100 182 170 c 1
 112 160 74 144 49 144 c 0
 28 144 12 162 12 183 c 0
 12 204 28 222 49 222 c 0
 74 222 112 206 181 196 c 1
 178 246 169 280 152 310 c 1
EndSplineSet
EndChar

StartChar: bullet
Encoding: 8226 8226 72
Width: 240
Flags: HW
LayerCount: 2
Back
SplineSet
30 215 m 0
 30 273 77 320 135 320 c 0
 193 320 240 273 240 215 c 0
 240 157 193 110 135 110 c 0
 77 110 30 157 30 215 c 0
EndSplineSet
Fore
SplineSet
35 215 m 0
 35 262 73 300 120 300 c 0
 167 300 205 262 205 215 c 0
 205 168 167 130 120 130 c 0
 73 130 35 168 35 215 c 0
EndSplineSet
EndChar

StartChar: ellipsis
Encoding: 8230 8230 73
Width: 810
Flags: HW
LayerCount: 2
Fore
SplineSet
607 45 m 0
 607 77 633 103 665 103 c 0
 697 103 723 77 723 45 c 0
 723 13 697 -13 665 -13 c 0
 633 -13 607 13 607 45 c 0
347 45 m 0
 347 77 373 103 405 103 c 0
 437 103 463 77 463 45 c 0
 463 13 437 -13 405 -13 c 0
 373 -13 347 13 347 45 c 0
87 45 m 0
 87 77 113 103 145 103 c 0
 177 103 203 77 203 45 c 0
 203 13 177 -13 145 -13 c 0
 113 -13 87 13 87 45 c 0
EndSplineSet
Validated: 1
EndChar

StartChar: uniFB00
Encoding: 64256 64256 74
Width: 700
Flags: HW
LayerCount: 2
Fore
SplineSet
100 500 m 1
 600 500 l 1
 600 0 l 1
 100 0 l 1
 100 500 l 1
EndSplineSet
EndChar

StartChar: uniFB01
Encoding: 64257 64257 75
Width: 510
Flags: HW
LayerCount: 2
Back
SplineSet
294 35 m 1
 504 35 l 1
 504 0 l 1
 294 0 l 1
 294 35 l 1
390 390 m 1
 424 395 l 1
 434 395 l 1
 434 0 l 1
 360 0 l 1
 360 320 l 1
 325 342 l 1
 390 390 l 1
10 340 m 1
 10 370 l 1
 90 400 l 1
 120 390 l 1
 390 390 l 1
 390 342 l 1
 162 342 l 1
 92 340 l 1
 10 340 l 1
25 35 m 1
 240 35 l 1
 240 0 l 1
 25 0 l 1
 25 35 l 1
388 540 m 1
 366 540 359 556 349 570 c 0
 337 588 317 609 280 609 c 1
 210 609 164 545 164 455 c 1
 164 0 l 1
 90 0 l 1
 90 425 l 1
 90 555 202 660 317 660 c 1
 379 660 434 622 434 585 c 1
 434 561 412 540 388 540 c 1
-276 35 m 1
 -66 35 l 1
 -66 0 l 1
 -276 0 l 1
 -276 35 l 1
-180 390 m 1
 -146 395 l 1
 -136 395 l 1
 -136 0 l 1
 -210 0 l 1
 -210 320 l 1
 -245 342 l 1
 -180 390 l 1
-560 340 m 1
 -560 370 l 1
 -480 400 l 1
 -450 390 l 1
 -180 390 l 1
 -180 342 l 1
 -408 342 l 1
 -478 340 l 1
 -560 340 l 1
-545 35 m 1
 -325 35 l 1
 -325 0 l 1
 -545 0 l 1
 -545 35 l 1
-180 538 m 1
 -202 538 -210 554 -220 568 c 0
 -232 585 -251 608 -288 608 c 1
 -358 608 -406 545 -406 455 c 1
 -406 0 l 1
 -480 0 l 1
 -480 425 l 1
 -480 555 -365 660 -250 660 c 1
 -190 660 -133 622 -133 585 c 1
 -133 560 -156 538 -180 538 c 1
-846 35 m 1
 -636 35 l 1
 -636 0 l 1
 -846 0 l 1
 -846 35 l 1
-750 390 m 1
 -716 395 l 1
 -706 395 l 1
 -706 0 l 1
 -780 0 l 1
 -780 320 l 1
 -815 342 l 1
 -750 390 l 1
-1130 340 m 1
 -1130 370 l 1
 -1050 400 l 1
 -1020 390 l 1
 -750 390 l 1
 -750 342 l 1
 -978 342 l 1
 -1048 340 l 1
 -1130 340 l 1
-1115 35 m 1
 -895 35 l 1
 -895 0 l 1
 -1115 0 l 1
 -1115 35 l 1
-755 545 m 1
 -777 545 -782 561 -794 575 c 0
 -806.91796875 590.071289062 -825 608 -860 608 c 1
 -930 608 -976 550 -976 455 c 1
 -976 0 l 1
 -1050 0 l 1
 -1050 425 l 1
 -1050 555 -935 660 -820 660 c 1
 -765 660 -710 627 -710 592 c 1
 -710 567 -730 545 -755 545 c 1
-1416 35 m 1
 -1206 35 l 1
 -1206 0 l 1
 -1416 0 l 1
 -1416 35 l 1
-1320 390 m 1
 -1286 395 l 1
 -1276 395 l 1
 -1276 0 l 1
 -1350 0 l 1
 -1350 320 l 1
 -1385 342 l 1
 -1320 390 l 1
-1700 340 m 1
 -1700 370 l 1
 -1620 400 l 1
 -1590 390 l 1
 -1320 390 l 1
 -1320 342 l 1
 -1548 342 l 1
 -1618 340 l 1
 -1700 340 l 1
-1685 35 m 1
 -1465 35 l 1
 -1465 0 l 1
 -1685 0 l 1
 -1685 35 l 1
-1325 545 m 1
 -1340 545 -1346 561 -1358 575 c 0
 -1370.91796875 590.071289062 -1393 609 -1430 609 c 1
 -1500 609 -1546 555 -1546 455 c 1
 -1546 0 l 1
 -1620 0 l 1
 -1620 425 l 1
 -1620 555 -1505 660 -1390 660 c 1
 -1335 660 -1280 620 -1280 590 c 1
 -1280 565 -1300 545 -1325 545 c 1
-2036 35 m 1
 -1826 35 l 1
 -1826 0 l 1
 -2036 0 l 1
 -2036 35 l 1
-1940 390 m 1
 -1906 395 l 1
 -1896 395 l 1
 -1896 0 l 1
 -1970 0 l 1
 -1970 320 l 1
 -2005 342 l 1
 -1940 390 l 1
-2320 340 m 1
 -2320 370 l 1
 -2240 400 l 1
 -2210 390 l 1
 -1940 390 l 1
 -1940 342 l 1
 -2168 342 l 1
 -2238 340 l 1
 -2320 340 l 1
-2305 35 m 1
 -2085 35 l 1
 -2085 0 l 1
 -2305 0 l 1
 -2305 35 l 1
-1975 550 m 1
 -2000 550 -2010 600 -2065 600 c 1
 -2125 600 -2166 550 -2166 460 c 1
 -2166 0 l 1
 -2240 0 l 1
 -2240 435 l 1
 -2240 555 -2125 655 -2020 655 c 1
 -1970 655 -1925 620 -1925 595 c 1
 -1925 570 -1950 550 -1975 550 c 1
620 340 m 1
 620 370 l 1
 700 400 l 1
 730 390 l 1
 890 390 l 1
 880 340 l 1
 620 340 l 1
635 35 m 1
 855 35 l 1
 855 0 l 1
 635 0 l 1
 635 35 l 1
875 570 m 1
 850 570 839 594 814 594 c 1
 789 594 774 574 774 484 c 1
 774 0 l 1
 700 0 l 1
 700 460 l 1
 700 560 790 655 860 655 c 1
 900 655 920 635 920 615 c 1
 920 590 900 570 875 570 c 1
968 570 m 0
 968 595 989 616 1014 616 c 0
 1039 616 1060 595 1060 570 c 0
 1060 545 1039 524 1014 524 c 0
 989 524 968 545 968 570 c 0
904 35 m 1
 1114 35 l 1
 1114 0 l 1
 904 0 l 1
 904 35 l 1
915 350 m 1
 1034 404 l 1
 1044 404 l 1
 1044 0 l 1
 970 0 l 1
 970 300 l 1
 915 340 l 1
 915 350 l 1
EndSplineSet
Fore
SplineSet
284 35 m 1
 494 35 l 1
 494 0 l 1
 284 0 l 1
 284 35 l 1
380 390 m 1
 414 395 l 1
 424 395 l 1
 424 0 l 1
 350 0 l 1
 350 320 l 1
 315 342 l 1
 380 390 l 1
10 340 m 1
 10 370 l 1
 90 400 l 1
 120 390 l 1
 380 390 l 1
 380 342 l 1
 162 342 l 1
 92 340 l 1
 10 340 l 1
25 35 m 1
 240 35 l 1
 240 0 l 1
 25 0 l 1
 25 35 l 1
383 540 m 1
 361 540 354 556 344 570 c 0
 332 588 312 609 275 609 c 1
 205 609 164 545 164 455 c 1
 164 0 l 1
 90 0 l 1
 90 425 l 1
 90 555 197 660 312 660 c 1
 374 660 429 622 429 585 c 1
 429 561 407 540 383 540 c 1
EndSplineSet
EndChar

StartChar: uniFB02
Encoding: 64258 64258 76
Width: 524
Flags: HW
LayerCount: 2
Back
SplineSet
294 35 m 1
 504 35 l 1
 504 0 l 1
 294 0 l 1
 294 35 l 1
306 610 m 1
 424 654 l 1
 434 654 l 1
 434 0 l 1
 360 0 l 1
 360 560 l 1
 306 600 l 1
 306 610 l 1
10 340 m 1
 10 370 l 1
 90 400 l 1
 120 390 l 1
 280 390 l 1
 270 340 l 1
 10 340 l 1
25 35 m 1
 245 35 l 1
 245 0 l 1
 25 0 l 1
 25 35 l 1
265 570 m 1
 240 570 229 594 204 594 c 1
 179 594 164 574 164 484 c 1
 164 0 l 1
 90 0 l 1
 90 460 l 1
 90 560 180 655 250 655 c 1
 290 655 310 635 310 615 c 1
 310 590 290 570 265 570 c 1
EndSplineSet
Fore
SplineSet
294 35 m 1
 504 35 l 1
 504 0 l 1
 294 0 l 1
 294 35 l 1
326 610 m 1
 424 654 l 1
 434 654 l 1
 434 0 l 1
 360 0 l 1
 360 560 l 1
 326 600 l 1
 326 610 l 1
10 340 m 1
 10 370 l 1
 90 400 l 1
 120 390 l 1
 280 390 l 1
 270 340 l 1
 162 340 l 1
 92 340 l 1
 10 340 l 1
25 35 m 1
 240 35 l 1
 240 0 l 1
 25 0 l 1
 25 35 l 1
265 570 m 1
 240 570 229 594 204 594 c 1
 179 594 164 574 164 484 c 1
 164 0 l 1
 90 0 l 1
 90 460 l 1
 90 560 180 655 250 655 c 1
 290 655 310 635 310 615 c 1
 310 590 290 570 265 570 c 1
EndSplineSet
EndChar

StartChar: uniFB03
Encoding: 64259 64259 77
Width: 700
Flags: HW
LayerCount: 2
Fore
SplineSet
100 500 m 1
 600 500 l 1
 600 0 l 1
 100 0 l 1
 100 500 l 1
EndSplineSet
EndChar

StartChar: uniFB04
Encoding: 64260 64260 78
Width: 700
Flags: HW
LayerCount: 2
Fore
SplineSet
100 500 m 1
 600 500 l 1
 600 0 l 1
 100 0 l 1
 100 500 l 1
EndSplineSet
EndChar

StartChar: colon
Encoding: 58 58 79
Width: 250
Flags: HW
LayerCount: 2
Fore
SplineSet
70 340 m 0
 70 370 95 395 125 395 c 0
 155 395 180 370 180 340 c 0
 180 310 155 285 125 285 c 0
 95 285 70 310 70 340 c 0
70 45 m 0
 70 75 95 100 125 100 c 0
 155 100 180 75 180 45 c 0
 180 15 155 -10 125 -10 c 0
 95 -10 70 15 70 45 c 0
EndSplineSet
Validated: 1
EndChar

StartChar: semicolon
Encoding: 59 59 80
Width: 250
Flags: HW
LayerCount: 2
Fore
SplineSet
70 340 m 0
 70 370 95 395 125 395 c 0
 155 395 180 370 180 340 c 0
 180 310 155 285 125 285 c 0
 95 285 70 310 70 340 c 0
95 10 m 0
 75 19 63 30 63 50 c 0
 63 75 87 98 115 98 c 0
 155 98 195 60 195 0 c 3
 195 -70 140 -131 68 -154 c 1
 55 -122 l 1
 97 -107 127 -70 127 -35 c 3
 127 -15 117 0 95 10 c 0
EndSplineSet
Validated: 1
EndChar

StartChar: quotedbl
Encoding: 34 34 81
Width: 340
Flags: HW
LayerCount: 2
Fore
SplineSet
245 620 m 17
 270 620 280 610 280 595 c 1
 280 560 271 500 255 385 c 9
 225 385 l 1
 209 500 200 560 200 595 c 1
 200 610 210 620 235 620 c 9
 245 620 l 17
105 620 m 17
 130 620 140 610 140 595 c 1
 140 560 131 500 115 385 c 9
 85 385 l 1
 69 500 60 560 60 595 c 1
 60 610 70 620 95 620 c 9
 105 620 l 17
EndSplineSet
Validated: 1
EndChar

StartChar: acute
Encoding: 180 180 82
Width: 250
Flags: HW
LayerCount: 2
Back
SplineSet
125 645 m 1
 200 630 l 1
 90 460 l 1
 55 460 l 1
 125 645 l 1
EndSplineSet
Fore
Refer: 143 769 N 1 0 0 1 125 0 2
EndChar

StartChar: two
Encoding: 50 50 83
Width: 400
Flags: HW
LayerCount: 2
Back
SplineSet
225 275 m 3
 225 200 175 150 35 30 c 1
 35 0 l 1
 370 0 l 1
 395 125 l 1
 360 125 l 1
 345 83 335 68 315 68 c 1
 135 68 l 1
 275 178 310 215 310 295 c 3
 310 350 255 400 195 400 c 3
 130 400 85 355 55 300 c 1
 85 280 l 1
 100 308 130 338 165 338 c 3
 195 338 225 310 225 275 c 3
EndSplineSet
Fore
SplineSet
220 270 m 3
 220 307 190 335 155 335 c 3
 120 335 90 308 75 280 c 1
 45 300 l 1
 75 355 120 400 185 400 c 3
 250 400 305 350 305 290 c 3
 305 215 270 178 130 68 c 1
 310 68 l 1
 330 68 340 83 355 125 c 1
 390 125 l 1
 365 0 l 1
 30 0 l 1
 30 30 l 1
 170 150 220 200 220 270 c 3
EndSplineSet
EndChar

StartChar: three
Encoding: 51 51 84
Width: 365
Flags: HW
LayerCount: 2
Back
SplineSet
90 80 m 1
 80 110 l 1
 190 170 213 215 213 265 c 3
 213 307 183 338 145 338 c 3
 110 338 80 310 65 282 c 1
 35 302 l 1
 65 357 110 400 175 400 c 3
 240 400 295 348 295 288 c 3
 295 233 260 193 195 148 c 1
 201 149 211 150 217 150 c 0
 282 150 335 95 335 15 c 3
 335 -120 205 -215 55 -250 c 1
 40 -220 l 17
 155 -185 255 -105 255 -5 c 3
 255 60 218 100 163 100 c 3
 135 100 115 92 90 80 c 1
-275 85 m 1
 -285 115 l 1
 -175 175 -153 220 -153 270 c 3
 -153 308 -180 338 -215 338 c 3
 -250 338 -280 308 -295 280 c 1
 -325 300 l 1
 -295 355 -250 400 -185 400 c 3
 -125 400 -70 350 -70 290 c 3
 -70 230 -105 198 -170 153 c 1
 -164 154 -154 155 -148 155 c 0
 -83 155 -30 100 -30 20 c 3
 -30 -110 -160 -205 -305 -240 c 1
 -320 -210 l 17
 -205 -175 -110 -100 -110 0 c 3
 -110 65 -147 105 -202 105 c 3
 -230 105 -250 97 -275 85 c 1
-675 85 m 1
 -685 115 l 1
 -575 175 -553 215 -553 270 c 3
 -553 308 -580 338 -615 338 c 3
 -650 338 -680 308 -695 280 c 1
 -725 300 l 1
 -695 355 -650 400 -585 400 c 3
 -525 400 -470 350 -470 290 c 3
 -470 230 -510 193 -575 148 c 1
 -568 149 -557 150 -550 150 c 0
 -485 150 -435 90 -435 15 c 3
 -435 -115 -565 -205 -705 -240 c 1
 -720 -210 l 17
 -605 -175 -515 -100 -515 -5 c 3
 -515 60 -548 101 -603 101 c 3
 -631 101 -650 95 -675 85 c 1
-1095 70 m 1
 -1105 100 l 1
 -990 160 -963 210 -963 275 c 3
 -963 310 -993 338 -1025 338 c 3
 -1060 338 -1090 308 -1105 280 c 1
 -1135 300 l 1
 -1105 355 -1060 400 -995 400 c 3
 -935 400 -880 350 -880 290 c 3
 -880 225 -915 185 -995 130 c 1
 -988 131 -977 132 -970 132 c 0
 -905 132 -850 75 -850 0 c 3
 -850 -130 -985 -205 -1125 -240 c 1
 -1140 -210 l 17
 -1025 -175 -930 -115 -930 -20 c 3
 -930 45 -975 85 -1025 85 c 3
 -1053 85 -1070 80 -1095 70 c 1
-1385 275 m 3
 -1385 200 -1435 150 -1575 30 c 1
 -1575 0 l 1
 -1240 0 l 1
 -1215 125 l 1
 -1250 125 l 1
 -1265 83 -1275 68 -1295 68 c 1
 -1475 68 l 1
 -1335 178 -1300 215 -1300 295 c 3
 -1300 350 -1355 400 -1415 400 c 3
 -1480 400 -1525 355 -1555 300 c 1
 -1525 280 l 1
 -1510 308 -1480 338 -1445 338 c 3
 -1415 338 -1385 310 -1385 275 c 3
EndSplineSet
Fore
SplineSet
75 80 m 1
 65 110 l 1
 175 170 198 215 198 265 c 3
 198 307 168 338 130 338 c 3
 95 338 65 310 50 282 c 1
 20 302 l 1
 50 357 95 400 160 400 c 3
 225 400 280 348 280 288 c 3
 280 233 245 193 180 148 c 1
 186 149 196 150 202 150 c 0
 267 150 320 95 320 15 c 3
 320 -120 190 -218 40 -250 c 1
 25 -220 l 17
 147 -185 240 -105 240 -5 c 3
 240 60 203 100 148 100 c 3
 120 100 100 92 75 80 c 1
EndSplineSet
EndChar

StartChar: four
Encoding: 52 52 85
Width: 480
Flags: HW
LayerCount: 2
Back
SplineSet
10 55 m 1
 305 405 l 25
 335 405 l 1
 335 -155 l 1
 261 -155 l 1
 261 290 l 1
 95 90 l 1
 445 90 l 1
 445 25 l 1
 10 25 l 1
 10 55 l 1
EndSplineSet
Fore
SplineSet
10 55 m 1
 305 405 l 25
 335 405 l 1
 335 -175 l 1
 261 -175 l 1
 261 290 l 1
 95 90 l 1
 465 90 l 1
 465 25 l 1
 10 25 l 1
 10 55 l 1
EndSplineSet
EndChar

StartChar: five
Encoding: 53 53 86
Width: 345
Flags: HW
LayerCount: 2
Back
SplineSet
70 390 m 25
 310 390 l 1
 300 320 l 25
 102 320 l 1
 97 295 l 1
 235 205 295 122 295 15 c 3
 295 -105 205 -205 60 -250 c 1
 45 -220 l 1
 160 -170 215 -95 215 0 c 3
 215 90 155 160 40 230 c 1
 70 390 l 25
-330 390 m 25
 -100 390 l 1
 -110 320 l 25
 -298 320 l 1
 -303 295 l 1
 -175 195 -125 127 -125 30 c 3
 -125 -85 -205 -190 -340 -250 c 1
 -355 -220 l 1
 -250 -160 -203 -80 -203 5 c 3
 -203 90 -255 155 -360 230 c 1
 -330 390 l 25
-685 390 m 25
 -445 390 l 1
 -455 320 l 25
 -653 320 l 1
 -658 290 l 1
 -548 200 -500 120 -500 30 c 3
 -500 -85 -585 -195 -725 -250 c 1
 -740 -220 l 1
 -630 -165 -578 -80 -578 5 c 3
 -578 90 -615 150 -715 225 c 1
 -685 390 l 25
510 390 m 25
 745 390 l 1
 735 320 l 25
 535 320 l 1
 525 290 l 1
 640 180 690 95 690 5 c 3
 690 -125 600 -210 460 -245 c 1
 445 -215 l 1
 550 -180 612 -120 612 -25 c 3
 612 60 565 145 460 235 c 1
 510 390 l 25
-1070 390 m 25
 -835 390 l 1
 -845 325 l 25
 -1043 325 l 1
 -1055 290 l 1
 -970 255 -890 180 -890 65 c 3
 -890 -60 -960 -175 -1110 -250 c 1
 -1125 -220 l 1
 -1020 -155 -970 -70 -970 35 c 3
 -970 125 -1025 200 -1120 225 c 1
 -1070 390 l 25
EndSplineSet
Fore
SplineSet
65 390 m 25
 310 390 l 1
 300 320 l 25
 100 320 l 1
 93 280 l 1
 233 185 295 120 295 0 c 3
 295 -125 190 -225 40 -250 c 1
 30 -220 l 1
 150 -190 215 -110 215 -15 c 3
 215 80 150 145 35 215 c 1
 65 390 l 25
EndSplineSet
EndChar

StartChar: parenright
Encoding: 41 41 87
Width: 350
Flags: HW
LayerCount: 2
Back
SplineSet
310 205 m 1
 310 15 197 -145 50 -225 c 1
 30 -197 l 1
 147 -107 220 20 220 200 c 1
 220 380 147 507 30 597 c 1
 50 625 l 1
 197 550 310 395 310 205 c 1
-50 205 m 1
 -50 10 -164 -141 -309 -216 c 1
 -331 -190 l 1
 -216 -100 -140 25 -140 205 c 1
 -140 385 -216 510 -331 600 c 1
 -309 626 l 1
 -164 551 -50 400 -50 205 c 1
EndSplineSet
Fore
SplineSet
310 205 m 1
 310 25 207 -130 50 -225 c 1
 30 -197 l 1
 147 -107 220 20 220 200 c 1
 220 380 147 507 30 597 c 1
 50 625 l 1
 207 535 310 385 310 205 c 1
EndSplineSet
EndChar

StartChar: parenleft
Encoding: 40 40 88
Width: 350
Flags: HW
LayerCount: 2
Back
SplineSet
310 205 m 1
 310 25 207 -130 50 -225 c 1
 30 -197 l 1
 147 -107 220 20 220 200 c 1
 220 380 147 507 30 597 c 1
 50 625 l 1
 207 535 310 385 310 205 c 1
EndSplineSet
Fore
SplineSet
40 195 m 1
 40 375 143 530 300 625 c 1
 320 597 l 1
 203 507 130 380 130 200 c 1
 130 20 203 -107 320 -197 c 1
 300 -225 l 1
 143 -135 40 15 40 195 c 1
EndSplineSet
EndChar

StartChar: bracketright
Encoding: 93 93 89
Width: 340
Flags: HW
LayerCount: 2
Back
SplineSet
310 205 m 1
 310 25 207 -130 50 -225 c 1
 30 -197 l 1
 147 -107 220 20 220 200 c 1
 220 380 147 507 30 597 c 1
 50 625 l 1
 207 535 310 385 310 205 c 1
EndSplineSet
Fore
SplineSet
40 610 m 25
 270 610 l 1
 270 -210 l 1
 40 -210 l 1
 40 -160 l 1
 196 -160 l 1
 196 560 l 25
 40 560 l 1
 40 610 l 25
EndSplineSet
EndChar

StartChar: bracketleft
Encoding: 91 91 90
Width: 340
Flags: HW
LayerCount: 2
Back
SplineSet
40 610 m 25
 270 610 l 1
 270 -210 l 1
 40 -210 l 1
 40 -160 l 1
 196 -160 l 1
 196 560 l 25
 40 560 l 1
 40 610 l 25
EndSplineSet
Fore
SplineSet
300 -210 m 25
 70 -210 l 1
 70 610 l 1
 300 610 l 1
 300 560 l 1
 144 560 l 1
 144 -160 l 25
 300 -160 l 1
 300 -210 l 25
EndSplineSet
EndChar

StartChar: six
Encoding: 54 54 91
Width: 460
Flags: HW
LayerCount: 2
Back
SplineSet
365 615 m 1
 380 580 l 17
 230 505 110 375 110 208 c 3
 110 113 155 32 230 32 c 3
 295 32 335 90 335 160 c 3
 335 235 285 290 230 290 c 3
 210 290 185 285 165 277 c 9
 160 307 l 17
 190 332 230 350 270 350 c 3
 345 350 420 285 420 190 c 3
 420 75 335 -10 215 -10 c 3
 110 -10 25 75 25 195 c 3
 25 385 180 545 365 615 c 1
EndSplineSet
Fore
SplineSet
385 630 m 1
 400 595 l 17
 240 520 120 385 120 208 c 3
 120 108 175 32 240 32 c 3
 300 32 345 88 345 160 c 3
 345 235 295 285 240 285 c 3
 220 285 197 280 177 272 c 9
 170 302 l 17
 200 327 240 347 280 347 c 3
 360 347 430 280 430 185 c 3
 430 75 345 -10 225 -10 c 3
 120 -10 35 75 35 195 c 3
 35 395 195 560 385 630 c 1
EndSplineSet
EndChar

StartChar: nine
Encoding: 57 57 92
Width: 455
Flags: HW
LayerCount: 2
Back
SplineSet
385 620 m 1
 400 585 l 17
 240 510 120 380 120 208 c 3
 120 108 175 32 240 32 c 3
 300 32 345 90 345 160 c 3
 345 235 295 285 240 285 c 3
 220 285 197 280 177 272 c 9
 170 302 l 17
 200 327 240 347 280 347 c 3
 360 347 430 280 430 185 c 3
 430 75 345 -10 225 -10 c 3
 120 -10 35 75 35 195 c 3
 35 385 195 550 385 620 c 1
-585 615 m 1
 -570 580 l 17
 -705 500 -838 358 -838 208 c 3
 -838 113 -795 30 -720 30 c 3
 -650 30 -615 95 -615 175 c 3
 -615 245 -664 295 -714 295 c 3
 -736 295 -765 288 -785 280 c 9
 -790 310 l 17
 -760 335 -715 355 -675 355 c 3
 -600 355 -530 285 -530 190 c 3
 -530 70 -610 -10 -735 -10 c 3
 -840 -10 -925 75 -925 195 c 3
 -925 390 -755 535 -585 615 c 1
EndSplineSet
Fore
SplineSet
80 -245 m 1
 65 -210 l 17
 235 -135 335 -3 335 177 c 3
 335 272 295 357 218 357 c 3
 155 357 115 300 115 230 c 3
 115 155 160 105 215 105 c 3
 235 105 262 109 280 117 c 9
 287 88 l 17
 261 65 217 45 175 45 c 3
 100 45 30 105 30 200 c 3
 30 310 115 400 235 400 c 3
 340 400 420 310 420 190 c 3
 420 -15 285 -170 80 -245 c 1
EndSplineSet
EndChar

StartChar: seven
Encoding: 55 55 93
Width: 405
Flags: HW
LayerCount: 2
Back
SplineSet
20 265 m 1
 35 390 l 1
 370 390 l 1
 370 360 l 25
 195 -220 l 1
 135 -220 l 25
 312 322 l 1
 95 322 l 1
 75 322 65 310 55 265 c 1
 20 265 l 1
EndSplineSet
Fore
SplineSet
20 260 m 1
 35 390 l 1
 380 390 l 1
 380 360 l 25
 155 -240 l 1
 95 -240 l 25
 320 322 l 1
 97 322 l 1
 75 322 65 305 55 260 c 1
 20 260 l 1
EndSplineSet
EndChar

StartChar: eight
Encoding: 56 56 94
Width: 427
Flags: HW
LayerCount: 2
Back
SplineSet
220 611 m 3
 300 611 367 550 367 480 c 3
 367 420 320 370 250 325 c 1
 225 340 l 1
 265 375 290 415 290 465 c 3
 290 520 262 569 210 569 c 3
 163 569 128 530 128 480 c 3
 128 420 181 386 250 340 c 0
 325 290 388 245 388 155 c 3
 388 58 297 -11 205 -11 c 3
 115 -11 39 60 39 135 c 3
 39 200 90 250 165 300 c 1
 190 283 l 1
 145 248 118 210 118 150 c 3
 118 90 153 30 213 30 c 3
 271 30 310 77 310 135 c 3
 310 200 249 239 180 285 c 0
 105 335 55 380 55 455 c 3
 55 540 135 611 220 611 c 3
-195 611 m 3
 -115 611 -48 550 -48 475 c 3
 -48 420 -95 370 -165 325 c 1
 -190 340 l 1
 -150 375 -123 415 -123 465 c 3
 -123 520 -153 568 -205 568 c 3
 -255 568 -287 530 -287 480 c 3
 -287 420 -234 386 -165 340 c 0
 -90 290 -25 245 -25 155 c 3
 -25 58 -118 -11 -210 -11 c 3
 -300 -11 -377 60 -377 135 c 3
 -377 200 -325 250 -250 300 c 1
 -225 283 l 1
 -270 248 -300 210 -300 150 c 3
 -300 94 -267 31 -202 31 c 3
 -144 31 -105 77 -105 135 c 3
 -105 200 -166 239 -235 285 c 0
 -310 335 -360 380 -360 455 c 3
 -360 540 -280 611 -195 611 c 3
EndSplineSet
Fore
SplineSet
220 611 m 3
 300 611 367 550 367 480 c 3
 367 416 325 370 250 325 c 1
 225 340 l 1
 270 375 290 413 290 465 c 3
 290 520 262 569 210 569 c 3
 163 569 128 530 128 480 c 3
 128 420 181 386 250 340 c 0
 325 290 388 245 388 155 c 3
 388 58 297 -11 205 -11 c 3
 115 -11 39 60 39 135 c 3
 39 204 85 252 165 300 c 1
 190 283 l 1
 142 248 118 210 118 150 c 3
 118 90 153 30 213 30 c 3
 271 30 310 77 310 135 c 3
 310 200 249 239 180 285 c 0
 105 335 55 380 55 455 c 3
 55 540 135 611 220 611 c 3
EndSplineSet
EndChar

StartChar: thorn
Encoding: 254 254 95
Width: 478
Flags: HW
LayerCount: 2
Back
SplineSet
159 315 m 1
 159 345 l 1
 200 375 245 400 295 400 c 3
 380 400 450 315 450 215 c 3
 450 90 355 -10 240 -10 c 3
 180 -10 145 5 85 20 c 9
 159 110 l 17
 159 60 210 30 250 30 c 3
 320 30 375 85 375 185 c 3
 375 275 314 342 239 342 c 3
 214 342 179 327 159 315 c 1
EndSplineSet
Fore
SplineSet
20 -215 m 1
 235 -215 l 1
 235 -250 l 1
 20 -250 l 1
 20 -215 l 1
159 316 m 1
 159 345 l 1
 194 375 245 400 290 400 c 3
 380 400 453 313 453 208 c 3
 453 86 349 -9 242 -9 c 3
 214 -9 179 -4 159 4 c 9
 159 72 l 1
 179 49 214 34 253 34 c 3
 320 34 377 93 377 180 c 3
 377 268 320 342 242 342 c 3
 215 342 184 331 159 316 c 1
31 610 m 1
 149 654 l 1
 159 654 l 1
 159 -230 l 1
 85 -230 l 1
 85 560 l 1
 31 600 l 1
 31 610 l 1
EndSplineSet
EndChar

StartChar: Eth
Encoding: 208 208 96
Width: 675
Flags: HW
LayerCount: 2
Back
SplineSet
35 340 m 1
 285 340 l 1
 285 293 l 1
 35 293 l 1
 35 340 l 1
290 43 m 0
 445 43 542 140 542 295 c 0
 542 460 440 565 270 565 c 1
 220 565 145 561 100 557 c 1
 25 554 l 1
 25 594 l 1
 95 600 207 607 282 607 c 3
 502 607 640 487 640 317 c 0
 640 145 515 0 285 0 c 0
 25 0 l 1
 25 40 l 1
 120 40 l 1
 185 93 l 1
 185 62 204 43 240 43 c 1
 290 43 l 0
185 580 m 1
 185 20 l 1
 100 20 l 1
 100 580 l 1
 185 580 l 1
-420 43 m 0
 -265 43 -168 140 -168 295 c 0
 -168 460 -275 565 -440 565 c 1
 -490 565 -565 561 -610 557 c 1
 -685 554 l 1
 -685 594 l 1
 -615 600 -503 607 -428 607 c 3
 -208 607 -70 487 -70 317 c 0
 -70 145 -193 0 -425 0 c 0
 -685 0 l 1
 -685 40 l 1
 -590 40 l 1
 -525 93 l 1
 -525 62 -506 43 -470 43 c 1
 -420 43 l 0
-525 580 m 1
 -525 20 l 1
 -610 20 l 1
 -610 580 l 1
 -525 580 l 1
EndSplineSet
Fore
SplineSet
35 340 m 1
 290 340 l 1
 290 295 l 1
 35 295 l 1
 35 340 l 1
290 43 m 0
 445 43 542 140 542 295 c 0
 542 460 440 565 270 565 c 1
 220 565 145 561 100 557 c 1
 25 554 l 1
 25 594 l 1
 95 600 207 607 282 607 c 3
 502 607 640 487 640 317 c 0
 640 145 515 0 285 0 c 0
 25 0 l 1
 25 40 l 1
 120 40 l 1
 185 93 l 1
 185 62 204 43 240 43 c 1
 290 43 l 0
185 580 m 1
 185 20 l 1
 100 20 l 1
 100 580 l 1
 185 580 l 1
EndSplineSet
EndChar

StartChar: numbersign
Encoding: 35 35 97
Width: 460
Flags: HW
LayerCount: 2
Back
SplineSet
55 340 m 1
 430 340 l 1
 430 285 l 1
 55 285 l 1
 55 340 l 1
25 150 m 1
 400 150 l 1
 400 95 l 1
 25 95 l 1
 25 150 l 1
235 -40 m 1
 335 470 l 1
 380 470 l 1
 280 -40 l 1
 235 -40 l 1
75 -40 m 1
 175 470 l 1
 220 470 l 1
 120 -40 l 1
 75 -40 l 1
-415 330 m 1
 -35 330 l 1
 -35 275 l 1
 -415 275 l 1
 -415 330 l 1
-455 150 m 1
 -75 150 l 1
 -75 95 l 1
 -455 95 l 1
 -455 150 l 1
-240 -40 m 1
 -140 465 l 1
 -95 465 l 1
 -195 -40 l 1
 -240 -40 l 1
-395 -40 m 1
 -295 465 l 1
 -250 465 l 1
 -350 -40 l 1
 -395 -40 l 1
-890 325 m 1
 -500 325 l 1
 -500 285 l 1
 -890 285 l 1
 -890 325 l 1
-930 135 m 1
 -540 135 l 1
 -540 95 l 1
 -930 95 l 1
 -930 135 l 1
-700 -45 m 1
 -600 465 l 1
 -550 465 l 1
 -650 -45 l 1
 -700 -45 l 1
-880 -45 m 1
 -780 465 l 1
 -730 465 l 1
 -830 -45 l 1
 -880 -45 l 1
EndSplineSet
Fore
SplineSet
45 355 m 1
 445 355 l 1
 445 298 l 1
 45 298 l 1
 45 355 l 1
15 142 m 1
 415 142 l 1
 415 85 l 1
 15 85 l 1
 15 142 l 1
250 -50 m 1
 350 485 l 1
 395 485 l 1
 295 -50 l 1
 250 -50 l 1
65 -50 m 1
 165 485 l 1
 210 485 l 1
 110 -50 l 1
 65 -50 l 1
EndSplineSet
EndChar

StartChar: guilsinglleft
Encoding: 8249 8249 98
Width: 260
Flags: HW
LayerCount: 2
Back
SplineSet
55 375 m 1
 225 215 l 1
 225 185 l 25
 55 25 l 1
 40 55 l 1
 140 200 l 1
 40 345 l 1
 55 375 l 1
EndSplineSet
Fore
SplineSet
205 25 m 1
 20 185 l 1
 20 215 l 25
 205 375 l 1
 222 345 l 1
 110 200 l 1
 222 55 l 1
 205 25 l 1
EndSplineSet
EndChar

StartChar: guilsinglright
Encoding: 8250 8250 99
Width: 260
Flags: HW
LayerCount: 2
Back
SplineSet
50 350 m 1
 230 220 l 1
 230 200 l 25
 50 70 l 1
 40 95 l 1
 160 210 l 1
 40 325 l 1
 50 350 l 1
EndSplineSet
Fore
SplineSet
55 375 m 1
 240 215 l 1
 240 185 l 25
 55 25 l 1
 38 55 l 1
 150 200 l 1
 38 345 l 1
 55 375 l 1
EndSplineSet
EndChar

StartChar: guillemotright
Encoding: 187 187 100
Width: 450
Flags: HW
LayerCount: 2
Back
SplineSet
245 375 m 1
 420 215 l 1
 420 185 l 25
 245 25 l 1
 228 55 l 1
 332 200 l 1
 228 345 l 1
 245 375 l 1
55 375 m 1
 230 215 l 1
 230 185 l 25
 55 25 l 1
 38 55 l 1
 142 200 l 1
 38 345 l 1
 55 375 l 1
-225 375 m 1
 -40 215 l 1
 -40 185 l 25
 -225 25 l 1
 -242 55 l 1
 -130 200 l 1
 -242 345 l 1
 -225 375 l 1
EndSplineSet
Fore
SplineSet
247 373 m 1
 420 215 l 1
 420 185 l 25
 247 27 l 1
 230 57 l 1
 332 200 l 1
 230 343 l 1
 247 373 l 1
55 375 m 1
 230 215 l 1
 230 185 l 25
 55 25 l 1
 38 55 l 1
 142 200 l 1
 38 345 l 1
 55 375 l 1
EndSplineSet
EndChar

StartChar: guillemotleft
Encoding: 171 171 101
Width: 450
Flags: HW
LayerCount: 2
Back
SplineSet
203 27 m 1
 30 185 l 1
 30 215 l 25
 203 373 l 1
 220 343 l 1
 118 200 l 1
 220 57 l 1
 203 27 l 1
395 25 m 1
 220 185 l 1
 220 215 l 25
 395 375 l 1
 412 345 l 1
 308 200 l 1
 412 55 l 1
 395 25 l 1
EndSplineSet
Fore
SplineSet
203 27 m 1
 30 185 l 1
 30 215 l 25
 203 373 l 1
 220 343 l 1
 118 200 l 1
 220 57 l 1
 203 27 l 1
395 25 m 1
 220 185 l 1
 220 215 l 25
 395 375 l 1
 412 345 l 1
 308 200 l 1
 412 55 l 1
 395 25 l 1
EndSplineSet
EndChar

StartChar: question
Encoding: 63 63 102
Width: 355
Flags: HW
LayerCount: 2
Back
SplineSet
424 42 m 0
 424 70 447 93 475 93 c 0
 503 93 526 70 526 42 c 0
 526 14 503 -9 475 -9 c 0
 447 -9 424 14 424 42 c 0
495 257 m 1
 495 170 l 1
 455 170 l 1
 455 335 l 1
 550 338 605 370 605 432 c 0
 605 487 565 537 515 537 c 0
 488 537 473 528 453 528 c 0
 431 528 414 547 414 572 c 0
 414 595 438 612 468 612 c 0
 558 612 665 502 665 402 c 0
 665 324 605 274 495 257 c 1
825 252 m 1
 825 170 l 1
 785 170 l 1
 785 330 l 1
 875 332 935 366 935 430 c 0
 935 485 897 537 845 537 c 0
 818 537 803 528 783 528 c 0
 761 528 744 547 744 572 c 0
 744 595 768 612 798 612 c 0
 893 612 995 502 995 400 c 0
 995 320 935 269 825 252 c 1
825 -238 m 1
 825 -310 l 1
 785 -310 l 1
 785 -160 l 1
 880 -158 942 -125 942 -60 c 0
 942 -5 900 48 850 48 c 0
 823 48 808 38 788 38 c 0
 766 38 749 57 749 82 c 0
 749 105 773 122 803 122 c 0
 898 122 1002 15 1002 -90 c 0
 1002 -172 935 -226 825 -238 c 1
74 42 m 0
 74 70 97 93 125 93 c 0
 153 93 176 70 176 42 c 0
 176 14 153 -9 125 -9 c 0
 97 -9 74 14 74 42 c 0
112 170 m 1
 95 205 80 250 80 285 c 3
 80 320 98 338 143 353 c 2
 173 363 l 2
 233 383 244 402 244 432 c 3
 244 487 200 540 150 540 c 3
 123 540 107 528 87 528 c 3
 65 528 49 548 49 573 c 3
 49 595 73 612 103 612 c 3
 198 612 305 505 305 390 c 3
 305 340 277 315 217 295 c 2
 193 287 l 2
 151 273 137 259 137 230 c 3
 137 210 140 192 144 170 c 9
 112 170 l 1
74 42 m 0
 74 70 97 93 125 93 c 0
 153 93 176 70 176 42 c 0
 176 14 153 -9 125 -9 c 0
 97 -9 74 14 74 42 c 0
-240 170 m 1
 -208 170 l 17
 -212 192 -215 210 -215 230 c 3
 -215 258 -205 272 -159 287 c 2
 -135 295 l 2
 -75 315 -45 340 -45 390 c 3
 -45 505 -152 612 -247 612 c 3
 -277 612 -301 595 -301 573 c 3
 -301 548 -285 528 -263 528 c 3
 -243 528 -227 540 -200 540 c 3
 -150 540 -106 485 -106 430 c 3
 -106 395 -117 380 -177 360 c 2
 -207 350 l 2
 -252 335 -270 315 -270 280 c 3
 -270 245 -255 200 -240 170 c 1
-276 42 m 0
 -276 70 -253 93 -225 93 c 0
 -197 93 -174 70 -174 42 c 0
 -174 14 -197 -9 -225 -9 c 0
 -253 -9 -276 14 -276 42 c 0
-600 170 m 1
 -568 170 l 17
 -572 192 -575 210 -575 230 c 3
 -575 260 -565 272 -519 287 c 2
 -495 295 l 2
 -435 315 -405 340 -405 390 c 3
 -405 505 -515 610 -610 610 c 3
 -640 610 -660 595 -660 575 c 3
 -660 550 -645 530 -625 530 c 3
 -605 530 -587 540 -560 540 c 3
 -510 540 -465 484 -465 429 c 3
 -465 394 -480 375 -540 355 c 2
 -567 346 l 2
 -612 331 -630 315 -630 280 c 3
 -630 245 -615 200 -600 170 c 1
-636 42 m 0
 -636 70 -613 93 -585 93 c 0
 -557 93 -534 70 -534 42 c 0
 -534 14 -557 -9 -585 -9 c 0
 -613 -9 -636 14 -636 42 c 0
-960 170 m 1
 -928 170 l 17
 -932 195 -935 210 -935 235 c 3
 -935 265 -915 275 -855 295 c 0
 -795 315 -760 340 -760 390 c 3
 -760 505 -870 615 -965 615 c 3
 -990 615 -1015 600 -1015 580 c 3
 -1015 555 -1000 535 -980 535 c 3
 -960 535 -942 545 -915 545 c 3
 -865 545 -820 489 -820 429 c 3
 -820 394 -840 375 -900 355 c 0
 -960 335 -990 322 -990 280 c 3
 -990 245 -975 200 -960 170 c 1
-996 42 m 0
 -996 70 -973 93 -945 93 c 0
 -917 93 -894 70 -894 42 c 0
 -894 14 -917 -9 -945 -9 c 0
 -973 -9 -996 14 -996 42 c 0
EndSplineSet
Fore
SplineSet
132 170 m 1
 115 205 100 250 100 285 c 3
 100 320 118 338 163 353 c 2
 193 363 l 2
 253 383 259 402 259 432 c 3
 259 487 215 540 165 540 c 3
 138 540 122 528 102 528 c 3
 80 528 64 548 64 573 c 3
 64 595 88 612 118 612 c 3
 213 612 320 505 320 390 c 3
 320 340 297 315 237 295 c 2
 213 287 l 2
 171 273 157 259 157 230 c 3
 157 210 160 192 164 170 c 9
 132 170 l 1
99 42 m 0
 99 70 122 93 150 93 c 0
 178 93 201 70 201 42 c 0
 201 14 178 -9 150 -9 c 0
 122 -9 99 14 99 42 c 0
EndSplineSet
EndChar

StartChar: percent
Encoding: 37 37 103
Width: 750
Flags: HW
LayerCount: 2
Back
SplineSet
95 455 m 0
 95 397 132 350 190 350 c 0
 248 350 285 397 285 455 c 0
 285 513 248 560 190 560 c 0
 132 560 95 513 95 455 c 0
40 455 m 0
 40 538 107 605 190 605 c 0
 273 605 340 538 340 455 c 0
 340 372 273 305 190 305 c 0
 107 305 40 372 40 455 c 0
465 145 m 0
 465 87 502 40 560 40 c 0
 618 40 655 87 655 145 c 0
 655 203 618 250 560 250 c 0
 502 250 465 203 465 145 c 0
410 145 m 0
 410 228 477 295 560 295 c 0
 643 295 710 228 710 145 c 0
 710 62 643 -5 560 -5 c 0
 477 -5 410 62 410 145 c 0
1120 455 m 0
 1120 538 1187 605 1270 605 c 0
 1353 605 1420 538 1420 455 c 0
 1420 372 1353 305 1270 305 c 0
 1187 305 1120 372 1120 455 c 0
1163 455 m 0
 1163 400 1209 360 1270 360 c 0
 1331 360 1377 400 1377 455 c 0
 1377 510 1331 550 1270 550 c 0
 1209 550 1163 510 1163 455 c 0
110 -30 m 1
 580 630 l 1
 640 630 l 1
 170 -30 l 1
 110 -30 l 1
-284 155 m 0
 -279 82 -243 27 -201 30 c 0
 -159 33 -131 92 -136 165 c 0
 -141 238 -177 293 -219 290 c 0
 -261 287 -289 228 -284 155 c 0
-284 160 m 0
 -284 87 -252 30 -210 30 c 0
 -168 30 -136 87 -136 160 c 0
 -136 233 -168 290 -210 290 c 0
 -252 290 -284 233 -284 160 c 0
823 161 m 0
 823 108 865 60 919 60 c 0
 974 60 1017 103 1017 159 c 0
 1017 212 975 260 921 260 c 0
 866 260 823 217 823 161 c 0
780 160 m 0
 780 254 840 330 920 330 c 0
 1000 330 1060 254 1060 160 c 0
 1060 66 1000 -10 920 -10 c 0
 840 -10 780 66 780 160 c 0
-617 153 m 0
 -613 98 -568 56 -513 60 c 0
 -458 64 -419 112 -423 167 c 0
 -427 222 -472 264 -527 260 c 0
 -582 256 -621 208 -617 153 c 0
-968 161 m 0
 -968 106 -923 61 -868 61 c 0
 -813 61 -768 106 -768 161 c 0
 -768 216 -813 261 -868 261 c 0
 -923 261 -968 216 -968 161 c 0
-1010 160 m 0
 -1010 254 -950 330 -870 330 c 0
 -790 330 -730 254 -730 160 c 0
 -730 66 -790 -10 -870 -10 c 0
 -950 -10 -1010 66 -1010 160 c 0
EndSplineSet
Fore
SplineSet
99 450 m 0
 99 373 132 308 180 308 c 0
 222 308 251 358 251 430 c 0
 251 507 218 572 170 572 c 0
 128 572 99 522 99 450 c 0
30 440 m 0
 30 535 93 610 175 610 c 0
 257 610 320 535 320 440 c 0
 320 345 257 270 175 270 c 0
 93 270 30 345 30 440 c 0
499 170 m 0
 499 93 532 28 580 28 c 0
 622 28 651 78 651 150 c 0
 651 227 618 292 570 292 c 0
 528 292 499 242 499 170 c 0
430 160 m 0
 430 255 493 330 575 330 c 0
 657 330 720 255 720 160 c 0
 720 65 657 -10 575 -10 c 0
 493 -10 430 65 430 160 c 0
120 -40 m 1
 575 640 l 1
 630 640 l 1
 175 -40 l 1
 120 -40 l 1
EndSplineSet
EndChar

StartChar: ampersand
Encoding: 38 38 104
Width: 690
Flags: HW
LayerCount: 2
Back
SplineSet
435 390 m 1
 615 390 l 1
 615 355 l 1
 435 355 l 1
 435 390 l 1
505 370 m 1
 560 370 l 1
 523 290 477 215 420 145 c 1
 388 170 l 1
 438 235 480 305 505 370 c 1
175 -10 m 3
 80 -10 5 70 5 160 c 3
 5 235 50 283 130 330 c 1
 155 308 l 1
 105 276 78 235 78 185 c 3
 78 120 135 55 200 55 c 3
 262 55 305 80 345 125 c 1
 375 100 l 17
 323 35 260 -10 175 -10 c 3
420 155 m 18
 470 108 520 57 570 57 c 3
 595 57 615 63 635 75 c 1
 655 55 l 1
 620 15 570 -10 520 -10 c 3
 450 -10 410 53 360 100 c 10
 160 300 l 18
 95 359 65 405 65 465 c 3
 65 545 135 611 215 611 c 3
 285 611 350 553 350 488 c 3
 350 423 297 377 227 342 c 1
 202 362 l 1
 247 394 275 425 275 475 c 3
 275 530 247 570 205 570 c 3
 167 570 135 535 135 490 c 3
 135 445 160 410 220 355 c 10
 420 155 l 18
-235 390 m 1
 -55 390 l 1
 -55 355 l 1
 -235 355 l 1
 -235 390 l 1
-160 370 m 1
 -110 370 l 1
 -147 290 -193 215 -250 145 c 1
 -278 170 l 1
 -228 235 -185 305 -160 370 c 1
-490 -10 m 3
 -580 -10 -655 70 -655 155 c 3
 -655 230 -610 280 -535 330 c 1
 -510 308 l 1
 -555 273 -582 235 -582 180 c 3
 -582 115 -530 54 -465 54 c 3
 -403 54 -355 75 -315 125 c 1
 -290 100 l 17
 -342 35 -405 -10 -490 -10 c 3
-250 155 m 18
 -200 108 -150 57 -100 57 c 3
 -75 57 -55 63 -35 75 c 1
 -15 55 l 1
 -50 15 -100 -10 -150 -10 c 3
 -220 -10 -260 53 -310 100 c 10
 -510 300 l 18
 -575 359 -605 405 -605 465 c 3
 -605 545 -535 611 -455 611 c 3
 -385 611 -320 553 -320 488 c 3
 -320 423 -368 380 -440 340 c 1
 -465 360 l 1
 -418 395 -395 425 -395 475 c 3
 -395 530 -423 569 -465 569 c 3
 -505 569 -535 535 -535 490 c 3
 -535 445 -510 410 -450 355 c 10
 -250 155 l 18
-940 390 m 1
 -760 390 l 1
 -760 355 l 1
 -940 355 l 1
 -940 390 l 1
-865 375 m 1
 -815 375 l 1
 -852 295 -898 220 -955 150 c 1
 -983 175 l 1
 -933 240 -890 310 -865 375 c 1
-1200 -10 m 3
 -1290 -10 -1360 70 -1360 145 c 3
 -1360 220 -1315 275 -1240 325 c 1
 -1215 308 l 1
 -1260 273 -1285 230 -1285 170 c 3
 -1285 105 -1230 55 -1170 55 c 3
 -1105 55 -1065 75 -1025 125 c 1
 -1000 100 l 17
 -1055 30 -1110 -10 -1200 -10 c 3
-950 155 m 18
 -900 108 -860 57 -810 57 c 3
 -785 57 -765 63 -745 75 c 1
 -725 55 l 1
 -760 15 -810 -10 -860 -10 c 3
 -930 -10 -960 53 -1010 100 c 10
 -1220 300 l 18
 -1285 359 -1315 405 -1315 465 c 3
 -1315 545 -1245 611 -1165 611 c 3
 -1095 611 -1030 555 -1030 490 c 3
 -1030 430 -1075 385 -1145 340 c 1
 -1170 355 l 1
 -1130 390 -1105 425 -1105 475 c 3
 -1105 530 -1133 569 -1175 569 c 3
 -1215 569 -1245 535 -1245 490 c 3
 -1245 445 -1220 410 -1160 355 c 10
 -950 155 l 18
EndSplineSet
Fore
SplineSet
460 390 m 1
 640 390 l 1
 640 355 l 1
 460 355 l 1
 460 390 l 1
530 370 m 1
 585 370 l 1
 548 290 502 215 445 145 c 1
 413 170 l 1
 463 235 505 305 530 370 c 1
205 -10 m 3
 110 -10 35 70 35 165 c 3
 35 245 80 285 160 330 c 1
 185 308 l 1
 135 278 110 240 110 190 c 3
 110 120 168 57 235 57 c 3
 290 57 335 80 375 125 c 1
 405 100 l 17
 353 35 290 -10 205 -10 c 3
450 155 m 18
 500 108 550 57 600 57 c 3
 625 57 645 63 665 75 c 1
 685 55 l 1
 650 15 600 -10 550 -10 c 3
 480 -10 440 53 390 100 c 10
 190 300 l 18
 125 359 95 405 95 465 c 3
 95 545 165 611 245 611 c 3
 315 611 380 553 380 488 c 3
 380 423 327 377 257 342 c 1
 232 362 l 1
 277 394 305 425 305 475 c 3
 305 530 277 570 235 570 c 3
 197 570 165 535 165 490 c 3
 165 445 190 410 250 355 c 10
 450 155 l 18
EndSplineSet
EndChar

StartChar: asterisk
Encoding: 42 42 105
Width: 370
Flags: HW
LayerCount: 2
Back
SplineSet
286.624023438 307.233398438 m 0
 269.633789062 294.890625 247.873046875 297.620117188 236.118164062 313.801757812 c 0
 223.186523438 331.599609375 206.956054688 369.250976562 185 424.990234375 c 1
 206.034179688 440.272460938 l 1
 252.260742188 402.166992188 283.053710938 375.095703125 295.984375 357.297851562 c 0
 307.741210938 341.1171875 303.61328125 319.577148438 286.624023438 307.233398438 c 0
349.430664062 500.534179688 m 0
 355.919921875 480.561523438 346.598632812 460.708984375 327.577148438 454.529296875 c 0
 306.654296875 447.73046875 265.830078125 443.9296875 206.034179688 440.272460938 c 1
 198 465 l 1
 248.525390625 497.188476562 283.787109375 518.109375 304.709960938 524.907226562 c 0
 323.731445312 531.087890625 342.94140625 520.505859375 349.430664062 500.534179688 c 0
83.3759765625 307.233398438 m 0
 66.38671875 319.577148438 62.2587890625 341.1171875 74.015625 357.297851562 c 0
 86.9462890625 375.095703125 117.739257812 402.166992188 163.965820312 440.272460938 c 1
 185 424.990234375 l 1
 163.043945312 369.250976562 146.813476562 331.599609375 133.881835938 313.801757812 c 0
 122.126953125 297.620117188 100.366210938 294.890625 83.3759765625 307.233398438 c 0
20.5693359375 500.534179688 m 0
 27.05859375 520.505859375 46.2685546875 531.087890625 65.2900390625 524.907226562 c 0
 86.212890625 518.109375 121.474609375 497.188476562 172 465 c 1
 163.965820312 440.272460938 l 1
 104.169921875 443.9296875 63.345703125 447.73046875 42.4228515625 454.529296875 c 0
 23.4013671875 460.708984375 14.080078125 480.561523438 20.5693359375 500.534179688 c 0
185 620 m 0
 206 620 222 605 222 585 c 0
 222 563 213 523 198 465 c 1
 172 465 l 1
 157 523 148 563 148 585 c 0
 148 605 164 620 185 620 c 0
-285.814453125 309.723632812 m 0
 -302.803710938 322.067382812 -306.931640625 343.606445312 -295.174804688 359.787109375 c 0
 -282.244140625 377.5859375 -250.642578125 404.068359375 -204.416015625 442.174804688 c 1
 -184.999023438 428.068359375 l 1
 -206.956054688 372.328125 -222.376953125 334.088867188 -235.30859375 316.291015625 c 0
 -247.063476562 300.110351562 -268.82421875 297.379882812 -285.814453125 309.723632812 c 0
-348.122070312 501.485351562 m 0
 -341.6328125 521.45703125 -322.422851562 532.0390625 -303.401367188 525.858398438 c 0
 -282.478515625 519.060546875 -247.526367188 497.188476562 -197 465 c 1
 -204.416015625 442.174804688 l 1
 -264.212890625 445.83203125 -305.345703125 448.681640625 -326.268554688 455.48046875 c 0
 -345.290039062 461.66015625 -354.611328125 481.512695312 -348.122070312 501.485351562 c 0
-84.185546875 309.723632812 m 0
 -101.17578125 297.379882812 -122.936523438 300.110351562 -134.69140625 316.291015625 c 0
 -147.623046875 334.088867188 -163.043945312 372.328125 -185.000976562 428.068359375 c 1
 -165.583984375 442.174804688 l 1
 -119.357421875 404.068359375 -87.755859375 377.5859375 -74.8251953125 359.787109375 c 0
 -63.068359375 343.606445312 -67.1962890625 322.067382812 -84.185546875 309.723632812 c 0
-21.8779296875 501.485351562 m 0
 -15.388671875 481.512695312 -24.7099609375 461.66015625 -43.7314453125 455.48046875 c 0
 -64.654296875 448.681640625 -105.787109375 445.83203125 -165.583984375 442.174804688 c 1
 -173 465 l 1
 -122.473632812 497.188476562 -87.521484375 519.060546875 -66.5986328125 525.858398438 c 0
 -47.5771484375 532.0390625 -28.3671875 521.45703125 -21.8779296875 501.485351562 c 0
-185 620 m 0
 -164 620 -148 605 -148 585 c 0
 -148 563 -158 523 -173 465 c 1
 -197 465 l 1
 -212 523 -222 563 -222 585 c 0
 -222 605 -206 620 -185 620 c 0
-675.814453125 309.723632812 m 0
 -691.994140625 321.479492188 -695.313476562 342.431640625 -683.557617188 358.611328125 c 0
 -670.625976562 376.411132812 -640.642578125 404.068359375 -594.416015625 442.174804688 c 1
 -575 428.068359375 l 1
 -596.956054688 372.328125 -613.995117188 335.264648438 -626.926757812 317.466796875 c 0
 -638.681640625 301.286132812 -659.633789062 297.967773438 -675.814453125 309.723632812 c 0
-738.122070312 501.485351562 m 0
 -731.94140625 520.505859375 -713.040039062 530.13671875 -694.01953125 523.956054688 c 0
 -673.095703125 517.158203125 -637.526367188 497.188476562 -587 465 c 1
 -594.416015625 442.174804688 l 1
 -654.212890625 445.83203125 -694.727539062 450.583984375 -715.650390625 457.3828125 c 0
 -734.671875 463.5625 -744.302734375 482.463867188 -738.122070312 501.485351562 c 0
-474.185546875 309.723632812 m 0
 -490.366210938 297.967773438 -511.318359375 301.286132812 -523.073242188 317.466796875 c 0
 -536.004882812 335.264648438 -553.043945312 372.328125 -575 428.068359375 c 1
 -555.583984375 442.174804688 l 1
 -509.357421875 404.068359375 -479.374023438 376.411132812 -466.442382812 358.611328125 c 0
 -454.686523438 342.431640625 -458.005859375 321.479492188 -474.185546875 309.723632812 c 0
-411.877929688 501.485351562 m 0
 -405.697265625 482.463867188 -415.328125 463.5625 -434.349609375 457.3828125 c 0
 -455.272460938 450.583984375 -495.787109375 445.83203125 -555.583984375 442.174804688 c 1
 -563 465 l 1
 -512.473632812 497.188476562 -476.904296875 517.158203125 -455.98046875 523.956054688 c 0
 -436.959960938 530.13671875 -418.05859375 520.505859375 -411.877929688 501.485351562 c 0
-575 620 m 0
 -555 620 -540 605 -540 585 c 0
 -540 563 -548 523 -563 465 c 1
 -587 465 l 1
 -602 523 -610 563 -610 585 c 0
 -610 605 -595 620 -575 620 c 0
-1034.19628906 314.704101562 m 0
 -1050.37597656 326.459960938 -1053.83984375 343.809570312 -1042.08496094 359.990234375 c 0
 -1027.38964844 380.215820312 -998.581054688 406.255859375 -951.1796875 445.979492188 c 1
 -934.999023438 434.224609375 l 1
 -958.130859375 376.866210938 -973.995117188 341.421875 -988.689453125 321.196289062 c 0
 -1000.4453125 305.015625 -1018.015625 302.948242188 -1034.19628906 314.704101562 c 0
-1095.50390625 503.387695312 m 0
 -1089.32324219 522.408203125 -1073.89355469 531.063476562 -1054.87207031 524.883789062 c 0
 -1031.09570312 517.158203125 -997.427734375 497.806640625 -945 465 c 1
 -951.1796875 445.979492188 l 1
 -1012.87890625 450.25390625 -1051.49121094 454.388671875 -1075.26757812 462.114257812 c 0
 -1094.2890625 468.293945312 -1101.68457031 484.366210938 -1095.50390625 503.387695312 c 0
-835.803710938 314.704101562 m 0
 -851.984375 302.948242188 -869.5546875 305.015625 -881.310546875 321.196289062 c 0
 -896.004882812 341.421875 -911.869140625 376.866210938 -935.000976562 434.224609375 c 1
 -918.8203125 445.979492188 l 1
 -871.418945312 406.255859375 -842.610351562 380.215820312 -827.915039062 359.990234375 c 0
 -816.16015625 343.809570312 -819.624023438 326.459960938 -835.803710938 314.704101562 c 0
-774.49609375 503.387695312 m 0
 -768.315429688 484.366210938 -775.7109375 468.293945312 -794.732421875 462.114257812 c 0
 -818.508789062 454.388671875 -857.12109375 450.25390625 -918.8203125 445.979492188 c 1
 -925 465 l 1
 -872.572265625 497.806640625 -838.904296875 517.158203125 -815.127929688 524.883789062 c 0
 -796.106445312 531.063476562 -780.676757812 522.408203125 -774.49609375 503.387695312 c 0
-935 620 m 0
 -915 620 -902 608 -902 588 c 0
 -902 563 -910 525 -925 465 c 1
 -945 465 l 1
 -960 525 -968 563 -968 588 c 0
 -968 608 -955 620 -935 620 c 0
EndSplineSet
Fore
SplineSet
185 425 m 1
 163 369 147 332 134 314 c 0
 126 303 117 300 105 300 c 0
 87 300 67 317 67 337 c 0
 67 361 94 381 164 440 c 1
 104 444 63 448 42 455 c 0
 27 460 19 472 19 488 c 0
 19 511 36 527 54 527 c 0
 74 527 121 497 172 465 c 1
 157 523 148 563 148 585 c 0
 148 605 164 620 185 620 c 0
 206 620 222 605 222 585 c 0
 222 563 213 523 198 465 c 1
 249 497 296 527 316 527 c 0
 334 527 351 511 351 488 c 0
 351 472 343 460 328 455 c 0
 307 448 266 444 206 440 c 1
 276 381 303 361 303 337 c 0
 303 317 283 300 265 300 c 0
 253 300 244 303 236 314 c 0
 223 332 207 369 185 425 c 1
EndSplineSet
EndChar

StartChar: uni00B2
Encoding: 178 178 106
Width: 350
Flags: HW
LayerCount: 2
Back
SplineSet
220 270 m 3
 220 307 195 335 165 335 c 3
 135 335 109 310 95 285 c 1
 70 307 l 1
 95 352 140 390 195 390 c 3
 250 390 295 345 295 290 c 3
 295 230 250 193 150 118 c 1
 265 118 l 1
 285 118 295 125 305 165 c 1
 335 165 l 1
 320 60 l 1
 65 60 l 1
 65 90 l 1
 165 170 220 210 220 270 c 3
-150 270 m 3
 -150 307 -175 335 -205 335 c 3
 -235 335 -261 310 -275 285 c 1
 -300 307 l 1
 -275 352 -230 390 -175 390 c 3
 -120 390 -75 345 -75 290 c 3
 -75 220 -120 173 -240 68 c 1
 -100 68 l 1
 -80 68 -70 75 -60 115 c 1
 -30 115 l 1
 -45 10 l 1
 -325 10 l 1
 -325 40 l 1
 -205 150 -150 200 -150 270 c 3
99 450 m 0
 99 373 132 308 180 308 c 0
 222 308 251 358 251 430 c 0
 251 507 218 572 170 572 c 0
 128 572 99 522 99 450 c 0
30 440 m 0
 30 535 93 610 175 610 c 0
 257 610 320 535 320 440 c 0
 320 345 257 270 175 270 c 0
 93 270 30 345 30 440 c 0
EndSplineSet
Fore
SplineSet
200 495 m 3
 200 532 175 558 145 558 c 3
 115 558 92 538 77 513 c 1
 55 535 l 1
 78 577 118 610 170 610 c 3
 222 610 268 567 268 512 c 3
 268 452 227 410 130 335 c 1
 235 335 l 1
 255 335 265 342 275 382 c 1
 305 382 l 1
 290 280 l 1
 45 280 l 1
 45 308 l 1
 145 390 200 435 200 495 c 3
EndSplineSet
EndChar

StartChar: uni00B9
Encoding: 185 185 107
Width: 350
Flags: HW
LayerCount: 2
Back
SplineSet
70 316 m 1
 292 316 l 1
 292 280 l 1
 70 280 l 1
 70 316 l 1
76 565 m 1
 205 614 l 1
 215 614 l 1
 215 300 l 1
 150 300 l 1
 150 540 l 1
 76 538 l 1
 76 565 l 1
EndSplineSet
Fore
SplineSet
73 316 m 1
 290 316 l 1
 290 280 l 1
 73 280 l 1
 73 316 l 1
76 565 m 1
 204 614 l 1
 214 614 l 1
 214 300 l 1
 152 300 l 1
 152 540 l 1
 76 538 l 1
 76 565 l 1
EndSplineSet
EndChar

StartChar: uni00B3
Encoding: 179 179 108
Width: 350
Flags: HW
LayerCount: 2
Back
SplineSet
132 422 m 1
 124 450 l 1
 186 468 200 490 200 520 c 0
 200 542 179 564 152 564 c 0
 127 564 105 545 93 525 c 1
 70 545 l 1
 92 580 125 610 175 610 c 0
 222 610 260 578 260 538 c 0
 260 510 240 480 205 465 c 1
 255 464 287 430 287 390 c 0
 287 315 205 263 90 255 c 1
 85 283 l 1
 170 293 220 330 220 380 c 0
 220 410 197 432 170 432 c 0
 158 432 143 427 132 422 c 1
-180 425 m 1
 -185 450 l 1
 -120 470 -108 490 -108 520 c 0
 -108 542 -129 564 -156 564 c 0
 -181 564 -206 545 -218 525 c 1
 -238 545 l 1
 -216 582 -185 610 -135 610 c 0
 -90 610 -48 577 -48 537 c 0
 -48 512 -70 483 -105 465 c 1
 -60 465 -25 430 -25 390 c 0
 -25 315 -105 263 -220 255 c 1
 -225 280 l 1
 -140 290 -88 330 -88 380 c 0
 -88 415 -111 435 -143 435 c 0
 -155 435 -170 431 -180 425 c 1
-535 425 m 1
 -540 450 l 1
 -475 475 -460 490 -460 520 c 0
 -460 542 -481 560 -508 560 c 0
 -533 560 -558 543 -570 525 c 1
 -591 545 l 1
 -569 580 -535 610 -485 610 c 0
 -440 610 -398 575 -398 535 c 0
 -398 510 -420 485 -455 465 c 1
 -410 465 -370 430 -370 390 c 0
 -370 310 -450 263 -570 255 c 1
 -575 280 l 1
 -485 290 -430 320 -430 380 c 0
 -430 415 -457 435 -499 435 c 0
 -511 435 -525 431 -535 425 c 1
540 495 m 3
 540 532 515 558 485 558 c 3
 455 558 432 538 417 513 c 1
 395 535 l 1
 418 577 458 610 510 610 c 3
 562 610 608 567 608 512 c 3
 608 452 567 410 470 335 c 1
 575 335 l 1
 595 335 605 342 615 382 c 1
 645 382 l 1
 630 280 l 1
 385 280 l 1
 385 308 l 1
 485 390 540 435 540 495 c 3
-535 425 m 1
 -540 450 l 1
 -475 475 -460 490 -460 520 c 0
 -460 542 -481 560 -508 560 c 0
 -533 560 -558 543 -570 525 c 1
 -591 545 l 1
 -569 580 -535 610 -485 610 c 0
 -440 610 -398 575 -398 535 c 0
 -398 510 -420 485 -455 465 c 1
 -410 465 -370 430 -370 390 c 0
 -370 310 -450 263 -570 255 c 1
 -575 280 l 1
 -485 290 -430 320 -430 380 c 0
 -430 415 -457 435 -499 435 c 0
 -511 435 -525 431 -535 425 c 1
EndSplineSet
Fore
SplineSet
132 422 m 1
 124 450 l 1
 184 468 200 492 200 520 c 0
 200 542 179 564 154 564 c 0
 127 564 105 545 93 525 c 1
 70 545 l 1
 92 580 125 610 175 610 c 0
 222 610 260 578 260 538 c 0
 260 510 240 480 205 465 c 1
 255 464 288 430 288 390 c 0
 288 316 200 265 90 260 c 1
 85 289 l 1
 170 297 218 334 218 382 c 0
 218 412 195 432 170 432 c 0
 158 432 143 427 132 422 c 1
EndSplineSet
EndChar

StartChar: plus
Encoding: 43 43 109
Width: 400
Flags: HW
LayerCount: 2
Back
SplineSet
24 204 m 0
 24 301 103 380 200 380 c 0
 297 380 376 301 376 204 c 0
 376 107 297 28 200 28 c 0
 103 28 24 107 24 204 c 0
10 -40 m 1
 275 640 l 1
 330 640 l 1
 65 -40 l 1
 10 -40 l 1
EndSplineSet
Fore
SplineSet
225 380 m 1
 225 30 l 1
 175 30 l 1
 175 380 l 1
 225 380 l 1
25 230 m 1
 375 230 l 1
 375 180 l 1
 25 180 l 1
 25 230 l 1
EndSplineSet
EndChar

StartChar: equal
Encoding: 61 61 110
Width: 400
Flags: HW
LayerCount: 2
Back
SplineSet
24 204 m 0
 24 301 103 380 200 380 c 0
 297 380 376 301 376 204 c 0
 376 107 297 28 200 28 c 0
 103 28 24 107 24 204 c 0
225 380 m 1
 225 30 l 1
 175 30 l 1
 175 380 l 1
 225 380 l 1
25 230 m 1
 375 230 l 1
 375 180 l 1
 25 180 l 1
 25 230 l 1
EndSplineSet
Fore
SplineSet
30 150 m 1
 370 150 l 1
 370 100 l 1
 30 100 l 1
 30 150 l 1
30 310 m 1
 370 310 l 1
 370 260 l 1
 30 260 l 1
 30 310 l 1
EndSplineSet
EndChar

StartChar: less
Encoding: 60 60 111
Width: 400
Flags: HW
LayerCount: 2
Back
SplineSet
45 225 m 1
 365 110 l 1
 365 55 l 1
 30 180 l 1
 30 230 l 1
 45 225 l 1
30 230 m 1
 365 355 l 1
 365 300 l 1
 45 185 l 1
 30 180 l 1
 30 230 l 1
225 380 m 1
 225 30 l 1
 175 30 l 1
 175 380 l 1
 225 380 l 1
25 230 m 1
 375 230 l 1
 375 180 l 1
 25 180 l 1
 25 230 l 1
35 150 m 1
 365 150 l 1
 365 100 l 1
 35 100 l 1
 35 150 l 1
35 310 m 1
 365 310 l 1
 365 260 l 1
 35 260 l 1
 35 310 l 1
EndSplineSet
Fore
SplineSet
96 215 m 1
 370 100 l 1
 370 45 l 1
 25 190 l 1
 25 220 l 1
 96 215 l 1
25 220 m 1
 370 365 l 1
 370 310 l 1
 96 195 l 1
 25 190 l 1
 25 220 l 1
EndSplineSet
EndChar

StartChar: greater
Encoding: 62 62 112
Width: 400
Flags: HW
LayerCount: 2
Back
SplineSet
302 195 m 1
 35 305 l 1
 35 360 l 1
 375 220 l 1
 375 190 l 1
 302 195 l 1
375 190 m 1
 35 50 l 1
 35 105 l 1
 302 215 l 1
 375 220 l 1
 375 190 l 1
-100 195 m 1
 -365 303 l 1
 -365 360 l 1
 -25 220 l 1
 -25 190 l 1
 -100 195 l 1
-25 190 m 1
 -365 50 l 1
 -365 107 l 1
 -100 215 l 1
 -25 220 l 1
 -25 190 l 1
-530 195 m 1
 -795 295 l 1
 -795 350 l 1
 -460 220 l 1
 -460 190 l 1
 -530 195 l 1
-460 190 m 1
 -795 60 l 1
 -795 115 l 1
 -530 215 l 1
 -460 220 l 1
 -460 190 l 1
EndSplineSet
Fore
SplineSet
304 195 m 1
 30 310 l 1
 30 365 l 1
 375 220 l 1
 375 190 l 1
 304 195 l 1
375 190 m 1
 30 45 l 1
 30 100 l 1
 304 215 l 1
 375 220 l 1
 375 190 l 1
EndSplineSet
EndChar

StartChar: underscore
Encoding: 95 95 113
Width: 450
Flags: HW
LayerCount: 2
Fore
SplineSet
-5 -80 m 1
 455 -80 l 1
 455 -130 l 1
 -5 -130 l 1
 -5 -80 l 1
EndSplineSet
EndChar

StartChar: dollar
Encoding: 36 36 114
Width: 420
Flags: HW
LayerCount: 2
Back
SplineSet
45 453 m 1
 45 531 119 600 211 600 c 1
 256 600 301 588 333 570 c 1
 344 465 l 1
 309 465 l 17
 303 487 l 2
 292 529 259 565 207 565 c 1
 154 565 115 528 115 483 c 1
 115 440 128 414 217 360 c 0
 338 286 375 237 375 170 c 1
 375 79 295 0 190 0 c 1
 140 0 96 10 59 32 c 1
 45 150 l 1
 80 150 l 25
 89 120 l 2
 104 70 135 36 200 36 c 1
 257 36 302 82 302 142 c 1
 302 192 278 220 180 280 c 0
 66 350 45 391 45 453 c 1
180 -40 m 1
 180 640 l 1
 220 640 l 1
 220 -40 l 1
 180 -40 l 1
-230 -40 m 1
 -230 640 l 1
 -190 640 l 1
 -190 -40 l 1
 -230 -40 l 1
-215 0 m 1
 -310 0 -370 38 -370 78 c 3
 -370 100 -355 113 -335 113 c 3
 -300 113 -298 35 -213 35 c 3
 -158 35 -105 80 -105 142 c 1
 -105 192 -131 234 -235 283 c 0
 -340 332 -375 391 -375 455 c 1
 -375 532 -302 600 -210 600 c 1
 -115 600 -60 560 -60 525 c 3
 -60 503 -75 490 -95 490 c 3
 -130 490 -127 565 -212 565 c 3
 -263 565 -305 528 -305 485 c 1
 -305 440 -289 405 -190 357 c 0
 -70 299 -35 237 -35 165 c 1
 -35 74 -115 0 -215 0 c 1
845 446 m 1
 841 523 911 597 1003 602 c 1
 1049 604 1100 593 1133 573 c 1
 1144 464 l 1
 1109 462 l 17
 1101 492 l 2
 1091 535 1052 568 1000 565 c 1
 949 562 913 524 915 481 c 1
 917 438 935 412 1029 355 c 0
 1141 287 1171 246 1175 179 c 1
 1180 88 1102 4 1002 -1 c 1
 951 -4 900 4 860 28 c 1
 843 150 l 1
 877 152 l 25
 891 112 l 2
 906 65 946 33 1005 36 c 1
 1060 39 1103 85 1100 147 c 1
 1097 195 1068 222 972 282 c 0
 872 344 848 384 845 446 c 1
980 -40 m 1
 980 640 l 1
 1020 640 l 1
 1020 -40 l 1
 980 -40 l 1
590 -40 m 1
 628 640 l 1
 670 640 l 1
 632 -40 l 1
 590 -40 l 1
-660 -40 m 1
 -660 640 l 1
 -620 640 l 1
 -620 -40 l 1
 -660 -40 l 1
-650 0 m 1
 -745 0 -805 38 -805 78 c 3
 -805 100 -790 113 -770 113 c 3
 -735 113 -733 35 -648 35 c 3
 -593 35 -540 80 -540 142 c 1
 -540 190 -569 231 -670 285 c 0
 -772 340 -805 393 -805 455 c 1
 -805 532 -732 600 -640 600 c 1
 -545 600 -490 560 -490 525 c 3
 -490 503 -505 490 -525 490 c 3
 -560 490 -557 565 -642 565 c 3
 -693 565 -735 528 -735 485 c 1
 -735 442 -714 406 -618 353 c 0
 -501 288 -470 235 -470 165 c 1
 -470 74 -550 0 -650 0 c 1
-1090 0 m 1
 -1175 -3 -1236 27 -1237 62 c 0
 -1238 84 -1223 98 -1203 99 c 0
 -1168 100 -1159 33 -1089 35 c 0
 -1034 37 -983 83 -985 145 c 1
 -987 193 -1018 226 -1113 283 c 0
 -1214 344 -1238 388 -1240 450 c 1
 -1243 527 -1172 597 -1080 600 c 1
 -995 603 -939 572 -938 540 c 0
 -937 518 -952 505 -972 504 c 0
 -1004 503 -1008 568 -1081 565 c 0
 -1132 563 -1173 525 -1171 482 c 1
 -1169 439 -1153 408 -1060 354 c 0
 -947 289 -917 241 -915 171 c 1
 -912 80 -990 3 -1090 0 c 1
483 454 m 1
 483 531 557 601 649 601 c 1
 695 601 745 588 777 566 c 1
 782 456 l 1
 747 456 l 17
 741 487 l 2
 733 530 696 565 644 565 c 1
 593 565 555 528 555 485 c 1
 555 442 571 415 662 353 c 0
 770 279 798 237 798 170 c 1
 798 79 716 -1 616 -1 c 1
 565 -1 515 10 476 36 c 1
 465 159 l 1
 499 159 l 25
 511 118 l 2
 524 70 562 36 621 36 c 1
 676 36 722 80 722 142 c 1
 722 190 694 219 601 284 c 0
 504 351 483 392 483 454 c 1
EndSplineSet
Fore
SplineSet
45 453 m 1
 45 531 119 600 211 600 c 1
 256 600 301 588 333 570 c 1
 344 465 l 1
 309 465 l 17
 303 487 l 2
 292 529 259 565 207 565 c 1
 154 565 115 528 115 483 c 1
 115 440 130 414 222 358 c 0
 340 286 375 240 375 170 c 1
 375 79 295 0 190 0 c 1
 140 0 96 10 59 32 c 1
 45 150 l 1
 80 150 l 25
 89 120 l 2
 104 70 135 36 200 36 c 1
 257 36 302 82 302 142 c 1
 302 189 277 217 182 275 c 0
 68 345 45 388 45 453 c 1
183 -40 m 1
 183 640 l 1
 223 640 l 1
 223 -40 l 1
 183 -40 l 1
EndSplineSet
EndChar

StartChar: onehalf
Encoding: 189 189 115
Width: 750
Flags: HW
LayerCount: 2
Fore
SplineSet
120 -40 m 1
 575 640 l 1
 630 640 l 1
 175 -40 l 1
 120 -40 l 1
EndSplineSet
Refer: 106 178 N 1 0 0 1 400 -280 2
Refer: 107 185 N 1 0 0 1 0 0 2
EndChar

StartChar: onequarter
Encoding: 188 188 116
Width: 750
Flags: HW
LayerCount: 2
Back
SplineSet
425 100 m 1
 620 330 l 25
 645 330 l 1
 645 -20 l 1
 583 -20 l 1
 583 240 l 1
 485 125 l 1
 715 125 l 1
 715 75 l 1
 425 75 l 1
 425 100 l 1
600 215 m 3
 600 252 575 278 545 278 c 3
 515 278 492 258 477 233 c 1
 455 255 l 1
 478 297 518 330 570 330 c 3
 622 330 668 287 668 232 c 3
 668 172 627 130 530 55 c 1
 635 55 l 1
 655 55 665 62 675 102 c 1
 705 102 l 1
 690 0 l 1
 445 0 l 1
 445 28 l 1
 545 110 600 155 600 215 c 3
EndSplineSet
Fore
SplineSet
435 113 m 1
 620 335 l 25
 645 335 l 1
 645 -5 l 1
 585 -5 l 1
 585 235 l 1
 500 135 l 1
 715 135 l 1
 715 85 l 1
 435 85 l 1
 435 113 l 1
120 -40 m 1
 575 640 l 1
 630 640 l 1
 175 -40 l 1
 120 -40 l 1
EndSplineSet
Refer: 107 185 N 1 0 0 1 0 0 2
EndChar

StartChar: bar
Encoding: 124 124 117
Width: 215
Flags: HW
LayerCount: 2
Fore
SplineSet
80 -240 m 1
 80 640 l 1
 135 640 l 1
 135 -240 l 1
 80 -240 l 1
EndSplineSet
EndChar

StartChar: plusminus
Encoding: 177 177 118
Width: 400
Flags: HW
LayerCount: 2
Back
SplineSet
225 380 m 1
 225 30 l 1
 175 30 l 1
 175 380 l 1
 225 380 l 1
25 230 m 1
 375 230 l 1
 375 180 l 1
 25 180 l 1
 25 230 l 1
EndSplineSet
Fore
SplineSet
25 90 m 1
 375 90 l 1
 375 40 l 1
 25 40 l 1
 25 90 l 1
225 390 m 1
 225 140 l 1
 175 140 l 1
 175 390 l 1
 225 390 l 1
30 290 m 1
 370 290 l 1
 370 240 l 1
 30 240 l 1
 30 290 l 1
EndSplineSet
EndChar

StartChar: brokenbar
Encoding: 166 166 119
Width: 215
Flags: HW
LayerCount: 2
Back
SplineSet
80 -240 m 1
 80 640 l 1
 135 640 l 1
 135 -240 l 1
 80 -240 l 1
EndSplineSet
Fore
SplineSet
80 260 m 1
 80 640 l 1
 135 640 l 1
 135 260 l 1
 80 260 l 1
80 -240 m 1
 80 140 l 1
 135 140 l 1
 135 -240 l 1
 80 -240 l 1
EndSplineSet
EndChar

StartChar: periodcentered
Encoding: 183 183 120
Width: 240
Flags: HW
LayerCount: 2
Back
SplineSet
62 215 m 0
 62 247 88 273 120 273 c 0
 152 273 178 247 178 215 c 0
 178 183 152 157 120 157 c 0
 88 157 62 183 62 215 c 0
EndSplineSet
Fore
Refer: 12 46 N 1 0 0 1 0 170 2
EndChar

StartChar: exclamdown
Encoding: 161 161 121
Width: 280
Flags: HW
LayerCount: 2
Back
SplineSet
89 42 m 0
 89 70 112 93 140 93 c 0
 168 93 191 70 191 42 c 0
 191 14 168 -9 140 -9 c 0
 112 -9 89 14 89 42 c 0
150 620 m 17
 175 620 190 607 190 585 c 1
 190 545 172 340 157 170 c 9
 123 170 l 1
 108 340 90 545 90 585 c 1
 90 607 105 620 130 620 c 9
 150 620 l 17
EndSplineSet
Fore
Refer: 53 33 N -1 0 0 -1 280 389 2
EndChar

StartChar: cent
Encoding: 162 162 122
Width: 420
Flags: HW
LayerCount: 2
Back
SplineSet
285 325 m 0
 269 344 250 354 220 354 c 3
 162 354 115 298 115 218 c 3
 115 128 181 57 255 57 c 3
 297 57 332 75 355 107 c 1
 377 90 l 1
 347 33 292 -10 220 -10 c 3
 125 -10 45 75 45 182 c 3
 45 307 140 400 245 400 c 3
 320 400 373 365 373 330 c 3
 373 306 354 287 330 287 c 3
 307 287 297 311 285 325 c 0
EndSplineSet
Fore
SplineSet
210 -90 m 1
 210 490 l 1
 250 490 l 1
 250 -90 l 1
 210 -90 l 1
289 325 m 0
 273 344 254 355 222 355 c 3
 164 355 114 298 114 218 c 3
 114 128 181 55 255 55 c 3
 297 55 333 75 358 107 c 1
 380 90 l 1
 348 33 292 -10 220 -10 c 3
 125 -10 45 75 45 182 c 3
 45 307 140 400 245 400 c 3
 320 400 375 365 375 330 c 3
 375 308 356 289 334 289 c 3
 312 289 301 311 289 325 c 0
EndSplineSet
EndChar

StartChar: sterling
Encoding: 163 163 123
Width: 500
Flags: HW
LayerCount: 2
Fore
SplineSet
65 385 m 1
 380 385 l 1
 380 345 l 1
 65 345 l 1
 65 385 l 1
137 265 m 2
 145 345 l 18
 161 505 255 600 355 600 c 0
 410 600 450 578 450 548 c 0
 450 525 430 505 407 505 c 0
 390 505 381 518 369 530 c 0
 357 542 342 550 320 550 c 0
 265 550 237 495 225 375 c 10
 215 275 l 2
 201 135 175 100 125 65 c 1
 365 65 l 2
 390 65 400 75 420 135 c 1
 455 135 l 1
 425 0 l 1
 40 0 l 1
 40 30 l 1
 115 80 120 95 137 265 c 2
55 275 m 1
 370 275 l 1
 370 235 l 1
 55 235 l 1
 55 275 l 1
EndSplineSet
EndChar

StartChar: yen
Encoding: 165 165 124
Width: 500
Flags: HW
LayerCount: 2
Back
SplineSet
90 220 m 1
 425 220 l 1
 425 180 l 1
 90 180 l 1
 90 220 l 1
80 330 m 1
 435 330 l 1
 435 290 l 1
 80 290 l 1
 80 330 l 1
345 600 m 1
 520 600 l 1
 520 560 l 1
 345 560 l 1
 345 600 l 1
5 600 m 1
 210 600 l 1
 210 560 l 1
 5 560 l 1
 5 600 l 1
217 315 m 1
 35 590 l 1
 132 590 l 1
 275 370 l 1
 217 315 l 1
298 340 m 1
 298 10 l 1
 217 10 l 1
 217 340 l 1
 298 340 l 1
135 40 m 1
 380 40 l 1
 380 0 l 1
 135 0 l 1
 135 40 l 1
427 590 m 1
 485 590 l 1
 298 325 l 1
 217 315 l 1
 275 370 l 1
 427 590 l 1
EndSplineSet
Fore
SplineSet
60 380 m 1
 205 380 l 1
 205 340 l 1
 60 340 l 1
 60 380 l 1
70 255 m 1
 425 255 l 1
 425 215 l 1
 70 215 l 1
 70 255 l 1
290 380 m 1
 435 380 l 1
 435 340 l 1
 290 340 l 1
 290 380 l 1
335 600 m 1
 505 600 l 1
 505 560 l 1
 335 560 l 1
 335 600 l 1
-5 600 m 1
 200 600 l 1
 200 560 l 1
 -5 560 l 1
 -5 600 l 1
207 315 m 1
 25 590 l 1
 122 590 l 1
 265 370 l 1
 207 315 l 1
288 340 m 1
 288 10 l 1
 207 10 l 1
 207 340 l 1
 288 340 l 1
125 40 m 1
 370 40 l 1
 370 0 l 1
 125 0 l 1
 125 40 l 1
417 590 m 1
 475 590 l 1
 288 325 l 1
 207 315 l 1
 265 370 l 1
 417 590 l 1
EndSplineSet
EndChar

StartChar: Thorn
Encoding: 222 222 125
Width: 500
Flags: HW
LayerCount: 2
Back
SplineSet
255 495 m 1
 390 495 485 420 485 315 c 3
 485 195 394 117 284 117 c 3
 264 117 235 120 220 125 c 1
 225 160 l 25
 265 160 l 17
 345 160 395 215 395 305 c 3
 395 390 340 452 245 452 c 1
 165 452 l 1
 165 495 l 1
 255 495 l 1
20 600 m 1
 265 600 l 1
 265 560 l 1
 20 560 l 1
 20 600 l 1
20 40 m 1
 265 40 l 1
 265 0 l 1
 20 0 l 1
 20 40 l 1
185 590 m 1
 185 10 l 1
 100 10 l 1
 100 590 l 1
 185 590 l 1
EndSplineSet
Fore
SplineSet
20 600 m 1
 265 600 l 1
 265 560 l 1
 20 560 l 1
 20 600 l 1
255 490 m 1
 387 490 480 415 480 315 c 3
 480 200 389 122 279 122 c 3
 259 122 230 125 215 130 c 1
 220 165 l 25
 260 165 l 17
 340 165 390 220 390 305 c 3
 390 385 335 447 240 447 c 1
 160 447 l 1
 160 490 l 1
 255 490 l 1
22 40 m 1
 270 40 l 1
 270 0 l 1
 22 0 l 1
 22 40 l 1
185 590 m 1
 185 10 l 1
 100 10 l 1
 100 590 l 1
 185 590 l 1
EndSplineSet
EndChar

StartChar: ae
Encoding: 230 230 126
Width: 564
Flags: HW
LayerCount: 2
Back
SplineSet
255 80 m 1
 215 25 165 -10 110 -10 c 3
 63 -10 30 35 30 80 c 3
 30 133 80 165 226 210 c 1
 226 177 l 17
 130 147 107 125 107 95 c 3
 107 67 125 45 145 45 c 3
 175 45 208 63 240 105 c 1
 255 80 l 1
288 338 m 1
 316 373 359 400 410 400 c 0
 485 400 540 340 540 270 c 1
 290 197 l 1
 290 230 l 1
 422 273 l 2
 447 281 455 289 455 307 c 0
 455 334 430 359 395 359 c 0
 340 359 295 293 295 205 c 0
 295 115 353 57 423 57 c 0
 468 57 498 75 523 105 c 1
 543 85 l 1
 513 30 455 -10 390 -10 c 0
 300 -10 226 75 226 160 c 2
 226 285 l 2
 226 317 200 340 165 340 c 0
 147 340 125 336 107 328 c 1
 105 285 l 1
 34 264 l 1
 34 292 l 1
 74 347 140 400 200 400 c 0
 242 400 278 375 288 338 c 1
-301 338 m 1
 -271 375 -230 400 -175 400 c 3
 -95 400 -40 335 -40 255 c 1
 -40 237 l 1
 -300 237 l 1
 -300 274 l 1
 -162 274 l 1
 -137 274 -126 285 -126 305 c 1
 -126 335 -152 359 -192 359 c 3
 -252 359 -295 293 -295 205 c 0
 -295 110 -227 57 -157 57 c 3
 -112 57 -82 75 -57 105 c 1
 -37 85 l 1
 -67 30 -125 -10 -190 -10 c 3
 -285 -10 -364 75 -364 160 c 1
 -364 285 l 1
 -364 317 -390 340 -425 340 c 1
 -443 340 -465 336 -483 328 c 1
 -485 285 l 1
 -556 264 l 1
 -556 292 l 1
 -516 347 -450 400 -390 400 c 1
 -348 400 -311 375 -301 338 c 1
-335 80 m 1
 -375 25 -425 -10 -480 -10 c 3
 -527 -10 -560 35 -560 80 c 3
 -560 130 -510 160 -364 210 c 1
 -364 177 l 17
 -460 142 -483 123 -483 95 c 3
 -483 67 -465 45 -445 45 c 3
 -415 45 -382 63 -350 105 c 1
 -335 80 l 1
-687 105 m 1
 -667 85 l 1
 -697 30 -755 -10 -820 -10 c 3
 -915 -10 -995 75 -995 182 c 3
 -995 307 -905 400 -805 400 c 3
 -725 400 -670 335 -670 255 c 1
 -670 237 l 1
 -930 237 l 1
 -930 274 l 1
 -792 274 l 1
 -767 274 -756 285 -756 305 c 1
 -756 335 -782 359 -822 359 c 3
 -883 359 -925 295 -925 215 c 3
 -925 125 -857 57 -787 57 c 3
 -742 57 -712 75 -687 105 c 1
-994 60 m 1
 -1027 20 -1070 -10 -1112 -10 c 3
 -1157 -10 -1190 35 -1190 80 c 3
 -1190 130 -1140 158 -994 208 c 1
 -994 177 l 17
 -1090 142 -1113 123 -1113 95 c 3
 -1113 67 -1095 45 -1075 45 c 3
 -1050 45 -1019 65 -994 93 c 1
 -994 60 l 1
-994 285 m 1
 -994 317 -1020 340 -1055 340 c 1
 -1073 340 -1095 336 -1113 328 c 1
 -1115 285 l 1
 -1186 264 l 1
 -1186 292 l 1
 -1146 347 -1080 400 -1020 400 c 1
 -965 400 -922 360 -922 305 c 1
 -922 75 l 1
 -922 60 -912 50 -897 50 c 1
 -877 50 -862 65 -852 75 c 1
 -837 52 l 1
 -862 15 -892 -10 -932 -10 c 1
 -967 -10 -994 22 -994 55 c 1
 -994 285 l 1
EndSplineSet
Fore
SplineSet
257 80 m 1
 217 25 167 -10 112 -10 c 3
 65 -10 32 35 32 80 c 3
 32 133 82 162 228 210 c 1
 228 177 l 17
 132 144 109 125 109 95 c 3
 109 67 127 45 147 45 c 3
 177 45 210 63 242 105 c 1
 257 80 l 1
290 338 m 1
 318 373 361 400 412 400 c 0
 487 400 537 340 537 270 c 1
 292 197 l 1
 292 230 l 1
 419 273 l 2
 444 281 452 290 452 307 c 0
 452 334 432 359 397 359 c 0
 342 359 297 293 297 205 c 0
 297 120 350 57 420 57 c 0
 465 57 495 75 520 105 c 1
 540 85 l 1
 510 30 457 -10 392 -10 c 0
 302 -10 228 70 228 160 c 2
 228 285 l 2
 228 317 202 340 167 340 c 0
 149 340 127 336 109 328 c 1
 107 285 l 1
 36 264 l 1
 36 292 l 1
 76 347 142 400 202 400 c 0
 244 400 280 375 290 338 c 1
EndSplineSet
EndChar

StartChar: grave
Encoding: 96 96 127
Width: 250
Flags: HW
LayerCount: 2
Back
SplineSet
125 645 m 1
 195 460 l 1
 160 460 l 1
 50 630 l 1
 125 645 l 1
EndSplineSet
Fore
Refer: 142 768 N 1 0 0 1 125 0 2
EndChar

StartChar: copyright
Encoding: 169 169 128
Width: 720
Flags: HW
LayerCount: 2
Back
SplineSet
-219 117 m 3
 -333 117 -418 199 -418 311 c 0
 -418 418 -325 503 -208 503 c 3
 -163 503 -119 493 -89 477 c 1
 -83 391 l 25
 -104 391 l 1
 -110 422 -119 438 -131 450 c 0
 -146 466 -173 477 -212 477 c 3
 -299 477 -357 415 -357 316 c 0
 -357 223 -296 143 -212 143 c 3
 -158 143 -125 168 -109 202 c 10
 -98 226 l 1
 -75 226 l 25
 -98 141 l 17
 -129 124 -180 117 -219 117 c 3
368 114 m 2
 254 114 169 196 169 308 c 2
 169 314 l 2
 169 421 262 506 379 506 c 2
 385 506 l 2
 430 506 474 496 504 480 c 1
 510 394 l 1
 510 388 l 1
 483 388 l 1
 477 419 468 435 456 447 c 0
 441.78176739 462.166114784 416.78176739 472.92861393 381 474 c 0
 295.771112884 474 238.301635777 414.498649974 236 319 c 0
 236 226 297 146 381 146 c 0
 431.456600789 147.786869632 462.601361369 172.277892909 478 205 c 2
 489 229 l 1
 518 229 l 1
 518 223 l 1
 495 138 l 1
 464 121 413 114 374 114 c 2
 368 114 l 2
EndSplineSet
Fore
SplineSet
368 105 m 3
 253 105 170 186 170 301 c 0
 170 411 260 495 380 495 c 3
 425 495 472 485 502 470 c 1
 511 378 l 25
 481 378 l 1
 476 406 468 423 456 435 c 0
 440 451 415 464 375 464 c 3
 293 464 235 396 235 306 c 0
 235 221 295 138 375 138 c 3
 427 138 462 159 478 194 c 10
 490 220 l 1
 520 220 l 25
 495 130 l 17
 463 112 408 105 368 105 c 3
93 300 m 0
 93 151 212 30 360 30 c 0
 508 30 627 151 627 300 c 0
 627 449 508 570 360 570 c 0
 212 570 93 449 93 300 c 0
50 300 m 0
 50 471 189 610 360 610 c 0
 531 610 670 471 670 300 c 0
 670 129 531 -10 360 -10 c 0
 189 -10 50 129 50 300 c 0
EndSplineSet
EndChar

StartChar: threequarters
Encoding: 190 190 130
Width: 750
Flags: HW
LayerCount: 2
Fore
SplineSet
435 113 m 1
 620 335 l 25
 645 335 l 1
 645 -5 l 1
 585 -5 l 1
 585 235 l 1
 500 135 l 1
 715 135 l 1
 715 85 l 1
 435 85 l 1
 435 113 l 1
120 -40 m 1
 575 640 l 1
 630 640 l 1
 175 -40 l 1
 120 -40 l 1
EndSplineSet
Refer: 108 179 N 1 0 0 1 0 0 2
EndChar

StartChar: dotlessi
Encoding: 305 305 131
Width: 250
Flags: HW
AnchorPoint: "accent_above" 128 455 basechar 0
LayerCount: 2
Fore
SplineSet
24 35 m 1
 234 35 l 1
 234 0 l 1
 24 0 l 1
 24 35 l 1
35 350 m 1
 154 404 l 1
 164 404 l 1
 164 0 l 1
 90 0 l 1
 90 300 l 1
 35 340 l 1
 35 350 l 1
EndSplineSet
EndChar

StartChar: AE
Encoding: 198 198 132
Width: 735
Flags: HW
LayerCount: 2
Back
SplineSet
80 10 m 1
 20 10 l 1
 240 587 l 1
 302 625 l 1
 265 522 l 1
 80 10 l 1
312 625 m 1
 545 10 l 1
 447 15 l 1
 255 542 l 1
 302 625 l 1
 312 625 l 1
EndSplineSet
Fore
SplineSet
265 0 m 1
 265 40 l 1
 360 40 l 1
 425 75 l 1
 425 55 435 45 455 45 c 1
 565 45 l 1
 615 45 631 59 667 164 c 1
 703 164 l 1
 670 0 l 1
 265 0 l 1
230 600 m 1
 665 600 l 1
 668 455 l 1
 633 455 l 1
 623 545 613 556 568 556 c 1
 405 556 l 9
 360 560 l 17
 230 560 l 1
 230 600 l 1
415 265 m 1
 415 308 l 1
 532 308 l 1
 562 308 570 316 570 358 c 1
 570 375 l 1
 605 375 l 1
 605 185 l 1
 570 185 l 1
 570 215 l 1
 570 257 562 265 532 265 c 1
 415 265 l 1
425 580 m 1
 425 20 l 1
 340 20 l 1
 340 580 l 1
 425 580 l 1
185 308 m 1
 365 308 l 1
 365 265 l 1
 165 265 l 1
 185 308 l 1
140 0 m 1
 -45 0 l 1
 -45 40 l 1
 140 40 l 1
 140 0 l 1
60 10 m 1
 -2 10 l 1
 293 560 l 1
 340 570 l 1
 340 545 l 1
 60 10 l 1
EndSplineSet
EndChar

StartChar: multiply
Encoding: 215 215 137
Width: 400
Flags: HW
LayerCount: 2
Back
SplineSet
94 346 m 1
 341 99 l 1
 306 64 l 1
 59 311 l 1
 94 346 l 1
59 99 m 1
 306 346 l 1
 341 311 l 1
 94 64 l 1
 59 99 l 1
225 380 m 1
 225 30 l 1
 175 30 l 1
 175 380 l 1
 225 380 l 1
25 230 m 1
 375 230 l 1
 375 180 l 1
 25 180 l 1
 25 230 l 1
EndSplineSet
Fore
SplineSet
85 355 m 1
 350 90 l 1
 315 55 l 1
 50 320 l 1
 85 355 l 1
50 90 m 1
 315 355 l 1
 350 320 l 1
 85 55 l 1
 50 90 l 1
EndSplineSet
EndChar

StartChar: at
Encoding: 64 64 138
Width: 790
Flags: HW
LayerCount: 2
Back
SplineSet
405 560 m 3
 603 560 750 405 750 250 c 9
 705 245 l 1
 705 385 570 520 395 520 c 3
 220 520 85 380 85 205 c 3
 85 30 230 -120 405 -120 c 3
 510 -120 580 -78 638 -13 c 1
 660 -30 l 1
 600 -110 508 -160 395 -160 c 3
 197 -160 40 -3 40 195 c 3
 40 396 204 560 405 560 c 3
415 135 m 1
 375 35 305 -10 265 -10 c 3
 235 -10 210 20 210 60 c 3
 210 190 350 380 455 380 c 3
 460 380 470 379 475 378 c 9
 482 390 l 1
 520 390 l 1
 480 130 l 2
 472 80 478 65 490 65 c 3
 515 65 550 105 575 150 c 9
 600 135 l 1
 560 55 500 -10 445 -10 c 3
 410 -10 387 25 415 135 c 1
442 302 m 1
 436 307 427 310 417 310 c 3
 347 310 282 190 282 105 c 3
 282 80 291 65 303 65 c 3
 343 65 425 167 442 302 c 1
-328 390 m 1
 -290 390 l 1
 -333 110 l 2
 -337 85 -337 65 -325 65 c 3
 -300 65 -265 105 -240 150 c 9
 -215 135 l 1
 -255 55 -315 -10 -370 -10 c 3
 -405 -10 -416 25 -405 95 c 2
 -375 290 l 1
 -328 390 l 1
-368 302 m 1
 -374 307 -383 310 -393 310 c 3
 -463 310 -528 190 -528 105 c 3
 -528 80 -519 65 -507 65 c 3
 -467 65 -385 167 -368 302 c 1
-386 145 m 17
 -434 40 -500 -10 -545 -10 c 3
 -575 -10 -600 20 -600 60 c 3
 -600 190 -460 385 -355 385 c 3
 -345 385 -329 383 -320 380 c 9
 -386 145 l 17
512 -210 m 1
 550 -210 l 1
 475 -485 l 2
 469 -507 465 -535 480 -535 c 3
 505 -535 540 -495 565 -450 c 9
 590 -465 l 1
 550 -545 490 -610 435 -610 c 3
 400 -610 382 -570 400 -505 c 2
 465 -265 l 1
 512 -210 l 1
457 -298 m 1
 451 -293 440 -290 430 -290 c 3
 355 -290 265 -410 265 -505 c 3
 265 -523 273 -535 285 -535 c 3
 320 -535 422 -428 457 -298 c 1
418 -445 m 17
 353 -560 300 -610 250 -610 c 3
 220 -610 195 -580 195 -540 c 3
 195 -420 345 -221 470 -221 c 3
 482 -221 498 -224 507 -228 c 9
 418 -445 l 17
-408 560 m 3
 -210 560 -60 405 -60 245 c 9
 -105 245 l 1
 -105 385 -238 520 -413 520 c 3
 -588 520 -725 378 -725 203 c 3
 -725 28 -583 -120 -408 -120 c 3
 -303 -120 -230 -78 -172 -13 c 1
 -150 -30 l 1
 -210 -110 -300 -160 -413 -160 c 3
 -611 -160 -770 0 -770 198 c 3
 -770 399 -609 560 -408 560 c 3
EndSplineSet
Fore
SplineSet
447 307 m 1
 441 312 432 315 422 315 c 3
 352 315 287 195 287 110 c 3
 287 85 296 70 308 70 c 3
 348 70 430 172 447 307 c 1
750 235 m 0
 750 90 620 -5 490 -5 c 0
 435 -5 395 30 420 140 c 1
 380 40 310 -5 270 -5 c 0
 240 -5 215 25 215 65 c 0
 215 195 355 385 460 385 c 0
 465 385 475 384 480 383 c 1
 487 395 l 1
 525 395 l 1
 485 135 l 2
 477.30078125 84.9541015625 485 45 530 45 c 3
 624 45 690 125 690 230 c 0
 690 365 565 499 395 499 c 0
 225 499 100 360 100 190 c 0
 100 15 230 -127 405 -127 c 0
 505 -127 580 -90 635 -30 c 1
 660 -50 l 1
 605 -125 510 -175 395 -175 c 0
 200 -175 40 -25 40 180 c 0
 40 381 204 545 405 545 c 0
 603 545 750 390 750 235 c 0
EndSplineSet
EndChar

StartChar: OE
Encoding: 338 338 139
Width: 905
Flags: HW
LayerCount: 2
Back
SplineSet
425 0 m 1
 425 40 l 1
 520 40 l 1
 585 75 l 1
 585 55 595 45 615 45 c 1
 755 45 l 1
 805 45 821 59 857 164 c 1
 893 164 l 1
 860 0 l 1
 425 0 l 1
425 600 m 1
 855 600 l 1
 858 455 l 1
 823 455 l 1
 813 545 803 556 758 556 c 1
 565 556 l 9
 520 560 l 17
 425 560 l 1
 425 600 l 1
575 295 m 1
 575 338 l 1
 702 338 l 1
 732 338 740 346 740 388 c 1
 740 405 l 1
 775 405 l 1
 775 215 l 1
 740 215 l 1
 740 245 l 1
 740 287 732 295 702 295 c 1
 575 295 l 1
585 580 m 1
 585 20 l 1
 500 20 l 1
 500 580 l 1
 585 580 l 1
132 315 m 0
 132 155 225 29 355 29 c 0
 480 29 568 130 568 285 c 0
 568 445 475 572 345 572 c 0
 220 572 132 470 132 315 c 0
35 297 m 0
 35 469 180 612 352 612 c 0
 527 612 665 482 665 307 c 0
 665 135 520 -12 348 -12 c 0
 173 -12 35 122 35 297 c 0
EndSplineSet
Fore
SplineSet
485 32 m 17
 445 4 393 -7 343 -7 c 0
 170 -7 35 125 35 297 c 0
 35 466 177 607 347 607 c 0
 397 607 445 598 485 575 c 9
 485 470 l 17
 485 525 420 567 340 567 c 0
 217 567 132 467 132 315 c 0
 132 158 222 34 350 34 c 0
 425 34 485 70 485 125 c 9
 485 32 l 17
485 0 m 1
 570 75 l 1
 570 55 580 45 600 45 c 2
 735 45 l 2
 785 45 801 59 837 164 c 1
 873 164 l 1
 840 0 l 1
 485 0 l 1
570 580 m 1
 570 20 l 1
 485 0 l 1
 485 600 l 1
 570 580 l 1
560 295 m 1
 560 338 l 1
 687 338 l 1
 717 338 725 346 725 388 c 1
 725 405 l 1
 760 405 l 1
 760 215 l 1
 725 215 l 1
 725 245 l 1
 725 287 717 295 687 295 c 1
 560 295 l 1
485 600 m 1
 835 600 l 1
 838 455 l 1
 803 455 l 1
 793 545 783 556 738 556 c 2
 550 556 l 1
 485 600 l 1
EndSplineSet
EndChar

StartChar: oe
Encoding: 339 339 140
Width: 697
Flags: HW
LayerCount: 2
Back
SplineSet
113 210 m 0
 113 105 162 28 232 28 c 0
 299 28 343 85 343 180 c 0
 343 285 294 362 224 362 c 0
 157 362 113 305 113 210 c 0
24 192 m 0
 24 305 119 400 232 400 c 0
 344 400 432 310 432 198 c 0
 432 85 337 -10 224 -10 c 0
 112 -10 24 80 24 192 c 0
653 105 m 1
 673 85 l 1
 643 30 585 -10 520 -10 c 3
 425 -10 345 75 345 182 c 3
 345 307 435 400 535 400 c 3
 615 400 670 335 670 255 c 1
 670 237 l 1
 410 237 l 1
 410 274 l 1
 548 274 l 1
 573 274 584 285 584 305 c 1
 584 335 558 359 518 359 c 3
 457 359 415 295 415 215 c 3
 415 125 483 57 553 57 c 3
 598 57 628 75 653 105 c 1
EndSplineSet
Fore
SplineSet
24 192 m 0
 24 305 117 400 230 400 c 0
 303 400 363 360 390 315 c 1
 420 370 480 400 535 400 c 0
 615 400 670 335 670 255 c 2
 670 237 l 1
 410 237 l 1
 410 274 l 1
 548 274 l 2
 573 274 584 285 584 305 c 0
 584 335 558 359 518 359 c 0
 457 359 420 295 420 212 c 0
 420 122 480 57 550 57 c 0
 595 57 625 75 650 105 c 1
 670 85 l 1
 640 30 585 -10 520 -10 c 0
 462 -10 413 25 383 70 c 1
 356 30 295 -10 222 -10 c 0
 110 -10 24 80 24 192 c 0
113 210 m 0
 113 105 161 28 230 28 c 0
 296 28 339 85 339 180 c 0
 339 285 291 362 222 362 c 0
 156 362 113 305 113 210 c 0
EndSplineSet
EndChar

StartChar: germandbls
Encoding: 223 223 141
Width: 515
Flags: HW
LayerCount: 2
Back
SplineSet
255 325 m 3
 255 360 283 393 310 420 c 0
 340 450 365 487 365 525 c 3
 365 565 332 614 274 614 c 1
 214 614 164 564 164 474 c 1
 164 0 l 1
 90 0 l 1
 90 445 l 1
 90 560 190 655 285 655 c 1
 370 655 435 595 435 540 c 1
 435 490 413 467 360 420 c 0
 340 402 322 382 322 360 c 3
 322 340 337 318 403 262 c 0
 482 195 502 162 502 112 c 1
 502 50 440 -11 358 -11 c 1
 326 -11 278 0 253 16 c 1
 248 105 l 1
 281 105 l 25
 288 80 l 2
 297 50 326 27 363 27 c 1
 405 27 430 56 430 90 c 1
 430 124 411 144 345 200 c 0
 273 261 255 287 255 325 c 3
25 35 m 1
 220 35 l 1
 220 0 l 1
 25 0 l 1
 25 35 l 1
10 340 m 1
 10 370 l 1
 90 400 l 1
 120 390 l 1
 120 340 l 1
 10 340 l 1
-261 330 m 3
 -261 367 -235 395 -200 430 c 0
 -174 456 -148 491 -148 530 c 3
 -148 575 -186 614 -236 614 c 1
 -291 614 -326 574 -326 484 c 1
 -326 0 l 1
 -400 0 l 1
 -400 455 l 1
 -400 570 -310 655 -220 655 c 1
 -145 655 -80 600 -80 545 c 1
 -80 490 -120 462 -165 417 c 0
 -182 400 -195 384 -195 362 c 3
 -195 342 -183 320 -117 264 c 0
 -38 197 -20 163 -20 110 c 1
 -20 50 -82 -11 -162 -11 c 1
 -194 -11 -242 0 -267 16 c 1
 -272 105 l 1
 -239 105 l 25
 -232 80 l 2
 -223 50 -194 27 -157 27 c 1
 -115 27 -90 56 -90 90 c 1
 -90 125 -109 149 -175 205 c 0
 -247 266 -261 292 -261 330 c 3
-465 35 m 1
 -355 35 l 1
 -326 0 l 1
 -465 0 l 1
 -465 35 l 1
-480 340 m 1
 -480 370 l 1
 -400 400 l 1
 -370 390 l 1
 -370 340 l 1
 -480 340 l 1
-780 330 m 3
 -780 367 -750 400 -715 435 c 0
 -689 461 -668 493 -668 530 c 3
 -668 575 -706 612 -751 612 c 1
 -806 612 -846 569 -846 479 c 1
 -846 0 l 1
 -920 0 l 1
 -920 455 l 1
 -920 570 -830 655 -740 655 c 1
 -665 655 -600 600 -600 545 c 1
 -600 485 -640 457 -685 412 c 0
 -702 395 -715 380 -715 362 c 3
 -715 342 -702.659179688 320.399414062 -637 264 c 0
 -559 197 -539 163 -539 115 c 1
 -539 50 -602 -10 -682 -10 c 1
 -717 -10 -762 1 -787 18 c 1
 -792 105 l 1
 -759 105 l 25
 -752 80 l 2
 -743 50 -714 28 -677 28 c 1
 -635 28 -610 56 -610 90 c 1
 -610 122 -630 149 -695 205 c 0
 -766 267 -780 293 -780 330 c 3
-985 35 m 1
 -875 35 l 1
 -846 0 l 1
 -985 0 l 1
 -985 35 l 1
-1000 340 m 1
 -1000 370 l 1
 -920 400 l 1
 -890 390 l 1
 -890 340 l 1
 -1000 340 l 1
-1301 335 m 3
 -1301 400 -1190 430 -1190 520 c 3
 -1190 570 -1231 614 -1276 614 c 1
 -1331 614 -1366 574 -1366 484 c 1
 -1366 0 l 1
 -1440 0 l 1
 -1440 455 l 1
 -1440 570 -1350 655 -1260 655 c 1
 -1185 655 -1120 595 -1120 540 c 1
 -1120 450 -1235 425 -1235 365 c 3
 -1235 345 -1224 320 -1160 262 c 0
 -1081 190 -1060 163 -1060 108 c 1
 -1060 48 -1120 -11 -1200 -11 c 1
 -1232 -11 -1280 0 -1305 16 c 1
 -1310 105 l 1
 -1277 105 l 25
 -1270 80 l 2
 -1261 50 -1232 27 -1195 27 c 1
 -1155 27 -1130 55 -1130 90 c 1
 -1130 117 -1149 140 -1215 200 c 0
 -1285 263 -1301 290 -1301 335 c 3
-1505 35 m 1
 -1395 35 l 1
 -1366 0 l 1
 -1505 0 l 1
 -1505 35 l 1
-1520 340 m 1
 -1520 370 l 1
 -1440 400 l 1
 -1410 390 l 1
 -1410 340 l 1
 -1520 340 l 1
-1725 540 m 3
 -1725 575 -1756 614 -1796 614 c 1
 -1846 614 -1876 574 -1876 484 c 1
 -1876 0 l 1
 -1950 0 l 1
 -1950 450 l 1
 -1950 560 -1860 655 -1780 655 c 1
 -1710 655 -1655 600 -1655 560 c 1
 -1655 505 -1697 482 -1725 440 c 0
 -1745 410 -1755 390 -1755 365 c 3
 -1755 345 -1746 311 -1680 255 c 0
 -1601 188 -1580 158 -1580 108 c 1
 -1580 48 -1640 -11 -1720 -11 c 1
 -1752 -11 -1800 0 -1825 16 c 1
 -1830 105 l 1
 -1797 105 l 25
 -1790 80 l 2
 -1781 50 -1752 27 -1715 27 c 1
 -1675 27 -1650 55 -1650 90 c 1
 -1650 117 -1669 137 -1735 195 c 0
 -1806 257 -1826 290 -1826 335 c 3
 -1826 375 -1793 403 -1765 445 c 0
 -1737 487 -1725 510 -1725 540 c 3
-2015 35 m 1
 -1905 35 l 1
 -1876 0 l 1
 -2015 0 l 1
 -2015 35 l 1
-2030 340 m 1
 -2030 370 l 1
 -1950 400 l 1
 -1920 390 l 1
 -1920 340 l 1
 -2030 340 l 1
-2220 545 m 3
 -2220 580 -2246 614 -2286 614 c 1
 -2336 614 -2366 574 -2366 484 c 1
 -2366 0 l 1
 -2440 0 l 1
 -2440 450 l 1
 -2440 560 -2350 655 -2270 655 c 1
 -2210 655 -2150 605 -2150 565 c 1
 -2150 518 -2197 483 -2217 453 c 0
 -2237 423 -2255 402 -2255 365 c 3
 -2255 345 -2246 306 -2180 255 c 0
 -2098 192 -2080 158 -2080 108 c 1
 -2080 48 -2140 -11 -2220 -11 c 1
 -2252 -11 -2300 0 -2325 16 c 1
 -2330 105 l 1
 -2297 105 l 25
 -2290 80 l 2
 -2281 50 -2252 27 -2215 27 c 1
 -2175 27 -2150 55 -2150 90 c 1
 -2150 117 -2166 138 -2235 193 c 0
 -2306 250 -2315 295 -2315 340 c 3
 -2315 380 -2284 412 -2258 448 c 0
 -2238 476 -2220 506 -2220 545 c 3
-2505 35 m 1
 -2395 35 l 1
 -2366 0 l 1
 -2505 0 l 1
 -2505 35 l 1
-2520 340 m 1
 -2520 370 l 1
 -2440 400 l 1
 -2410 390 l 1
 -2410 340 l 1
 -2520 340 l 1
-2803 295 m 1
 -2803 349 -2747 401 -2682 401 c 1
 -2648 401 -2608 390 -2584 373 c 1
 -2580 285 l 1
 -2611 285 l 17
 -2620 317 l 2
 -2628 344 -2650 364 -2688 364 c 1
 -2722 364 -2741 341 -2741 315 c 1
 -2741 295 -2730 277 -2661 235 c 0
 -2582 187 -2565 156 -2565 108 c 1
 -2565 48 -2623 -11 -2700 -11 c 1
 -2729 -11 -2776 0 -2800 16 c 1
 -2810 115 l 1
 -2778 115 l 25
 -2767 78 l 2
 -2757 48 -2731 27 -2695 27 c 1
 -2657 27 -2632 55 -2632 90 c 1
 -2632 112 -2646 131 -2714 173 c 0
 -2787 218 -2803 250 -2803 295 c 1
-2755 570 m 1
 -2780 570 -2791 594 -2816 594 c 1
 -2841 594 -2856 574 -2856 484 c 1
 -2856 0 l 1
 -2930 0 l 1
 -2930 460 l 1
 -2930 560 -2840 655 -2770 655 c 1
 -2730 655 -2710 635 -2710 615 c 1
 -2710 590 -2730 570 -2755 570 c 1
-2995 35 m 1
 -2775 35 l 1
 -2775 0 l 1
 -2995 0 l 1
 -2995 35 l 1
-3010 340 m 1
 -3010 370 l 1
 -2930 400 l 1
 -2900 390 l 1
 -2900 340 l 1
 -3010 340 l 1
EndSplineSet
Fore
SplineSet
260 325 m 3
 260 358 285 386 310 415 c 0
 345 455 365 483 365 525 c 3
 365 565 329 614 274 614 c 1
 214 614 164 564 164 474 c 1
 164 0 l 1
 90 0 l 1
 90 445 l 1
 90 560 190 655 285 655 c 1
 370 655 435 595 435 535 c 1
 435 485 407 460 362 415 c 0
 343 396 327 378 327 358 c 3
 327 338 339 320 403 262 c 0
 482 190 502 162 502 112 c 1
 502 50 440 -11 358 -11 c 1
 326 -11 278 0 253 16 c 1
 248 105 l 1
 281 105 l 25
 288 80 l 2
 297 50 326 27 363 27 c 1
 405 27 430 56 430 90 c 1
 430 124 409 147 345 205 c 0
 273 271 260 290 260 325 c 3
25 35 m 1
 220 35 l 1
 220 0 l 1
 25 0 l 1
 25 35 l 1
10 340 m 1
 10 370 l 1
 90 400 l 1
 120 390 l 1
 120 340 l 1
 10 340 l 1
EndSplineSet
EndChar

StartChar: gravecomb
Encoding: 768 768 142
Width: 0
Flags: HW
AnchorPoint: "accent_above" 35 455 mark 0
LayerCount: 2
Fore
SplineSet
0 640 m 1
 70 455 l 1
 35 455 l 1
 -75 625 l 1
 0 640 l 1
EndSplineSet
EndChar

StartChar: acutecomb
Encoding: 769 769 143
Width: 0
Flags: HW
AnchorPoint: "accent_above" -35 455 mark 0
LayerCount: 2
Back
SplineSet
0 655 m 1
 75 640 l 1
 -35 460 l 1
 -70 460 l 1
 0 655 l 1
EndSplineSet
Fore
SplineSet
0 640 m 1
 75 625 l 1
 -35 455 l 1
 -70 455 l 1
 0 640 l 1
EndSplineSet
EndChar

StartChar: uni0302
Encoding: 770 770 144
Width: 0
Flags: HW
AnchorPoint: "accent_above" 0 455 mark 0
LayerCount: 2
Back
SplineSet
15 645 m 1
 125 460 l 1
 87 460 l 1
 0 555 l 1
 -87 460 l 1
 -125 460 l 1
 -15 645 l 1
 15 645 l 1
100 645 m 1
 175 630 l 1
 65 460 l 1
 30 460 l 1
 100 645 l 1
200 645 m 1
 270 460 l 1
 235 460 l 1
 125 630 l 1
 200 645 l 1
EndSplineSet
Fore
SplineSet
15 640 m 1
 125 455 l 1
 87 455 l 1
 0 550 l 1
 -87 455 l 1
 -125 455 l 1
 -15 640 l 1
 15 640 l 1
EndSplineSet
EndChar

StartChar: tildecomb
Encoding: 771 771 145
Width: 0
Flags: HW
AnchorPoint: "accent_above" 0 455 mark 0
LayerCount: 2
Back
SplineSet
311 540 m 0
 311 564 331 584 355 584 c 0
 379 584 399 564 399 540 c 0
 399 516 379 496 355 496 c 0
 331 496 311 516 311 540 c 0
161 540 m 0
 161 564 181 584 205 584 c 0
 229 584 249 564 249 540 c 0
 249 516 229 496 205 496 c 0
 181 496 161 516 161 540 c 0
140 548 m 17
 115 511 81 475 56 475 c 3
 36 475 16 485 -14 495 c 0
 -29 500 -49 507 -64 507 c 3
 -82 507 -98 490 -115 470 c 9
 -140 492 l 17
 -115 529 -81 565 -56 565 c 3
 -36 565 -16 555 14 545 c 0
 29 540 49 533 64 533 c 3
 82 533 98 550 115 570 c 9
 140 548 l 17
-170 540 m 17
 -195 505 -227 473 -252 473 c 3
 -272 473 -292 485 -322 495 c 0
 -337 500 -357 509 -372 509 c 3
 -392 509 -410 495 -425 475 c 9
 -450 500 l 17
 -425 535 -393 567 -368 567 c 3
 -348 567 -328 555 -298 545 c 0
 -283 540 -263 531 -248 531 c 3
 -228 531 -210 545 -195 565 c 9
 -170 540 l 17
EndSplineSet
Fore
SplineSet
140 563 m 17
 113 525 81 485 56 485 c 3
 36 485 15 495 -15 505 c 0
 -30 510 -49 517 -64 517 c 3
 -81 517 -98 500 -115 480 c 9
 -140 502 l 17
 -113 540 -81 580 -56 580 c 3
 -36 580 -15 570 15 560 c 0
 30 555 49 548 64 548 c 3
 81 548 98 565 115 585 c 9
 140 563 l 17
EndSplineSet
EndChar

StartChar: uni0304
Encoding: 772 772 146
Width: 0
Flags: HW
AnchorPoint: "accent_above" 0 455 mark 0
LayerCount: 2
Fore
SplineSet
-120 552 m 1
 120 552 l 1
 120 500 l 1
 -120 500 l 1
 -120 552 l 1
EndSplineSet
EndChar

StartChar: uni0306
Encoding: 774 774 147
Width: 700
Flags: HW
LayerCount: 2
Fore
SplineSet
100 500 m 1
 600 500 l 1
 600 0 l 1
 100 0 l 1
 100 500 l 1
EndSplineSet
EndChar

StartChar: uni0307
Encoding: 775 775 148
Width: 0
Flags: HW
AnchorPoint: "accent_above" 0 455 mark 0
LayerCount: 2
Back
SplineSet
31 540 m 0
 31 564 51 584 75 584 c 0
 99 584 119 564 119 540 c 0
 119 516 99 496 75 496 c 0
 51 496 31 516 31 540 c 0
-119 540 m 0
 -119 564 -99 584 -75 584 c 0
 -51 584 -31 564 -31 540 c 0
 -31 516 -51 496 -75 496 c 0
 -99 496 -119 516 -119 540 c 0
EndSplineSet
Fore
SplineSet
-45 540 m 0
 -45 565 -25 585 0 585 c 0
 25 585 45 565 45 540 c 0
 45 515 25 495 0 495 c 0
 -25 495 -45 515 -45 540 c 0
EndSplineSet
EndChar

StartChar: uni0308
Encoding: 776 776 149
Width: 0
Flags: HW
AnchorPoint: "accent_above" 0 455 mark 0
LayerCount: 2
Back
SplineSet
30 535 m 0
 30 560 50 580 75 580 c 0
 100 580 120 560 120 535 c 0
 120 510 100 490 75 490 c 0
 50 490 30 510 30 535 c 0
-120 535 m 0
 -120 560 -100 580 -75 580 c 0
 -50 580 -30 560 -30 535 c 0
 -30 510 -50 490 -75 490 c 0
 -100 490 -120 510 -120 535 c 0
EndSplineSet
Fore
SplineSet
31 540 m 0
 31 564 51 584 75 584 c 0
 99 584 119 564 119 540 c 0
 119 516 99 496 75 496 c 0
 51 496 31 516 31 540 c 0
-119 540 m 0
 -119 564 -99 584 -75 584 c 0
 -51 584 -31 564 -31 540 c 0
 -31 516 -51 496 -75 496 c 0
 -99 496 -119 516 -119 540 c 0
EndSplineSet
EndChar

StartChar: uni030A
Encoding: 778 778 150
Width: 0
Flags: HW
AnchorPoint: "accent_above" 0 455 mark 0
LayerCount: 2
Back
SplineSet
-92 551 m 0
 -92 601 -50 643 2 643 c 0
 53 643 92 603 92 553 c 0
 92 503 50 461 -2 461 c 0
 -53 461 -92 501 -92 551 c 0
-44 558 m 0
 -44 518 -23 492 2 492 c 0
 27 492 44 513 44 546 c 0
 44 586 23 612 -2 612 c 0
 -27 612 -44 591 -44 558 c 0
-530 555 m 0
 -530 511 -509 479 -480 479 c 0
 -452 479 -434 503 -434 543 c 0
 -434 587 -455 619 -484 619 c 0
 -512 619 -530 595 -530 555 c 0
-568 548 m 0
 -568 595 -527 635 -480 635 c 0
 -433 635 -396 597 -396 550 c 0
 -396 503 -437 463 -484 463 c 0
 -531 463 -568 501 -568 548 c 0
-313 548 m 0
 -313 597.876953125 -269.74609375 640 -220 640 c 0
 -170.1875 640 -131 599.67578125 -131 550 c 0
 -131 500.123046875 -174.25390625 458 -224 458 c 0
 -273.8125 458 -313 498.32421875 -313 548 c 0
-265 555 m 0
 -265 511.919921875 -244.631835938 484 -220 484 c 0
 -195.805664062 484 -179 504.240234375 -179 543 c 0
 -179 586.080078125 -199.368164062 614 -224 614 c 0
 -248.194335938 614 -265 593.759765625 -265 555 c 0
EndSplineSet
Fore
SplineSet
-92 545 m 0
 -92 595 -50 637 2 637 c 0
 53 637 92 597 92 547 c 0
 92 497 50 455 -2 455 c 0
 -53 455 -92 495 -92 545 c 0
-44 552 m 0
 -44 512 -23 486 2 486 c 0
 27 486 44 507 44 540 c 0
 44 580 23 606 -2 606 c 0
 -27 606 -44 585 -44 552 c 0
EndSplineSet
EndChar

StartChar: uni030B
Encoding: 779 779 151
Width: 700
Flags: HW
LayerCount: 2
Fore
SplineSet
100 500 m 1
 600 500 l 1
 600 0 l 1
 100 0 l 1
 100 500 l 1
EndSplineSet
EndChar

StartChar: uni030C
Encoding: 780 780 152
Width: 0
Flags: HW
AnchorPoint: "accent_above" 0 455 mark 0
LayerCount: 2
Back
SplineSet
15 640 m 1
 125 455 l 1
 87 455 l 1
 0 550 l 1
 -87 455 l 1
 -125 455 l 1
 -15 640 l 1
 15 640 l 1
EndSplineSet
Fore
SplineSet
-15 455 m 1
 -125 640 l 1
 -87 640 l 1
 0 545 l 1
 87 640 l 1
 125 640 l 1
 15 455 l 1
 -15 455 l 1
EndSplineSet
EndChar

StartChar: uni0327
Encoding: 807 807 153
Width: 0
Flags: HW
AnchorPoint: "accent_below" 0 25 mark 0
LayerCount: 2
Back
SplineSet
0 30 m 1
 40 30 l 25
 7 -36 l 1
 52 -48 90 -80 90 -125 c 3
 90 -190 15 -232 -80 -230 c 1
 -80 -195 l 1
 -15 -195 23 -167 23 -137 c 3
 23 -105 -13 -89 -55 -84 c 9
 -55 -80 l 1
 0 30 l 1
EndSplineSet
Fore
SplineSet
0 25 m 1
 40 25 l 25
 7 -41 l 1
 52 -53 90 -80 90 -125 c 3
 90 -190 15 -232 -80 -230 c 1
 -80 -195 l 1
 -15 -195 23 -170 23 -140 c 3
 23 -110 -15 -94 -55 -89 c 9
 -55 -85 l 1
 0 25 l 1
EndSplineSet
EndChar

StartChar: uni0328
Encoding: 808 808 154
Width: 700
Flags: HW
LayerCount: 2
Fore
SplineSet
100 500 m 1
 600 500 l 1
 600 0 l 1
 100 0 l 1
 100 500 l 1
EndSplineSet
EndChar

StartChar: trademark
Encoding: 8482 8482 155
Width: 515
Flags: HW
LayerCount: 2
Back
SplineSet
260 420 m 1
 260 415 l 1
 275 415 l 1
 275 420 l 1
 260 420 l 1
260 445 m 1
 260 440 l 1
 275 440 l 1
 275 445 l 1
 260 445 l 1
265 405 m 1
 265 380 l 1
 270 380 l 1
 270 405 l 1
 265 405 l 1
260 410 m 1
 260 405 l 1
 275 405 l 1
 275 410 l 1
 260 410 l 1
265 440 m 1
 265 420 l 1
 270 420 l 1
 270 440 l 1
 265 440 l 1
265 465 m 1
 265 460 l 1
 275 460 l 1
 275 465 l 1
 265 465 l 1
265 480 m 1
 265 475 l 1
 280 475 l 1
 280 480 l 1
 265 480 l 1
260 480 m 1
 260 450 l 1
 265 450 l 1
 265 480 l 1
 260 480 l 1
260 510 m 1
 260 490 l 1
 265 490 l 1
 265 510 l 1
 260 510 l 1
275 510 m 1
 275 490 l 1
 280 490 l 1
 280 510 l 1
 275 510 l 1
265 490 m 1
 265 485 l 1
 275 485 l 1
 275 490 l 1
 265 490 l 1
265 515 m 1
 265 510 l 1
 275 510 l 1
 275 515 l 1
 265 515 l 1
275 530 m 1
 275 520 l 1
 280 520 l 1
 280 530 l 1
 275 530 l 1
265 535 m 1
 265 530 l 1
 275 530 l 1
 275 535 l 1
 265 535 l 1
275 545 m 1
 275 535 l 1
 280 535 l 1
 280 545 l 1
 275 545 l 1
265 550 m 1
 265 545 l 1
 275 545 l 1
 275 550 l 1
 265 550 l 1
260 550 m 1
 260 520 l 1
 265 520 l 1
 265 550 l 1
 260 550 l 1
265 570 m 1
 265 565 l 1
 275 565 l 1
 275 570 l 1
 265 570 l 1
275 580 m 1
 275 570 l 1
 280 570 l 1
 280 580 l 1
 275 580 l 1
265 585 m 1
 265 580 l 1
 275 580 l 1
 275 585 l 1
 265 585 l 1
260 585 m 1
 260 555 l 1
 265 555 l 1
 265 585 l 1
 260 585 l 1
445 600 m 1
 495 600 l 1
 495 370 l 1
 445 370 l 1
 445 600 l 1
245 600 m 1
 295 600 l 1
 295 370 l 1
 245 370 l 1
 245 600 l 1
-50 445 m 1
 -50 440 l 1
 -35 440 l 1
 -35 445 l 1
 -50 445 l 1
-50 425 m 1
 -50 420 l 1
 -35 420 l 1
 -35 425 l 1
 -50 425 l 1
-45 440 m 1
 -45 425 l 1
 -40 425 l 1
 -40 440 l 1
 -45 440 l 1
-50 465 m 1
 -50 460 l 1
 -35 460 l 1
 -35 465 l 1
 -50 465 l 1
-50 475 m 1
 -50 470 l 1
 -30 470 l 1
 -30 475 l 1
 -50 475 l 1
-55 475 m 1
 -55 450 l 1
 -50 450 l 1
 -50 475 l 1
 -55 475 l 1
-55 500 m 1
 -55 485 l 1
 -50 485 l 1
 -50 500 l 1
 -55 500 l 1
-35 500 m 1
 -35 485 l 1
 -30 485 l 1
 -30 500 l 1
 -35 500 l 1
-50 485 m 1
 -50 480 l 1
 -35 480 l 1
 -35 485 l 1
 -50 485 l 1
-50 505 m 1
 -50 500 l 1
 -35 500 l 1
 -35 505 l 1
 -50 505 l 1
-35 515 m 1
 -35 510 l 1
 -30 510 l 1
 -30 515 l 1
 -35 515 l 1
-50 520 m 1
 -50 515 l 1
 -35 515 l 1
 -35 520 l 1
 -50 520 l 1
-35 530 m 1
 -35 520 l 1
 -30 520 l 1
 -30 530 l 1
 -35 530 l 1
-50 535 m 1
 -50 530 l 1
 -35 530 l 1
 -35 535 l 1
 -50 535 l 1
-55 535 m 1
 -55 510 l 1
 -50 510 l 1
 -50 535 l 1
 -55 535 l 1
-50 550 m 1
 -50 545 l 1
 -35 545 l 1
 -35 550 l 1
 -50 550 l 1
-35 560 m 1
 -35 550 l 1
 -30 550 l 1
 -30 560 l 1
 -35 560 l 1
-50 565 m 1
 -50 560 l 1
 -35 560 l 1
 -35 565 l 1
 -50 565 l 1
-55 565 m 1
 -55 540 l 1
 -50 540 l 1
 -50 565 l 1
 -55 565 l 1
-45 410 m 1
 -45 390 l 1
 -40 390 l 1
 -40 410 l 1
 -45 410 l 1
-55 415 m 1
 -55 410 l 1
 -30 410 l 1
 -30 415 l 1
 -55 415 l 1
80 700 m 1
 80 680 l 1
 85 680 l 1
 85 700 l 1
 80 700 l 1
95 700 m 1
 95 680 l 1
 100 680 l 1
 100 700 l 1
 95 700 l 1
85 680 m 1
 85 675 l 1
 95 675 l 1
 95 680 l 1
 85 680 l 1
85 705 m 1
 85 700 l 1
 95 700 l 1
 95 705 l 1
 85 705 l 1
70 685 m 1
 70 675 l 1
 75 675 l 1
 75 685 l 1
 70 685 l 1
-15 700 m 1
 -15 680 l 1
 -10 680 l 1
 -10 700 l 1
 -15 700 l 1
0 700 m 1
 0 680 l 1
 5 680 l 1
 5 700 l 1
 0 700 l 1
-10 680 m 1
 -10 675 l 1
 0 675 l 1
 0 680 l 1
 -10 680 l 1
-10 705 m 1
 -10 700 l 1
 0 700 l 1
 0 705 l 1
 -10 705 l 1
105 705 m 1
 105 675 l 1
 110 675 l 1
 110 705 l 1
 105 705 l 1
110 680 m 1
 110 675 l 1
 120 675 l 1
 120 680 l 1
 110 680 l 1
60 690 m 1
 60 685 l 1
 70 685 l 1
 70 690 l 1
 60 690 l 1
70 700 m 1
 70 690 l 1
 75 690 l 1
 75 700 l 1
 70 700 l 1
60 705 m 1
 60 700 l 1
 70 700 l 1
 70 705 l 1
 60 705 l 1
55 705 m 1
 55 675 l 1
 60 675 l 1
 60 705 l 1
 55 705 l 1
40 700 m 1
 40 675 l 1
 45 675 l 1
 45 700 l 1
 40 700 l 1
35 705 m 1
 35 700 l 1
 50 700 l 1
 50 705 l 1
 35 705 l 1
20 690 m 1
 20 680 l 1
 25 680 l 1
 25 690 l 1
 20 690 l 1
15 700 m 1
 15 690 l 1
 20 690 l 1
 20 700 l 1
 15 700 l 1
10 705 m 1
 10 675 l 1
 15 675 l 1
 15 705 l 1
 10 705 l 1
25 705 m 1
 25 675 l 1
 30 675 l 1
 30 705 l 1
 25 705 l 1
-40 700 m 1
 -40 680 l 1
 -35 680 l 1
 -35 700 l 1
 -40 700 l 1
-25 685 m 1
 -25 680 l 1
 -20 680 l 1
 -20 685 l 1
 -25 685 l 1
-25 700 m 1
 -25 695 l 1
 -20 695 l 1
 -20 700 l 1
 -25 700 l 1
-35 680 m 1
 -35 675 l 1
 -25 675 l 1
 -25 680 l 1
 -35 680 l 1
-35 705 m 1
 -35 700 l 1
 -25 700 l 1
 -25 705 l 1
 -35 705 l 1
-125 385 m 1
 -125 360 l 1
 -120 360 l 1
 -120 385 l 1
 -125 385 l 1
-120 365 m 1
 -120 360 l 1
 -100 360 l 1
 -100 365 l 1
 -120 365 l 1
-125 410 m 1
 -125 395 l 1
 -120 395 l 1
 -120 410 l 1
 -125 410 l 1
-105 410 m 1
 -105 395 l 1
 -100 395 l 1
 -100 410 l 1
 -105 410 l 1
-120 395 m 1
 -120 390 l 1
 -105 390 l 1
 -105 395 l 1
 -120 395 l 1
-120 415 m 1
 -120 410 l 1
 -105 410 l 1
 -105 415 l 1
 -120 415 l 1
-105 430 m 1
 -105 420 l 1
 -100 420 l 1
 -100 430 l 1
 -105 430 l 1
-120 435 m 1
 -120 430 l 1
 -105 430 l 1
 -105 435 l 1
 -120 435 l 1
-105 440 m 1
 -105 435 l 1
 -100 435 l 1
 -100 440 l 1
 -105 440 l 1
-120 445 m 1
 -120 440 l 1
 -105 440 l 1
 -105 445 l 1
 -120 445 l 1
-125 445 m 1
 -125 420 l 1
 -120 420 l 1
 -120 445 l 1
 -125 445 l 1
-115 470 m 1
 -115 450 l 1
 -110 450 l 1
 -110 470 l 1
 -115 470 l 1
-125 475 m 1
 -125 470 l 1
 -100 470 l 1
 -100 475 l 1
 -125 475 l 1
-115 495 m 1
 -115 490 l 1
 -110 490 l 1
 -110 495 l 1
 -115 495 l 1
-110 490 m 1
 -110 485 l 1
 -105 485 l 1
 -105 490 l 1
 -110 490 l 1
-120 500 m 1
 -120 495 l 1
 -115 495 l 1
 -115 500 l 1
 -120 500 l 1
-125 505 m 1
 -125 480 l 1
 -120 480 l 1
 -120 505 l 1
 -125 505 l 1
-105 505 m 1
 -105 480 l 1
 -100 480 l 1
 -100 505 l 1
 -105 505 l 1
-125 530 m 1
 -125 515 l 1
 -120 515 l 1
 -120 530 l 1
 -125 530 l 1
-105 530 m 1
 -105 515 l 1
 -100 515 l 1
 -100 530 l 1
 -105 530 l 1
-120 515 m 1
 -120 510 l 1
 -105 510 l 1
 -105 515 l 1
 -120 515 l 1
-120 535 m 1
 -120 530 l 1
 -105 530 l 1
 -105 535 l 1
 -120 535 l 1
-125 560 m 1
 -125 545 l 1
 -120 545 l 1
 -120 560 l 1
 -125 560 l 1
-105 550 m 1
 -105 545 l 1
 -100 545 l 1
 -100 550 l 1
 -105 550 l 1
-105 560 m 1
 -105 555 l 1
 -100 555 l 1
 -100 560 l 1
 -105 560 l 1
-120 545 m 1
 -120 540 l 1
 -105 540 l 1
 -105 545 l 1
 -120 545 l 1
-120 565 m 1
 -120 560 l 1
 -105 560 l 1
 -105 565 l 1
 -120 565 l 1
135 650 m 1
 135 625 l 1
 140 625 l 1
 140 650 l 1
 135 650 l 1
130 655 m 1
 130 650 l 1
 145 650 l 1
 145 655 l 1
 130 655 l 1
120 655 m 1
 120 625 l 1
 125 625 l 1
 125 655 l 1
 120 655 l 1
105 640 m 1
 105 635 l 1
 115 635 l 1
 115 640 l 1
 105 640 l 1
105 655 m 1
 105 650 l 1
 115 650 l 1
 115 655 l 1
 105 655 l 1
100 655 m 1
 100 625 l 1
 105 625 l 1
 105 655 l 1
 100 655 l 1
75 650 m 1
 75 630 l 1
 80 630 l 1
 80 650 l 1
 75 650 l 1
90 650 m 1
 90 630 l 1
 95 630 l 1
 95 650 l 1
 90 650 l 1
80 630 m 1
 80 625 l 1
 90 625 l 1
 90 630 l 1
 80 630 l 1
80 655 m 1
 80 650 l 1
 90 650 l 1
 90 655 l 1
 80 655 l 1
65 635 m 1
 65 625 l 1
 70 625 l 1
 70 635 l 1
 65 635 l 1
55 640 m 1
 55 635 l 1
 65 635 l 1
 65 640 l 1
 55 640 l 1
65 650 m 1
 65 640 l 1
 70 640 l 1
 70 650 l 1
 65 650 l 1
55 655 m 1
 55 650 l 1
 65 650 l 1
 65 655 l 1
 55 655 l 1
50 655 m 1
 50 625 l 1
 55 625 l 1
 55 655 l 1
 50 655 l 1
30 640 m 1
 30 635 l 1
 40 635 l 1
 40 640 l 1
 30 640 l 1
40 650 m 1
 40 640 l 1
 45 640 l 1
 45 650 l 1
 40 650 l 1
30 655 m 1
 30 650 l 1
 40 650 l 1
 40 655 l 1
 30 655 l 1
25 655 m 1
 25 625 l 1
 30 625 l 1
 30 655 l 1
 25 655 l 1
436 386 m 1
 534 386 l 1
 534 370 l 1
 436 370 l 1
 436 386 l 1
492 606 m 1
 502 378 l 1
 468 378 l 1
 458 610 l 1
 492 606 l 1
232 386 m 1
 314 386 l 1
 314 370 l 1
 232 370 l 1
 232 386 l 1
293 584 m 1
 281 378 l 1
 262 378 l 1
 274 584 l 1
 293 584 l 1
366 367 m 1
 286 568 l 1
 274 584 l 1
 270 590 263 594 251 594 c 1
 238 594 l 1
 238 610 l 1
 308 610 l 1
 390 400 l 1
 366 367 l 1
458 610 m 1
 526 610 l 1
 526 594 l 1
 474 594 l 1
 380 367 l 1
 366 367 l 1
 376 402 l 1
 458 610 l 1
51 592 m 1
 38 592 32 586 27 552 c 1
 12 552 l 1
 16 620 l 1
 30 620 l 1
 30 612 34 610 42 610 c 1
 190 610 l 1
 200 610 206 612 206 620 c 1
 220 620 l 1
 222 552 l 1
 207 552 l 1
 204 588 198 592 184 592 c 1
 51 592 l 1
66 386 m 1
 168 386 l 1
 168 370 l 1
 66 370 l 1
 66 386 l 1
134 602 m 1
 134 378 l 1
 100 378 l 1
 100 602 l 1
 134 602 l 1
EndSplineSet
Fore
SplineSet
254 426 m 1
 254 424 l 1
 260 424 l 1
 260 426 l 1
 254 426 l 1
254 436 m 1
 254 434 l 1
 260 434 l 1
 260 436 l 1
 254 436 l 1
256 399 m 1
 256 389 l 1
 258 389 l 1
 258 399 l 1
 256 399 l 1
254 401 m 1
 254 399 l 1
 260 399 l 1
 260 401 l 1
 254 401 l 1
256 434 m 1
 256 426 l 1
 258 426 l 1
 258 434 l 1
 256 434 l 1
258 465 m 1
 258 463 l 1
 262 463 l 1
 262 465 l 1
 258 465 l 1
258 471 m 1
 258 469 l 1
 264 469 l 1
 264 471 l 1
 258 471 l 1
256 471 m 1
 256 459 l 1
 258 459 l 1
 258 471 l 1
 256 471 l 1
256 504 m 1
 256 496 l 1
 258 496 l 1
 258 504 l 1
 256 504 l 1
262 504 m 1
 262 496 l 1
 264 496 l 1
 264 504 l 1
 262 504 l 1
258 496 m 1
 258 494 l 1
 262 494 l 1
 262 496 l 1
 258 496 l 1
258 506 m 1
 258 504 l 1
 262 504 l 1
 262 506 l 1
 258 506 l 1
262 533 m 1
 262 529 l 1
 264 529 l 1
 264 533 l 1
 262 533 l 1
258 535 m 1
 258 533 l 1
 262 533 l 1
 262 535 l 1
 258 535 l 1
262 539 m 1
 262 535 l 1
 264 535 l 1
 264 539 l 1
 262 539 l 1
258 541 m 1
 258 539 l 1
 262 539 l 1
 262 541 l 1
 258 541 l 1
256 541 m 1
 256 529 l 1
 258 529 l 1
 258 541 l 1
 256 541 l 1
258 570 m 1
 258 568 l 1
 262 568 l 1
 262 570 l 1
 258 570 l 1
262 574 m 1
 262 570 l 1
 264 570 l 1
 264 574 l 1
 262 574 l 1
258 576 m 1
 258 574 l 1
 262 574 l 1
 262 576 l 1
 258 576 l 1
256 576 m 1
 256 564 l 1
 258 564 l 1
 258 576 l 1
 256 576 l 1
235 600 m 1
 312 600 l 1
 366 460 l 1
 410 600 l 1
 485 600 l 1
 485 370 l 1
 435 370 l 1
 435 540 l 1
 380 370 l 1
 350 370 l 1
 285 540 l 1
 285 370 l 1
 235 370 l 1
 235 600 l 1
161 584 m 1
 161 576 l 1
 163 576 l 1
 163 584 l 1
 161 584 l 1
167 584 m 1
 167 576 l 1
 169 576 l 1
 169 584 l 1
 167 584 l 1
163 576 m 1
 163 574 l 1
 167 574 l 1
 167 576 l 1
 163 576 l 1
163 586 m 1
 163 584 l 1
 167 584 l 1
 167 586 l 1
 163 586 l 1
142 578 m 1
 142 574 l 1
 144 574 l 1
 144 578 l 1
 142 578 l 1
66 584 m 1
 66 576 l 1
 68 576 l 1
 68 584 l 1
 66 584 l 1
72 584 m 1
 72 576 l 1
 74 576 l 1
 74 584 l 1
 72 584 l 1
68 576 m 1
 68 574 l 1
 72 574 l 1
 72 576 l 1
 68 576 l 1
68 586 m 1
 68 584 l 1
 72 584 l 1
 72 586 l 1
 68 586 l 1
185 586 m 1
 185 574 l 1
 187 574 l 1
 187 586 l 1
 185 586 l 1
187 576 m 1
 187 574 l 1
 191 574 l 1
 191 576 l 1
 187 576 l 1
138 580 m 1
 138 578 l 1
 142 578 l 1
 142 580 l 1
 138 580 l 1
142 584 m 1
 142 580 l 1
 144 580 l 1
 144 584 l 1
 142 584 l 1
138 586 m 1
 138 584 l 1
 142 584 l 1
 142 586 l 1
 138 586 l 1
136 586 m 1
 136 574 l 1
 138 574 l 1
 138 586 l 1
 136 586 l 1
117 584 m 1
 117 574 l 1
 119 574 l 1
 119 584 l 1
 117 584 l 1
115 586 m 1
 115 584 l 1
 121 584 l 1
 121 586 l 1
 115 586 l 1
95 580 m 1
 95 576 l 1
 97 576 l 1
 97 580 l 1
 95 580 l 1
93 584 m 1
 93 580 l 1
 95 580 l 1
 95 584 l 1
 93 584 l 1
91 586 m 1
 91 574 l 1
 93 574 l 1
 93 586 l 1
 91 586 l 1
97 586 m 1
 97 574 l 1
 99 574 l 1
 99 586 l 1
 97 586 l 1
41 584 m 1
 41 576 l 1
 43 576 l 1
 43 584 l 1
 41 584 l 1
47 578 m 1
 47 576 l 1
 49 576 l 1
 49 578 l 1
 47 578 l 1
47 584 m 1
 47 582 l 1
 49 582 l 1
 49 584 l 1
 47 584 l 1
43 576 m 1
 43 574 l 1
 47 574 l 1
 47 576 l 1
 43 576 l 1
43 586 m 1
 43 584 l 1
 47 584 l 1
 47 586 l 1
 43 586 l 1
109 432 m 1
 109 430 l 1
 115 430 l 1
 115 432 l 1
 109 432 l 1
109 424 m 1
 109 422 l 1
 115 422 l 1
 115 424 l 1
 109 424 l 1
111 430 m 1
 111 424 l 1
 113 424 l 1
 113 430 l 1
 111 430 l 1
109 458 m 1
 109 456 l 1
 115 456 l 1
 115 458 l 1
 109 458 l 1
109 462 m 1
 109 460 l 1
 117 460 l 1
 117 462 l 1
 109 462 l 1
107 462 m 1
 107 452 l 1
 109 452 l 1
 109 462 l 1
 107 462 l 1
107 490 m 1
 107 484 l 1
 109 484 l 1
 109 490 l 1
 107 490 l 1
115 490 m 1
 115 484 l 1
 117 484 l 1
 117 490 l 1
 115 490 l 1
109 484 m 1
 109 482 l 1
 115 482 l 1
 115 484 l 1
 109 484 l 1
109 492 m 1
 109 490 l 1
 115 490 l 1
 115 492 l 1
 109 492 l 1
115 514 m 1
 115 512 l 1
 117 512 l 1
 117 514 l 1
 115 514 l 1
109 516 m 1
 109 514 l 1
 115 514 l 1
 115 516 l 1
 109 516 l 1
115 520 m 1
 115 516 l 1
 117 516 l 1
 117 520 l 1
 115 520 l 1
109 522 m 1
 109 520 l 1
 115 520 l 1
 115 522 l 1
 109 522 l 1
107 522 m 1
 107 512 l 1
 109 512 l 1
 109 522 l 1
 107 522 l 1
109 546 m 1
 109 544 l 1
 115 544 l 1
 115 546 l 1
 109 546 l 1
115 550 m 1
 115 546 l 1
 117 546 l 1
 117 550 l 1
 115 550 l 1
109 552 m 1
 109 550 l 1
 115 550 l 1
 115 552 l 1
 109 552 l 1
107 552 m 1
 107 542 l 1
 109 542 l 1
 109 552 l 1
 107 552 l 1
111 400 m 1
 111 392 l 1
 113 392 l 1
 113 400 l 1
 111 400 l 1
107 402 m 1
 107 400 l 1
 117 400 l 1
 117 402 l 1
 107 402 l 1
458 398 m 1
 458 388 l 1
 460 388 l 1
 460 398 l 1
 458 398 l 1
460 390 m 1
 460 388 l 1
 468 388 l 1
 468 390 l 1
 460 390 l 1
458 426 m 1
 458 420 l 1
 460 420 l 1
 460 426 l 1
 458 426 l 1
466 426 m 1
 466 420 l 1
 468 420 l 1
 468 426 l 1
 466 426 l 1
460 420 m 1
 460 418 l 1
 466 418 l 1
 466 420 l 1
 460 420 l 1
460 428 m 1
 460 426 l 1
 466 426 l 1
 466 428 l 1
 460 428 l 1
466 452 m 1
 466 448 l 1
 468 448 l 1
 468 452 l 1
 466 452 l 1
460 454 m 1
 460 452 l 1
 466 452 l 1
 466 454 l 1
 460 454 l 1
466 456 m 1
 466 454 l 1
 468 454 l 1
 468 456 l 1
 466 456 l 1
460 458 m 1
 460 456 l 1
 466 456 l 1
 466 458 l 1
 460 458 l 1
458 458 m 1
 458 448 l 1
 460 448 l 1
 460 458 l 1
 458 458 l 1
462 486 m 1
 462 478 l 1
 464 478 l 1
 464 486 l 1
 462 486 l 1
458 488 m 1
 458 486 l 1
 468 486 l 1
 468 488 l 1
 458 488 l 1
462 514 m 1
 462 512 l 1
 464 512 l 1
 464 514 l 1
 462 514 l 1
464 512 m 1
 464 510 l 1
 466 510 l 1
 466 512 l 1
 464 512 l 1
460 516 m 1
 460 514 l 1
 462 514 l 1
 462 516 l 1
 460 516 l 1
458 518 m 1
 458 508 l 1
 460 508 l 1
 460 518 l 1
 458 518 l 1
466 518 m 1
 466 508 l 1
 468 508 l 1
 468 518 l 1
 466 518 l 1
458 546 m 1
 458 540 l 1
 460 540 l 1
 460 546 l 1
 458 546 l 1
466 546 m 1
 466 540 l 1
 468 540 l 1
 468 546 l 1
 466 546 l 1
460 540 m 1
 460 538 l 1
 466 538 l 1
 466 540 l 1
 460 540 l 1
460 548 m 1
 460 546 l 1
 466 546 l 1
 466 548 l 1
 460 548 l 1
458 576 m 1
 458 570 l 1
 460 570 l 1
 460 576 l 1
 458 576 l 1
466 572 m 1
 466 570 l 1
 468 570 l 1
 468 572 l 1
 466 572 l 1
466 576 m 1
 466 574 l 1
 468 574 l 1
 468 576 l 1
 466 576 l 1
460 570 m 1
 460 568 l 1
 466 568 l 1
 466 570 l 1
 460 570 l 1
460 578 m 1
 460 576 l 1
 466 576 l 1
 466 578 l 1
 460 578 l 1
90 562 m 1
 140 562 l 1
 140 370 l 1
 90 370 l 1
 90 562 l 1
15 600 m 1
 215 600 l 1
 215 560 l 1
 15 560 l 1
 15 600 l 1
EndSplineSet
EndChar

StartChar: quotedblbase
Encoding: 8222 8222 156
Width: 390
Flags: HW
LayerCount: 2
Back
SplineSet
87 12 m 0
 67 21 55 35 55 50 c 0
 55 75 79 100 107 100 c 0
 144 100 185 62 185 2 c 3
 185 -68 135 -125 65 -150 c 1
 50 -120 l 1
 90 -105 117 -70 117 -33 c 3
 117 -13 108 3 87 12 c 0
EndSplineSet
Fore
Refer: 68 8221 N 1 0 0 1 0 -525 2
EndChar

StartChar: degree
Encoding: 176 176 159
Width: 280
Flags: HW
LayerCount: 2
Back
SplineSet
65 495 m 0
 65 454 99 420 140 420 c 0
 181 420 215 454 215 495 c 0
 215 536 181 570 140 570 c 0
 99 570 65 536 65 495 c 0
25 495 m 0
 25 558 77 610 140 610 c 0
 203 610 255 558 255 495 c 0
 255 432 203 380 140 380 c 0
 77 380 25 432 25 495 c 0
-200 500 m 0
 -200 461 -169 430 -130 430 c 0
 -91 430 -60 461 -60 500 c 0
 -60 539 -91 570 -130 570 c 0
 -169 570 -200 539 -200 500 c 0
-240 500 m 0
 -240 561 -191 610 -130 610 c 0
 -69 610 -20 561 -20 500 c 0
 -20 439 -69 390 -130 390 c 0
 -191 390 -240 439 -240 500 c 0
EndSplineSet
Fore
SplineSet
65 495 m 0
 65 453 99 419 140 419 c 0
 181 419 215 453 215 495 c 0
 215 537 181 571 140 571 c 0
 99 571 65 537 65 495 c 0
25 495 m 0
 25 558 77 610 140 610 c 0
 203 610 255 558 255 495 c 0
 255 432 203 380 140 380 c 0
 77 380 25 432 25 495 c 0
EndSplineSet
EndChar

StartChar: cedilla
Encoding: 184 184 160
Width: 250
Flags: HW
LayerCount: 2
Back
SplineSet
402 30 m 1
 445 30 l 25
 414 -32 l 1
 462 -47 495 -80 495 -125 c 3
 495 -195 415 -242 320 -240 c 1
 320 -205 l 1
 384 -205 425 -177 425 -142 c 3
 425 -107 389 -90 347 -85 c 9
 347 -80 l 1
 402 30 l 1
-185 30 m 1
 -145 30 l 25
 -177 -34 l 1
 -129 -49 -95 -83 -95 -125 c 3
 -95 -190 -160 -237 -255 -235 c 1
 -260 -200 l 1
 -195 -200 -160 -174 -160 -142 c 3
 -160 -107 -200 -90 -240 -85 c 9
 -240 -80 l 1
 -185 30 l 1
-420 25 m 1
 -380 25 l 25
 -410 -40 l 1
 -360 -55 -325 -85 -325 -130 c 3
 -325 -190 -390 -235 -485 -235 c 1
 -490 -200 l 1
 -425 -199 -390 -175 -390 -140 c 3
 -390 -110 -425 -90 -470 -85 c 9
 -470 -80 l 1
 -420 25 l 1
-670 25 m 1
 -630 25 l 25
 -665 -50 l 1
 -620 -55 -585 -83 -585 -125 c 3
 -585 -185 -645 -223 -740 -225 c 1
 -745 -190 l 1
 -680 -188 -645 -170 -645 -135 c 3
 -645 -105 -675 -85 -720 -85 c 9
 -720 -80 l 1
 -670 25 l 1
EndSplineSet
Fore
Refer: 153 807 N 1 0 0 1 120 0 2
EndChar

StartChar: asciicircum
Encoding: 94 94 161
Width: 360
Flags: HW
LayerCount: 2
Back
SplineSet
190 555 m 1
 75 330 l 1
 20 330 l 1
 165 615 l 1
 195 615 l 1
 190 555 l 1
195 615 m 1
 340 330 l 1
 285 330 l 1
 170 555 l 1
 165 615 l 1
 195 615 l 1
EndSplineSet
Fore
SplineSet
190 557 m 1
 77 350 l 1
 20 350 l 1
 165 615 l 1
 195 615 l 1
 190 557 l 1
195 615 m 1
 340 350 l 1
 283 350 l 1
 170 557 l 1
 165 615 l 1
 195 615 l 1
EndSplineSet
EndChar

StartChar: braceright
Encoding: 125 125 183
Width: 350
Flags: HW
LayerCount: 2
Back
SplineSet
316 222 m 1
 286 222 l 1
 236 222 220 250 220 305 c 2
 220 495 l 2
 220 560 165 610 100 610 c 2
 40 610 l 9
 40 565 l 1
 85 565 l 2
 125 565 150 535 150 480 c 2
 150 300 l 2
 150 255 180 215 220 200 c 1
 180 185 150 145 150 100 c 2
 150 -80 l 2
 150 -135 125 -165 85 -165 c 2
 40 -165 l 1
 40 -210 l 17
 95 -210 l 2
 155 -210 220 -160 220 -95 c 2
 220 95 l 2
 220 150 236 178 286 178 c 1
 316 178 l 1
 316 222 l 1
EndSplineSet
Fore
SplineSet
325 222 m 1
 325 178 l 1
 296 178 l 1
 246 178 225 150 225 90 c 2
 225 -90 l 2
 225 -160 160 -210 100 -210 c 2
 45 -210 l 9
 45 -165 l 1
 90 -165 l 2
 130 -165 155 -135 155 -80 c 2
 155 95 l 2
 155 140 185 185 225 200 c 1
 185 215 155 260 155 305 c 2
 155 480 l 2
 155 535 130 565 90 565 c 2
 45 565 l 1
 45 610 l 17
 105 610 l 2
 170 610 225 560 225 490 c 2
 225 310 l 2
 225 250 246 222 296 222 c 1
 325 222 l 1
EndSplineSet
EndChar

StartChar: braceleft
Encoding: 123 123 184
Width: 350
Flags: HW
LayerCount: 2
Back
SplineSet
325 222 m 1
 296 222 l 1
 246 222 225 250 225 310 c 2
 225 490 l 2
 225 560 170 610 105 610 c 2
 45 610 l 9
 45 565 l 1
 90 565 l 2
 130 565 155 535 155 480 c 2
 155 305 l 2
 155 260 185 215 225 200 c 1
 185 185 155 140 155 95 c 2
 155 -80 l 2
 155 -135 130 -165 90 -165 c 2
 45 -165 l 1
 45 -210 l 17
 100 -210 l 2
 160 -210 225 -160 225 -90 c 2
 225 90 l 2
 225 150 246 178 296 178 c 1
 325 178 l 1
 325 222 l 1
EndSplineSet
Fore
Refer: 183 125 N -1 0 0 -1 350 400 2
EndChar

StartChar: questiondown
Encoding: 191 191 185
Width: 340
Flags: HW
LayerCount: 2
Back
SplineSet
117 170 m 1
 100 205 85 250 85 285 c 3
 85 320 103 338 148 353 c 2
 178 363 l 2
 238 383 244 402 244 432 c 3
 244 487 200 540 150 540 c 3
 123 540 107 528 87 528 c 3
 65 528 49 548 49 573 c 3
 49 595 73 612 103 612 c 3
 198 612 305 505 305 390 c 3
 305 340 282 315 222 295 c 2
 198 287 l 2
 156 273 142 259 142 230 c 3
 142 210 145 192 149 170 c 9
 117 170 l 1
84 42 m 0
 84 70 107 93 135 93 c 0
 163 93 186 70 186 42 c 0
 186 14 163 -9 135 -9 c 0
 107 -9 84 14 84 42 c 0
EndSplineSet
Fore
Refer: 102 63 N -1 0 0 -1 340 389 2
EndChar

StartChar: asciitilde
Encoding: 126 126 186
Width: 400
Flags: HW
LayerCount: 2
Back
SplineSet
30 190 m 17
 50 220 85 245 115 245 c 3
 145 245 170 230 200 215 c 0
 230 200 255 185 285 185 c 3
 315 185 350 210 370 240 c 1033
EndSplineSet
Fore
SplineSet
380 210 m 17
 355 180 310 155 280 155 c 3
 250 155 225 169 193 185 c 0
 163 200 135 215 115 215 c 3
 92 215 67 202 45 180 c 9
 20 210 l 17
 45 240 90 265 120 265 c 3
 150 265 175 251 207 235 c 0
 237 220 265 205 285 205 c 3
 308 205 333 218 355 240 c 9
 380 210 l 17
EndSplineSet
EndChar

StartChar: eth
Encoding: 240 240 189
Width: 480
Flags: HW
LayerCount: 2
Fore
SplineSet
395 525 m 1
 395 480 l 1
 470 480 l 1
 470 525 l 1
 395 525 l 1
215 525 m 1
 215 480 l 1
 310 480 l 1
 310 525 l 1
 215 525 l 1
390 654 m 1
 380 654 l 1
 255 610 l 1
 255 600 l 1
 316 560 l 1
 316 -14 l 1
 326 -14 l 1
 446 35 l 1
 446 55 l 1
 390 65 l 1
 390 654 l 1
316 78 m 1
 294 60 261 48 231 48 c 3
 156 48 99 120 99 205 c 3
 99 300 156 357 221 357 c 3
 261 357 296 338 316 315 c 1
 316 384 l 17
 296 394 256 399 231 399 c 3
 126 399 25 305 25 175 c 3
 25 75 101 -10 186 -10 c 3
 241 -10 286 18 316 48 c 1
 316 78 l 1
0 660 m 1
 480 660 l 1
 480 -20 l 1
 0 -20 l 1
 0 660 l 1
EndSplineSet
EndChar

StartChar: oslash
Encoding: 248 248 190
Width: 456
Flags: HW
LayerCount: 2
Back
SplineSet
29 18 m 1
 390 410 l 1
 418 382 l 1
 57 -10 l 1
 29 18 l 1
30 20 m 1
 565 615 l 1
 595 585 l 1
 60 -10 l 1
 30 20 l 1
EndSplineSet
Fore
SplineSet
27 16 m 1
 392 412 l 1
 420 384 l 1
 55 -12 l 1
 27 16 l 1
EndSplineSet
Refer: 2 111 N 1 0 0 1 0 0 2
EndChar

StartChar: divide
Encoding: 247 247 191
Width: 400
Flags: HW
LayerCount: 2
Back
SplineSet
156 75 m 0
 156 100 176 120 201 120 c 0
 226 120 246 100 246 75 c 0
 246 50 226 30 201 30 c 0
 176 30 156 50 156 75 c 0
156 335 m 0
 156 360 176 380 201 380 c 0
 226 380 246 360 246 335 c 0
 246 310 226 290 201 290 c 0
 176 290 156 310 156 335 c 0
225 380 m 1
 225 30 l 1
 175 30 l 1
 175 380 l 1
 225 380 l 1
25 230 m 1
 375 230 l 1
 375 180 l 1
 25 180 l 1
 25 230 l 1
EndSplineSet
Fore
SplineSet
157 75 m 0
 157 99 177 119 201 119 c 0
 225 119 245 99 245 75 c 0
 245 51 225 31 201 31 c 0
 177 31 157 51 157 75 c 0
157 335 m 0
 157 359 177 379 201 379 c 0
 225 379 245 359 245 335 c 0
 245 311 225 291 201 291 c 0
 177 291 157 311 157 335 c 0
25 230 m 1
 375 230 l 1
 375 180 l 1
 25 180 l 1
 25 230 l 1
EndSplineSet
EndChar

StartChar: logicalnot
Encoding: 172 172 192
Width: 400
Flags: HW
LayerCount: 2
Back
SplineSet
225 380 m 1
 225 30 l 1
 175 30 l 1
 175 380 l 1
 225 380 l 1
25 230 m 1
 375 230 l 1
 375 180 l 1
 25 180 l 1
 25 230 l 1
EndSplineSet
Fore
SplineSet
345 280 m 1
 345 105 l 1
 295 105 l 1
 295 250 l 1
 345 280 l 1
30 280 m 1
 345 280 l 1
 315 230 l 1
 30 230 l 1
 30 280 l 1
EndSplineSet
EndChar

StartChar: gravecomb.cap
Encoding: 65536 -1 194
Width: 0
GlyphClass: 4
Flags: HW
AnchorPoint: "accent_above_cap" 35 650 mark 0
LayerCount: 2
Back
SplineSet
15 775 m 1
 85 750 l 1
 -40 650 l 1
 -80 650 l 1
 15 775 l 1
EndSplineSet
Fore
SplineSet
-15 775 m 1
 80 650 l 1
 40 650 l 1
 -85 745 l 1
 -15 775 l 1
EndSplineSet
EndChar

StartChar: acutecomb.cap
Encoding: 65537 -1 195
Width: 0
GlyphClass: 4
Flags: HW
AnchorPoint: "accent_above_cap" -35 650 mark 0
LayerCount: 2
Back
SplineSet
15 770 m 1
 85 745 l 1
 -40 645 l 1
 -80 645 l 1
 15 770 l 1
0 640 m 1
 75 625 l 1
 -35 455 l 1
 -70 455 l 1
 0 640 l 1
EndSplineSet
Fore
SplineSet
15 775 m 1
 85 745 l 1
 -40 650 l 1
 -80 650 l 1
 15 775 l 1
EndSplineSet
EndChar

StartChar: uni0302.cap
Encoding: 65538 -1 196
Width: 0
GlyphClass: 4
Flags: HW
AnchorPoint: "accent_above_cap" 0 650 mark 0
LayerCount: 2
Back
SplineSet
15 770 m 1
 125 585 l 1
 87 585 l 1
 0 680 l 1
 -87 585 l 1
 -125 585 l 1
 -15 770 l 1
 15 770 l 1
15 775 m 1
 85 750 l 1
 -40 650 l 1
 -80 650 l 1
 15 775 l 1
EndSplineSet
Fore
SplineSet
20 770 m 1
 125 650 l 1
 87 650 l 1
 0 710 l 1
 -87 650 l 1
 -125 650 l 1
 -20 770 l 1
 20 770 l 1
EndSplineSet
EndChar

StartChar: tildecomb.cap
Encoding: 65539 -1 197
Width: 0
GlyphClass: 4
Flags: HW
AnchorPoint: "accent_above_cap" 0 650 mark 0
LayerCount: 2
Back
SplineSet
168 725 m 17
 136 684 97 641 67 641 c 3
 43 641 18 652 -18 663 c 0
 -36 668 -59 676 -77 676 c 3
 -97 676 -118 658 -138 636 c 9
 -168 660 l 17
 -136 701 -97 744 -67 744 c 3
 -43 744 -18 733 18 722 c 0
 36 717 59 709 77 709 c 3
 97 709 118 727 138 749 c 9
 168 725 l 17
140 563 m 17
 113 525 81 485 56 485 c 3
 36 485 15 495 -15 505 c 0
 -30 510 -49 517 -64 517 c 3
 -81 517 -98 500 -115 480 c 9
 -140 502 l 17
 -113 540 -81 580 -56 580 c 3
 -36 580 -15 570 15 560 c 0
 30 555 49 548 64 548 c 3
 81 548 98 565 115 585 c 9
 140 563 l 17
EndSplineSet
Fore
SplineSet
162 747 m 17
 132 702 95 663 65 663 c 3
 45 663 19 672 -20 685 c 0
 -35 690 -60 697 -75 697 c 3
 -93 697 -117 680 -135 655 c 9
 -162 678 l 17
 -132 723 -95 762 -65 762 c 3
 -45 762 -16 752 20 740 c 0
 35 735 60 728 75 728 c 3
 93 728 117 745 135 770 c 9
 162 747 l 17
EndSplineSet
EndChar

StartChar: macroncomb.cap
Encoding: 65540 -1 198
Width: 0
GlyphClass: 4
Flags: HW
AnchorPoint: "accent_above_cap" 0 650 mark 0
LayerCount: 2
Back
SplineSet
20 770 m 1
 125 650 l 1
 87 650 l 1
 0 710 l 1
 -87 650 l 1
 -125 650 l 1
 -20 770 l 1
 20 770 l 1
EndSplineSet
Fore
SplineSet
-150 735 m 1
 150 735 l 1
 150 680 l 1
 -150 680 l 1
 -150 735 l 1
EndSplineSet
EndChar

StartChar: brevecomb.cap
Encoding: 65541 -1 199
Width: 700
GlyphClass: 4
Flags: HW
LayerCount: 2
Fore
SplineSet
100 500 m 1
 600 500 l 1
 600 0 l 1
 100 0 l 1
 100 500 l 1
EndSplineSet
EndChar

StartChar: uni0307.cap
Encoding: 65542 -1 200
Width: 0
GlyphClass: 4
Flags: HW
AnchorPoint: "accent_above_cap" 0 650 mark 0
LayerCount: 2
Back
SplineSet
-45 540 m 0
 -45 565 -25 585 0 585 c 0
 25 585 45 565 45 540 c 0
 45 515 25 495 0 495 c 0
 -25 495 -45 515 -45 540 c 0
EndSplineSet
Fore
SplineSet
-48 710 m 0
 -48 736 -26 758 0 758 c 0
 26 758 48 736 48 710 c 0
 48 684 26 662 0 662 c 0
 -26 662 -48 684 -48 710 c 0
EndSplineSet
EndChar

StartChar: uni0308.cap
Encoding: 65543 -1 201
Width: 0
GlyphClass: 4
Flags: HW
AnchorPoint: "accent_above_cap" 0 650 mark 0
LayerCount: 2
Back
SplineSet
31 540 m 0
 31 564 51 584 75 584 c 0
 99 584 119 564 119 540 c 0
 119 516 99 496 75 496 c 0
 51 496 31 516 31 540 c 0
-119 540 m 0
 -119 564 -99 584 -75 584 c 0
 -51 584 -31 564 -31 540 c 0
 -31 516 -51 496 -75 496 c 0
 -99 496 -119 516 -119 540 c 0
EndSplineSet
Fore
SplineSet
-132 710 m 0
 -132 735 -111 756 -86 756 c 0
 -61 756 -40 735 -40 710 c 0
 -40 685 -61 664 -86 664 c 0
 -111 664 -132 685 -132 710 c 0
40 710 m 0
 40 735 61 756 86 756 c 0
 111 756 132 735 132 710 c 0
 132 685 111 664 86 664 c 0
 61 664 40 685 40 710 c 0
EndSplineSet
EndChar

